<?xml version="1.0" encoding="UTF-8"?>
<svg id="Lag_1" xmlns="http://www.w3.org/2000/svg" version="1.1" viewBox="0 0 315.62 309.05">
  <!-- Generator: Adobe Illustrator 30.0.0, SVG Export Plug-In . SVG Version: 2.1.1 Build 123)  -->
  <defs>
    <style>
      .st0 {
        fill: #e2b76d;
      }

      .st1 {
        fill: #f7f8f6;
      }

      .st2 {
        fill: #090a0b;
      }

      .st3 {
        fill: #798e70;
      }
    </style>
  </defs>
  <rect class="st0" x="146.61" y="0" width="25.93" height="114.86" rx="12.97" ry="12.97"/>
  <rect class="st0" x="262.73" y="24.65" width="25.24" height="101.74" rx="11.18" ry="11.18" transform="translate(134.05 -172.58) rotate(45)"/>
  <rect class="st0" x="27.64" y="25.2" width="25.24" height="101.74" rx="11.18" ry="11.18" transform="translate(122.53 101.39) rotate(135)"/>
  <polygon class="st0" points="55.33 309.05 106.37 309.05 106.37 210.13 81.13 210.13 55.33 309.05"/>
  <polygon class="st0" points="259.14 309.05 208.1 309.05 208.1 210.13 233.34 210.13 259.14 309.05"/>
  <circle class="st3" cx="157.81" cy="163.85" r="117.54"/>
  <circle class="st1" cx="159.58" cy="163.09" r="87.01"/>
  <path class="st0" d="M15.92,126.69C-3.45,110.5,3.17,62.25,10.68,52.28c7.52-9.97,48.72-30.06,68.78-13.17,20.06,16.9,15.21,11.25,5.65,24.78-9.56,13.53-60.88,69.95-60.88,69.95l-8.3-7.15Z"/>
  <path class="st0" d="M298.76,126.69c19.37-16.19,12.75-64.44,5.23-74.41-7.52-9.97-48.72-30.06-68.78-13.17-20.06,16.9-15.21,11.25-5.65,24.78,9.56,13.53,60.88,69.95,60.88,69.95l8.3-7.15Z"/>
  <g>
    <rect class="st3" x="156.61" y="109.73" width="5.94" height="60.77"/>
    <polygon class="st3" points="159.58 97.82 147.29 120.35 171.86 120.35 159.58 97.82"/>
  </g>
  <g>
    <rect class="st3" x="170.24" y="152.11" width="5.94" height="30.82" transform="translate(340.74 -5.69) rotate(90)"/>
    <polygon class="st3" points="203.15 167.52 183.84 155.24 183.84 179.81 203.15 167.52"/>
  </g>
  <rect class="st2" x="155.91" y="224.55" width="7.33" height="19.81"/>
  <rect class="st2" x="155.91" y="78.01" width="7.33" height="19.81"/>
  <rect class="st2" x="227.75" y="153.95" width="7.33" height="19.81" transform="translate(67.57 395.27) rotate(-90)"/>
  <rect class="st2" x="84.3" y="153.18" width="7.33" height="19.81" transform="translate(-75.13 251.05) rotate(-90)"/>
</svg>