<?xml version="1.0" encoding="UTF-8"?>
<svg xmlns="http://www.w3.org/2000/svg" width="170.99mm" height="202.39mm" viewBox="0 0 484.71 573.71">
  <g id="Lag_1" data-name="Lag 1">
    <rect x="0" width="484.71" height="109.11" style="fill: #798d6f;"/>
    <rect x="0" y="95.22" width="484.71" height="52.19" style="fill: #e2dfde;"/>
    <rect x="0" y="133.76" width="484.71" height="13.05" style="fill: #ebe8e8;"/>
    <rect x="69.24" y="218.1" width="69.24" height="71.12" style="fill: #020202;"/>
    <rect x="0" y="289.22" width="69.24" height="71.12" style="fill: #020202;"/>
    <rect x="138.49" y="289.22" width="69.24" height="71.12" style="fill: #020202;"/>
    <rect x="276.97" y="289.22" width="69.24" height="71.12" style="fill: #020202;"/>
    <rect x="207.73" y="218.1" width="69.24" height="71.12" style="fill: #020202;"/>
    <rect x="138.49" y="218.1" width="69.24" height="71.12" style="fill: #f7f6f5;"/>
    <rect x="0" y="218.1" width="69.24" height="71.12" style="fill: #f7f6f5;"/>
    <rect x="69.24" y="289.22" width="69.24" height="71.12" style="fill: #f7f6f5;"/>
    <rect x="207.73" y="289.22" width="69.24" height="71.12" style="fill: #f7f6f5;"/>
    <rect x="276.97" y="218.1" width="69.24" height="71.12" style="fill: #f7f6f5;"/>
    <rect x="415.46" y="218.1" width="69.24" height="71.12" style="fill: #f7f6f5;"/>
    <rect x="346.22" y="289.22" width="69.24" height="71.12" style="fill: #f7f6f5;"/>
    <rect x="415.46" y="289.22" width="69.24" height="71.12" style="fill: #020202;"/>
    <rect x="346.22" y="218.1" width="69.24" height="71.12" style="fill: #020202;"/>
    <rect y="146.97" width="69.24" height="71.12" style="fill: #020202;"/>
    <rect x="138.49" y="146.97" width="69.24" height="71.12" style="fill: #020202;"/>
    <rect x="69.24" y="146.97" width="69.24" height="71.12" style="fill: #f7f6f5;"/>
    <rect x="415.46" y="146.97" width="69.24" height="71.12" style="fill: #020202;"/>
    <rect x="207.73" y="146.97" width="69.24" height="71.12" style="fill: #f7f6f5;"/>
    <rect x="346.22" y="146.97" width="69.24" height="71.12" style="fill: #f7f6f5;"/>
    <rect x="276.97" y="146.97" width="69.24" height="71.12" style="fill: #020202;"/>
    <rect x="415.46" y="431.47" width="69.24" height="71.12" style="fill: #020202;"/>
    <rect x="0" y="431.47" width="69.24" height="71.12" style="fill: #020202;"/>
    <rect x="69.68" y="502.59" width="69.24" height="71.12" style="fill: #020202;"/>
    <rect x="208.17" y="502.59" width="69.24" height="71.12" style="fill: #020202;"/>
    <rect x="69.68" y="360.34" width="69.24" height="71.12" style="fill: #020202;"/>
    <rect x="138.92" y="431.47" width="69.24" height="71.12" style="fill: #020202;"/>
    <rect x="208.17" y="360.34" width="69.24" height="71.12" style="fill: #020202;"/>
    <rect x="346.65" y="360.34" width="69.24" height="71.12" style="fill: #020202;"/>
    <rect x="277.41" y="360.34" width="69.24" height="71.12" style="fill: #f7f6f5;"/>
    <rect x="138.92" y="360.34" width="69.24" height="71.12" style="fill: #f7f6f5;"/>
    <rect x="0" y="360.34" width="69.24" height="71.12" style="fill: #f7f6f5;"/>
    <rect x="69.68" y="431.47" width="69.24" height="71.12" style="fill: #f7f6f5;"/>
    <rect x="415.46" y="360.34" width="69.24" height="71.12" style="fill: #f7f6f5;"/>
    <rect x="415.46" y="502.59" width="69.24" height="71.12" style="fill: #f7f6f5;"/>
    <rect x="0" y="502.59" width="69.24" height="71.12" style="fill: #f7f6f5;"/>
    <rect x="138.92" y="502.59" width="69.24" height="71.12" style="fill: #f7f6f5;"/>
    <rect x="208.17" y="431.47" width="69.24" height="71.12" style="fill: #f7f6f5;"/>
    <rect x="346.65" y="431.47" width="69.24" height="71.12" style="fill: #f7f6f5;"/>
    <rect x="277.41" y="502.59" width="69.24" height="71.12" style="fill: #f7f6f5;"/>
    <rect x="346.65" y="502.59" width="69.24" height="71.12" style="fill: #020202;"/>
    <rect x="277.41" y="431.47" width="69.24" height="71.12" style="fill: #020202;"/>
    <path d="M100.83,0s17.05,102.24,20.64,115.96c1.33,5.09,2.7,9.77,3.93,13.02,4.58,12.01,15.44,38.32,13.73,48.04-1.72,9.72-22.3,48.04-28.02,53.19s-24.02,19.44-24.59,25.16,3.43,29.74,8.01,34.89c4.58,5.15,28.59,14.3,34.89,13.15,6.29-1.14,28.02-30.31,34.89-39.46,6.86-9.15,14.87-32.03,22.88-36.6,8.01-4.58,25.16-16.01,27.45-22.88s12.01-22.3,8.58-27.45-24.59-18.87-24.59-18.87l-6.29-22.88-4-31.45L182.9.51l-82.07-.51Z" style="fill: #e5c3a3;"/>
    <path d="M191.87,114.36l2.55,19.68,6.42,22.88s21.58,13.73,25.08,18.87c3.5,5.15-6.42,20.59-8.75,27.45-2.33,6.86-19.83,18.3-28,22.88-8.17,4.58-16.33,27.45-23.33,36.6-7,9.15-29.16,38.32-35.58,39.46-6.42,1.14-30.91-8.01-35.58-13.15-4.67-5.15-8.75-29.17-8.17-34.89.58-5.72,19.25-20.02,25.08-25.16,5.83-5.15,26.54-45.28,26.89-55.15s-9.13-30.39-13.8-42.4c-1.26-3.25-1.17-11.61-2.52-16.7l31.39-5.59,36.78-6.55,1.53,11.78Z" style="fill: #5d502d;"/>
    <path d="M357.53.28s-4.6,89.53-4.72,103.72c-.05,5.27-.23,10.14-.63,13.6-1.5,12.77-5.6,40.96-1.56,49.98,4.04,9.02,33.38,41.17,40.18,44.77,6.8,3.6,28.05,13,30,18.41,1.95,5.41.59,39.66-2.58,45.77-3.18,6.11-20.88,10.9-27.26,11.33-6.38.43-34.59-22.57-43.48-29.77s-22.25-27.45-31.13-29.93c-8.88-2.48-25-14.94-32.21-15.49-5.28-.4-18.12-14.5-15.03-24.55,1.82-5.92,19.23-24.32,19.23-24.32l.51-23.74-3.81-31.5L272.68.26l84.85.02Z" style="fill: #e5c3a3;"/>
    <path d="M285.59,120.77l2.36,19.75-.59,23.8s-16.99,18.82-19.62,24.47c-3.96,8.51,8.62,22.25,15.21,24.54,6.92,2.4,23.68,12.93,32.7,15.38,9.02,2.45,22.54,22.68,31.56,29.86,9.02,7.18,33.6,28.38,39.5,31.03,8.59,3.86,35.68-10.28,35.79-22.87.06-6.91,1.3-30.48-.67-35.9-1.97-5.41-23.53-14.74-30.44-18.32-6.91-3.58-36.63-35.68-40.71-44.69-4.08-9.02.18-37.29,1.74-50.1.42-3.47,1.08-13.13,1.14-18.41l-70.1.25,2.13,21.22Z" style="fill: #5d502d;"/>
    <path d="M276.58,177.14s-10.7,11.03-10.7,15.82,5.14,9.18,6.82,12.37c2.37,4.48,17.3,11.24,17.3,11.24,0,0,10.74-11.64,10.74-14.03s-4.55-14.36-9.09-17.16-15.06-8.24-15.06-8.24Z" style="fill: #6e5c37;"/>
    <path d="M207.13,161.69s16.22,8.44,18.22,13.94-1.75,12.57-2.24,16.89c-.7,6.08-14.1,19.73-14.1,19.73,0,0-9.14-5.3-10.13-8.05-.53-1.47-3.84-7.52-3.39-12.75.39-4.53.51-8.2,2.26-10.53,3.77-5,9.38-19.23,9.38-19.23Z" style="fill: #6e5c37;"/>
    <path d="M375.5,280.35s-5.76-5.05-2.4-13.65,18.53-19.61,24.01-23.46c5.47-3.85,2.92-19.44,9.78-22.48s16.24,5.04,16.24,5.04c0,0,5.63,13.86,4.38,17.98-1.25,4.11-2.89,29.77-6.65,32.86-1.95,1.6-6.83,7.1-13.17,9.76-5.91,2.48-13.3,2.16-14.96,2.9-3.43,1.52-17.24-8.94-17.24-8.94Z" style="fill: #6e5c37;"/>
    <path d="M92.4,244.05s4.61-5.67,12.94-2.6,19.36,17.49,23.23,22.7,18.65,2.41,21.79,8.97-4.23,15.8-4.23,15.8c0,0-5.08,9.13-9.88,11.56-7.89,3.99-14.92,3.3-22.61,1.29-6.55-1.71-14.03-4.03-18.09-8.9-1.56-1.87-5.02-11.51-7.79-17.58-2.58-5.66-2.53-12.81-3.29-14.39-1.57-3.28,7.92-16.85,7.92-16.85Z" style="fill: #6e5c37;"/>
    <path d="M281.66,95.5l2.36,12.01s11.41.67,18.48,1.8c7.08,1.13,13.74,1.37,21.76.79,8.03-.58,12.39,1.61,17.82-.8,5.42-2.41,10.78-3.14,10.78-3.14l1.3-10.91s-24.13,3.18-31.68,2.91-19.09-.98-22.64-1.11-18.18-1.53-18.18-1.53Z" style="fill: #6e5c37;"/>
    <path d="M191.12,97.36l.11,12.24s-11.13,3-17.88,5.57c-6.76,2.56-13.28,4.17-21.33,5.26-8.04,1.09-11.91,4.13-17.76,2.88s-11.28-.86-11.28-.86l-3.5-10.42s24.47-1.86,31.87-3.68c7.4-1.82,18.64-4.89,22.13-5.75,3.48-.86,17.64-5.24,17.64-5.24Z" style="fill: #6e5c37;"/>
    <path d="M96.71,400.86s-1.76-29.84-6.44-34.81-18.72-23.65-14.63-29.52c4.1-5.87,66.11-30.45,81.33-33.08s80.74-10.78,92.44-9.92,60.26,2.83,69.62,4.77c9.36,1.94,38.03,14.22,45.05,16.56s42.13,16.97,42.71,25.74,6.44,39.2,0,47.39-17.55,23.96-26.33,23.97c-8.78.01-19.89,12.3-36.86,12.89s-117.6-7.02-126.96-7.61-53.83-5.3-70.79-5.28c-16.97.01-49.15-11.1-49.15-11.1Z" style="fill: #aa1d17;"/>
    <path d="M76.23,338.46s-5.64,8.46,0,14.81c5.64,6.35,15.9,11.64,15.9,24.34s-1.54,16.22,3.59,20.81c5.13,4.59,33.85,15.53,43.08,15.61s34.87-.08,44.62,0,17.44,5.9,29.74,5.9,37.95,3.17,48.21,3.17,43.59,1.59,50.77,3.7,23.59.53,32.31,0,27.18-4.93,38.98-12.78c11.8-7.85,23.08-11.71,23.59-21.69s6.67-40.64,2.56-47.79c-4.1-7.15-17.95-8.45-21.03-10.18s1.03,8.85,4.1,16.78,6.15,22.85,6.15,29.41-5.13,16.08-10.77,21.37c-5.64,5.29-31.28,17.46-38.46,18.52-7.18,1.06-37.16,0-43.45-1.06-6.29-1.06-43.22-2.12-50.4-2.65s-32.82-5.19-42.05-6.3c-9.23-1.11-27.69-5.87-33.85-5.87s-32.31-1.06-42.57-1.06-31.8-6.51-32.82-11.19-1.03-22.67-1.54-31.66-14.36-24.42-17.44-26.49-9.23,4.27-9.23,4.27Z" style="fill: #931915;"/>
    <path d="M117.1,398.59s-15.38-24.95-9.89-29.5c5.49-4.55,63.18-19.73,78.57-19.56,15.38.17,53.29-5.02,79.12-1.87s95.05,10.29,102.19,15.23c7.14,4.94,29.67,15.19,29.12,19.68-.55,4.49-26.92,24.88-42.31,28.97-15.38,4.09-67.03,2.83-80.21,3.46-13.19.63-156.58-16.41-156.58-16.41Z" style="fill: #931915;"/>
    <path d="M208.15,325.7s-1.82,37.66,0,45.07c1.82,7.42,17.79,25.67,22.93,28.53,5.13,2.85,20.54,12.55,29.1,13.12s13.69,7.42,21.11,7.42,74.17-9.7,83.3-10.27c9.13-.57,21.68-2.28,22.82-11.41,1.14-9.13,6.28-22.82,5.13-35.37s3.42-18.83-7.99-25.67c-11.41-6.85-14.83-17.12-21.68-17.12s-5.13-9.57-11.41-8.78c-6.28.79-10.84-9.48-17.69-8.91s-22.82-7.73-28.53-6.15c-5.71,1.59-14.83,4.44-19.4,3.87s-15.98-4.35-21.68-4.46-5.71,7.88-13.12,7.31-14.26-7.42-17.69-1.71-6.85,3.42-11.98,3.99-13.9,2.98-13.23,6.06,0,14.48,0,14.48Z" style="fill: #e8cd91;"/>
    <path d="M208.74,318.37s37.04,28.08,38.82,30.76,28.39,17.87,28.39,17.87c0,0,9-3.5,21.11-2.5,12.11,1,52.68,5.2,59.09,5.2s33.92-8.53,34.99-15.55c1.07-7.02,1.01-12.72,1.01-12.72,0,0-37.39-22.06-44.52-26.41-7.12-4.35-24.22-10.85-35.97-11.11-11.75-.26-34.19-3.6-44.52-3.6s-37.39,5.68-42.38,5.68-17.45,7.02-17.45,7.02l1.42,5.35Z" style="fill: #e2b76d;"/>
    <path d="M210.45,319.11l-2.51,12.86.17,40.9s13.95,20.23,24.3,26.59c10.36,6.35,14.67,10.53,22.57,11.73,7.9,1.2,18.68,6.5,18.68,6.5l3.76-52.4s-8.3-8.85-15.39-13.04-5.29-4.58-15.99-10.33c-8.46-4.55-24.53-12.77-24.53-12.77l-11.04-10.04Z" style="fill: none; stroke: #e2b76d; stroke-miterlimit: 10;"/>
    <path d="M392.16,348.87l.55,17.21-5.58,31.91c-.68,4.1-3.75,7.39-7.79,8.35-8.38,1.98-22.31,2.9-33.6,5.48-16.78,3.83-43.27,5.2-56.73,7.35-13.07,2.09-15.36-1.48-15.36-1.48l3.76-51.18s-.18-.14,11.34-2.63,9.74,1.11,27.18-2.2c13.78-2.61,43.17,2.97,43.17,2.97l33.06-15.78Z" style="fill: none; stroke: #e2b76d; stroke-miterlimit: 10;"/>
    <path d="M206.13,330.05s-1.63-11.39-1.95-16.1,6.01-13.69,13.16-14,6.17-4.39,13.65-4.39h15.92c3.25,0,12.67-5.46,19.17-4.92,6.5.53,19.82,5.24,19.82,5.24l13.32-4.65s6.82,1.82,7.8,2.76,7.47,3.76,12.02,3.76,11.7-3.14,17.22-.31c5.52,2.82,12.02,5.96,15.92,10.35,3.9,4.39,8.45,6.9,11.37,6.9s11.7,3.45,12.02,8.15,14.95,5.02,16.9,12.23,0,15.68,0,15.68l-18.52-11.91s-12.67-10.03-15.92-13.8c-3.25-3.76-8.77-10.97-14.3-10.97s-13.65,3.14-17.87-1.25c-4.22-4.39-16.9-9.74-23.07-9.1s-12.67,1.56-20.47,0-18.2,1.25-24.7,0-5.2.31-16.25,0-10.72,7.85-17.22,6.28c-6.5-1.57-9.42,13.48-9.42,13.48l-7.39,11.54-1.21-4.96Z" style="fill: #96793e;"/>
    <path d="M283.77,310.7s-8.25-.69-8.93,4.58,5.04,14.2,8.93,16.49c3.89,2.29,17.87,7.33,21.3,7.1,3.44-.23,11.91,0,13.74-4.58,1.83-4.58,4.81-8.48,2.29-11s-8.7-9.62-14.2-10.77-23.14-1.83-23.14-1.83Z" style="fill: #b37eb6;"/>
    <path d="M285.64,313.42s-7.39-.58-8,3.84c-.62,4.41,4.52,11.89,8,13.81,3.49,1.92,16.01,6.14,19.09,5.95,3.08-.19,10.67,0,12.31-3.84s4.31-7.1,2.05-9.21c-2.26-2.11-7.8-8.06-12.72-9.02s-20.73-1.53-20.73-1.53Z" style="fill: #e4c8e2;"/>
    <path d="M287.18,314.35s-6.52-.47-7.06,3.16c-.54,3.63,3.98,9.8,7.06,11.38s14.13,5.06,16.84,4.9c2.72-.16,9.42,0,10.87-3.16,1.45-3.16,3.8-5.85,1.81-7.59s-6.88-6.64-11.23-7.43-18.29-1.26-18.29-1.26Z" style="fill: #b37eb6;"/>
    <path d="M288.13,315.52s-5.96-.41-6.45,2.75,3.64,8.51,6.45,9.89,12.91,4.39,15.39,4.26,8.61,0,9.93-2.75,3.48-5.08,1.65-6.59-6.29-5.77-10.26-6.45-16.71-1.1-16.71-1.1Z" style="fill: #e4c8e2;"/>
    <path d="M290.04,316.7s-5.25-.34-5.69,2.26,3.21,7.02,5.69,8.15,11.38,3.62,13.57,3.51,7.59,0,8.75-2.26c1.17-2.26,3.06-4.19,1.46-5.43s-5.54-4.75-9.05-5.32-14.74-.91-14.74-.91Z" style="fill: #b37eb6;"/>
    <path d="M290.8,317.54s-4.8-.3-5.2,1.97,2.93,6.1,5.2,7.08,10.4,3.15,12.4,3.05,6.93,0,8-1.97,2.8-3.64,1.33-4.72-5.07-4.13-8.27-4.62c-3.2-.49-13.47-.79-13.47-.79Z" style="fill: #e4c8e2;"/>
    <path d="M291.83,318.25s-3.91-.23-4.23,1.55,2.39,4.8,4.23,5.58,8.46,2.48,10.09,2.4,5.64,0,6.51-1.55c.87-1.55,2.28-2.87,1.08-3.72s-4.12-3.25-6.73-3.64-10.96-.62-10.96-.62Z" style="fill: #b37eb6;"/>
    <path d="M295.53,319.86s-2.14-.16-2.31,1.04,1.31,3.21,2.31,3.73,4.63,1.66,5.52,1.61,3.09,0,3.56-1.04,1.25-1.92.59-2.49-2.25-2.17-3.68-2.43-5.99-.41-5.99-.41Z" style="fill: #b37eb6;"/>
    <path d="M294.15,319.39s-2.94-.14-3.18.96,1.8,2.98,3.18,3.47,6.37,1.54,7.59,1.49,4.24,0,4.9-.96,1.71-1.78.82-2.31-3.1-2.02-5.06-2.26-8.24-.39-8.24-.39Z" style="fill: #eae5dc;"/>
    <g>
      <path d="M239.14,309.29s-4.74-.54-5.13,3.61,2.89,11.21,5.13,13.01,10.26,5.78,12.23,5.6,6.84,0,7.89-3.61,2.76-6.69,1.32-8.68-5-7.59-8.16-8.49c-3.16-.9-13.28-1.45-13.28-1.45Z" style="fill: #b37eb6;"/>
      <path d="M240.22,311.43s-4.24-.45-4.6,3.03,2.59,9.38,4.6,10.9,9.19,4.84,10.96,4.69,6.13,0,7.07-3.03,2.47-5.6,1.18-7.26-4.48-6.36-7.31-7.11-11.9-1.21-11.9-1.21Z" style="fill: #eae5dc;"/>
      <path d="M241.11,312.17s-3.74-.37-4.06,2.49c-.31,2.87,2.29,7.73,4.06,8.98s8.11,3.99,9.67,3.87c1.56-.12,5.41,0,6.24-2.49s2.18-4.61,1.04-5.99-3.95-5.24-6.45-5.86-10.5-1-10.5-1Z" style="fill: #b37eb6;"/>
      <path d="M241.65,313.09s-3.42-.32-3.71,2.17,2.09,6.72,3.71,7.8,7.41,3.47,8.84,3.36c1.43-.11,4.94,0,5.7-2.17s2-4.01.95-5.2-3.61-4.55-5.89-5.09-9.6-.87-9.6-.87Z" style="fill: #eae5dc;"/>
      <path d="M242.74,314.02s-3.02-.27-3.27,1.79,1.84,5.54,3.27,6.43,6.54,2.86,7.79,2.77,4.36,0,5.03-1.79,1.76-3.3.84-4.29-3.18-3.75-5.19-4.2-8.46-.71-8.46-.71Z" style="fill: #b37eb6;"/>
      <path d="M243.18,314.68s-2.76-.23-2.99,1.55,1.68,4.81,2.99,5.59,5.97,2.48,7.12,2.41,3.98,0,4.59-1.55,1.61-2.87.77-3.72-2.91-3.26-4.75-3.65-7.73-.62-7.73-.62Z" style="fill: #eae5dc;"/>
      <path d="M243.77,315.25s-2.24-.18-2.43,1.22,1.37,3.79,2.43,4.4,4.86,1.96,5.79,1.89,3.24,0,3.74-1.22c.5-1.22,1.31-2.26.62-2.93s-2.37-2.57-3.86-2.87-6.29-.49-6.29-.49Z" style="fill: #b37eb6;"/>
      <path d="M245.9,316.52s-1.23-.12-1.33.82.75,2.53,1.33,2.94,2.66,1.31,3.17,1.27,1.77,0,2.04-.82.72-1.51.34-1.96-1.29-1.72-2.11-1.92-3.44-.33-3.44-.33Z" style="fill: #b37eb6;"/>
      <path d="M245.11,316.14s-1.69-.11-1.83.76,1.03,2.35,1.83,2.73,3.66,1.22,4.36,1.18,2.44,0,2.81-.76.98-1.41.47-1.82-1.78-1.6-2.91-1.79-4.73-.3-4.73-.3Z" style="fill: #eae5dc;"/>
    </g>
    <g>
      <path d="M330.75,340.35s-4.74-.54-5.13,3.61,2.89,11.21,5.13,13.01,10.26,5.78,12.23,5.6,6.84,0,7.89-3.61,2.76-6.69,1.32-8.68-5-7.59-8.16-8.49-13.28-1.45-13.28-1.45Z" style="fill: #b37eb6;"/>
      <path d="M331.82,342.49s-4.24-.45-4.6,3.03c-.35,3.48,2.59,9.38,4.6,10.9,2,1.51,9.19,4.84,10.96,4.69s6.13,0,7.07-3.03,2.47-5.6,1.18-7.26-4.48-6.36-7.31-7.11-11.9-1.21-11.9-1.21Z" style="fill: #eae5dc;"/>
      <path d="M332.71,343.22s-3.74-.37-4.06,2.49c-.31,2.87,2.29,7.73,4.06,8.98s8.11,3.99,9.67,3.87,5.41,0,6.24-2.49,2.18-4.61,1.04-5.99-3.95-5.24-6.45-5.86-10.5-1-10.5-1Z" style="fill: #b37eb6;"/>
      <path d="M333.25,344.15s-3.42-.32-3.71,2.17,2.09,6.72,3.71,7.8,7.41,3.47,8.84,3.36,4.94,0,5.7-2.17,2-4.01.95-5.2-3.61-4.55-5.89-5.09-9.6-.87-9.6-.87Z" style="fill: #eae5dc;"/>
      <path d="M334.35,345.08s-3.02-.27-3.27,1.79,1.84,5.54,3.27,6.43,6.54,2.86,7.79,2.77,4.36,0,5.03-1.79c.67-1.79,1.76-3.3.84-4.29s-3.18-3.75-5.19-4.2-8.46-.71-8.46-.71Z" style="fill: #b37eb6;"/>
      <path d="M334.79,345.74s-2.76-.23-2.99,1.55,1.68,4.81,2.99,5.59,5.97,2.48,7.12,2.41,3.98,0,4.59-1.55,1.61-2.87.77-3.72-2.91-3.26-4.75-3.65-7.73-.62-7.73-.62Z" style="fill: #eae5dc;"/>
      <path d="M335.38,346.3s-2.24-.18-2.43,1.22,1.37,3.79,2.43,4.4,4.86,1.96,5.79,1.89,3.24,0,3.74-1.22,1.31-2.26.62-2.93-2.37-2.57-3.86-2.87-6.29-.49-6.29-.49Z" style="fill: #b37eb6;"/>
      <path d="M337.51,347.57s-1.23-.12-1.33.82.75,2.53,1.33,2.94,2.66,1.31,3.17,1.27,1.77,0,2.04-.82.72-1.51.34-1.96-1.29-1.72-2.11-1.92-3.44-.33-3.44-.33Z" style="fill: #b37eb6;"/>
      <path d="M336.71,347.2s-1.69-.11-1.83.76,1.03,2.35,1.83,2.73,3.66,1.22,4.36,1.18,2.44,0,2.81-.76.98-1.41.47-1.82-1.78-1.6-2.91-1.79-4.73-.3-4.73-.3Z" style="fill: #eae5dc;"/>
    </g>
    <path d="M300.08,384.39c.43,1.02-.15,2.17-1.22,2.43-.26.06-.53.15-.8.26-1.81.71-3.3,1.21-4.38,1.54s-2.12-.36-2.29-1.44l-.2-1.31c-.14-.87.39-1.69,1.22-1.98,1.65-.58,2.87-1.4,3.86-2.32.91-.85,2.38-.54,2.87.61l.94,2.22Z" style="fill: #b37eb6;"/>
    <path d="M343.4,385.17c.38.97-.29,2.01-1.33,2.09-.9.07-1.83.28-2.82.7-4.06,1.71-7.14,2.71-8.9,3.23-.89.26-1.8-.32-1.94-1.24l-.94-6.01c-.12-.75.33-1.47,1.05-1.69,4.17-1.29,6.83-3.54,8.84-6.06.74-.93,2.2-.73,2.64.37l3.4,8.61Z" style="fill: #798d6f;"/>
    <path d="M315.19,405.28c.48,1.22-.31,2.57-1.61,2.74-.74.1-1.51.31-2.31.64-3.66,1.54-6.52,2.51-8.34,3.06-1.17.36-2.39-.41-2.58-1.63l-.79-5.04c-.15-.98.44-1.92,1.39-2.24,3.62-1.2,6.07-3.15,7.95-5.34,1-1.17,2.87-.87,3.43.56l2.85,7.24Z" style="fill: #798d6f;"/>
    <path d="M230.45,348.85c.66,1.68-.35,3.5-2.1,3.94-.46.11-.93.27-1.41.47-3.02,1.27-5.5,2.15-7.3,2.73s-3.51-.56-3.78-2.34l-.51-3.26c-.21-1.37.56-2.71,1.87-3.19,2.8-1.03,4.87-2.52,6.52-4.22,1.47-1.51,4.04-.93,4.81,1.03l1.9,4.83Z" style="fill: #798d6f;"/>
    <path d="M254.38,382.04c.25.87-.26,1.8-1.14,2-.32.07-.64.21-.97.43-1.44.96-2.66,1.62-3.58,2.07-.98.48-2.15-.12-2.32-1.2l-.9-5.77c-.11-.7.26-1.37.89-1.7,1.35-.72,2.34-1.85,3.11-3.2.7-1.22,2.55-.95,2.93.41l1.97,6.97Z" style="fill: #b37eb6;"/>
    <path d="M367.81,392.7c1.58.25,2.89,1.42,4.56,1.74,2.3.45,3.16.11,3.16.11,0,0-.29-2.49-1.25-2.14s-3.9-1.62-3.9-1.62l5.14-.8-.39-2.47s-3.08-.23-5.57.67,3.06-3.11,3.96-3.86-.73-.8-2.12-.58-2.77.43-4.12,2.16c-.49.63-.92,1.37-1.46,2.1l1.98,4.69Z" style="fill: #798d6f;"/>
    <path d="M76.24,386.89l25.67-25.1s21.11-12.55,31.95-11.98,22.25-2.28,25.1,3.42c2.85,5.71,7.42,15.76,12.55,15.01s12.55,4.39,14.83,6.67c2.28,2.28,2.85,8.56,9.13,11.98,6.28,3.42,19.4,6.42,19.97,11.48s-10.84,39.87-15.4,41.01-23.39,2.85-26.82,2.85-27.96-11.41-37.09-11.41h-43.93c-5.71,0-15.98-43.93-15.98-43.93Z" style="fill: #e8cd91;"/>
    <path d="M88.77,429.57s-9.72-8.77-10.21-23.22-12.16-14.97-6.81-22.19,6.32-14.45,17.02-18.58,13.13-9.81,17.5-12.39c4.38-2.58,19.94-6.09,23.34-6.66,3.4-.57,13.13-3.56,19.94,0,6.81,3.56,11.67,3.05,7.78,8.21-3.89,5.16-10.7,4.13-14.59,4.64-3.89.52-12.64-1.03-17.5,3.61-4.86,4.64-10.7,9.81-14.1,9.29s-4.86,7.74-12.16,7.23-.49,7.11-7.78,7.68c-7.29.57-14.1,2.64-14.1,2.64l16.05,33.55s1.29,7.14,0,7.41-4.38-1.22-4.38-1.22Z" style="fill: #96793e;"/>
    <path d="M99.52,375.35s-23.38,11.81-22.41,14.49,68.75,22.13,68.75,22.13c0,0,28.04,4.3,34.59,5.31,6.55,1,22.53-9.2,26-9.2s8.45-1.37,9.02-8.39-8.88-8.09-8.88-8.09c0,0-16.39-12.33-20.24-16.68-3.85-4.35-13.08-12.57-19.44-12.83-6.36-.26-3.99-7.34-9.58-7.34s-23.8,4.3-26.5,4.3-24.7,12.7-24.7,12.7l-6.61,3.6Z" style="fill: #e2b76d;"/>
    <path d="M139.45,361.6s-8.25-.69-8.93,4.58,5.04,14.2,8.93,16.49c3.89,2.29,17.87,7.33,21.3,7.1,3.44-.23,11.91,0,13.74-4.58s4.81-8.48,2.29-11-8.7-9.62-14.2-10.77-23.14-1.83-23.14-1.83Z" style="fill: #b37eb6;"/>
    <path d="M141.32,364.31s-7.39-.58-8,3.84c-.62,4.41,4.52,11.89,8,13.81,3.49,1.92,16.01,6.14,19.09,5.95,3.08-.19,10.67,0,12.31-3.84s4.31-7.1,2.05-9.21c-2.26-2.11-7.8-8.06-12.72-9.02s-20.73-1.53-20.73-1.53Z" style="fill: #e4c8e2;"/>
    <path d="M142.87,365.24s-6.52-.47-7.06,3.16,3.98,9.8,7.06,11.38,14.13,5.06,16.84,4.9c2.72-.16,9.42,0,10.87-3.16,1.45-3.16,3.8-5.85,1.81-7.59s-6.88-6.64-11.23-7.43-18.29-1.26-18.29-1.26Z" style="fill: #b37eb6;"/>
    <path d="M143.82,366.41s-5.96-.41-6.45,2.75,3.64,8.51,6.45,9.89,12.91,4.39,15.39,4.26,8.61,0,9.93-2.75,3.48-5.08,1.65-6.59-6.29-5.77-10.26-6.45-16.71-1.1-16.71-1.1Z" style="fill: #e4c8e2;"/>
    <path d="M145.72,367.59s-5.25-.34-5.69,2.26,3.21,7.02,5.69,8.15,11.38,3.62,13.57,3.51,7.59,0,8.75-2.26,3.06-4.19,1.46-5.43-5.54-4.75-9.05-5.32-14.74-.91-14.74-.91Z" style="fill: #b37eb6;"/>
    <path d="M146.49,368.43s-4.8-.3-5.2,1.97c-.4,2.26,2.93,6.1,5.2,7.08s10.4,3.15,12.4,3.05,6.93,0,8-1.97,2.8-3.64,1.33-4.72-5.07-4.13-8.27-4.62c-3.2-.49-13.47-.79-13.47-.79Z" style="fill: #e4c8e2;"/>
    <path d="M147.52,369.14s-3.91-.23-4.23,1.55,2.39,4.8,4.23,5.58,8.46,2.48,10.09,2.4,5.64,0,6.51-1.55c.87-1.55,2.28-2.87,1.08-3.72s-4.12-3.25-6.73-3.64-10.96-.62-10.96-.62Z" style="fill: #b37eb6;"/>
    <path d="M151.22,370.75s-2.14-.16-2.31,1.04,1.31,3.21,2.31,3.73,4.63,1.66,5.52,1.61,3.09,0,3.56-1.04,1.25-1.92.59-2.49-2.25-2.17-3.68-2.43-5.99-.41-5.99-.41Z" style="fill: #b37eb6;"/>
    <path d="M149.84,370.28s-2.94-.14-3.18.96,1.8,2.98,3.18,3.47,6.37,1.54,7.59,1.49,4.24,0,4.9-.96,1.71-1.78.82-2.31-3.1-2.02-5.06-2.26-8.24-.39-8.24-.39Z" style="fill: #eae5dc;"/>
    <g>
      <path d="M106.12,373.55s-4.74-.54-5.13,3.61,2.89,11.21,5.13,13.01,10.26,5.78,12.23,5.6,6.84,0,7.89-3.61,2.76-6.69,1.32-8.68-5-7.59-8.16-8.49-13.28-1.45-13.28-1.45Z" style="fill: #b37eb6;"/>
      <path d="M107.19,375.69s-4.24-.45-4.6,3.03,2.59,9.38,4.6,10.9c2,1.51,9.19,4.84,10.96,4.69s6.13,0,7.07-3.03,2.47-5.6,1.18-7.26-4.48-6.36-7.31-7.11-11.9-1.21-11.9-1.21Z" style="fill: #eae5dc;"/>
      <path d="M108.08,376.43s-3.74-.37-4.06,2.49c-.31,2.87,2.29,7.73,4.06,8.98s8.11,3.99,9.67,3.87,5.41,0,6.24-2.49,2.18-4.61,1.04-5.99-3.95-5.24-6.45-5.86-10.5-1-10.5-1Z" style="fill: #b37eb6;"/>
      <path d="M108.62,377.35s-3.42-.32-3.71,2.17,2.09,6.72,3.71,7.8,7.41,3.47,8.84,3.36,4.94,0,5.7-2.17,2-4.01.95-5.2-3.61-4.55-5.89-5.09-9.6-.87-9.6-.87Z" style="fill: #eae5dc;"/>
      <path d="M109.72,378.28s-3.02-.27-3.27,1.79,1.84,5.54,3.27,6.43,6.54,2.86,7.79,2.77,4.36,0,5.03-1.79,1.76-3.3.84-4.29-3.18-3.75-5.19-4.2-8.46-.71-8.46-.71Z" style="fill: #b37eb6;"/>
      <path d="M110.16,378.94s-2.76-.23-2.99,1.55,1.68,4.81,2.99,5.59,5.97,2.48,7.12,2.41,3.98,0,4.59-1.55,1.61-2.87.77-3.72-2.91-3.26-4.75-3.65-7.73-.62-7.73-.62Z" style="fill: #eae5dc;"/>
      <path d="M110.75,379.51s-2.24-.18-2.43,1.22,1.37,3.79,2.43,4.4,4.86,1.96,5.79,1.89,3.24,0,3.74-1.22,1.31-2.26.62-2.93-2.37-2.57-3.86-2.87-6.29-.49-6.29-.49Z" style="fill: #b37eb6;"/>
      <path d="M112.87,380.78s-1.23-.12-1.33.82.75,2.53,1.33,2.94,2.66,1.31,3.17,1.27,1.77,0,2.04-.82.72-1.51.34-1.96-1.29-1.72-2.11-1.92-3.44-.33-3.44-.33Z" style="fill: #b37eb6;"/>
      <path d="M112.08,380.4s-1.69-.11-1.83.76,1.03,2.35,1.83,2.73,3.66,1.22,4.36,1.18,2.44,0,2.81-.76.98-1.41.47-1.82-1.78-1.6-2.91-1.79-4.73-.3-4.73-.3Z" style="fill: #eae5dc;"/>
    </g>
    <path d="M105.49,409.14c.13.47-.17.96-.66,1.01-.27.03-.55.13-.84.32-1.17.78-2.12,1.27-2.77,1.56-.48.22-1.04-.09-1.12-.62l-.69-4.4c-.05-.35.11-.72.43-.87,1.18-.56,1.97-1.57,2.56-2.78.32-.66,1.29-.57,1.49.14l1.59,5.63Z" style="fill: #798d6f;"/>
    <path d="M134.14,423.65c.16.56-.18,1.17-.75,1.25-.3.04-.6.15-.91.36-1.31.87-2.37,1.42-3.1,1.75-.56.25-1.21-.1-1.3-.71l-.77-4.96c-.06-.4.13-.8.5-.97,1.31-.62,2.19-1.74,2.85-3.07.38-.77,1.5-.66,1.73.16l1.75,6.2Z" style="fill: #b37eb6;"/>
    <path d="M174.9,433.54c1.58.25,2.89,1.42,4.56,1.74,2.3.45,3.16.11,3.16.11,0,0-.29-2.49-1.25-2.14s-3.9-1.62-3.9-1.62l5.14-.8-.39-2.47s-3.08-.23-5.57.67,3.06-3.11,3.96-3.86-.73-.8-2.12-.58-2.77.43-4.12,2.16c-.49.63-.92,1.37-1.46,2.1l1.98,4.69Z" style="fill: #b0d49f;"/>
    <path d="M46.12,477.15c2.06-24.21-3.09-61.84-3.09-61.84l25.96,15.12,33.65,11.22,4.13,27.07-60.66,8.43Z" style="fill: #aa1d17;"/>
    <path d="M105.99,453.3c-.04-2.72-.18-5.5-.36-8.11-.38-5.48,5.53-9.14,10.27-6.38h0c.41.24.83.43,1.28.58l11.16,3.72c2.44.81,4.21,2.92,4.6,5.46l.26,1.71c.58,3.77-2.04,7.29-5.82,7.81l-13.6,1.89c-4.07.57-7.72-2.56-7.78-6.68Z" style="fill: #e8cd91;"/>
    <path d="M384.92,497.32c-.23-1.56-.52-3.17-.83-4.68-.64-3.17,2.6-4.83,5.64-2.88h0c.26.17.53.31.81.43l6.93,2.98c1.51.65,2.73,1.99,3.16,3.48l.29,1c.63,2.21-.67,4.02-2.88,4.04l-7.97.06c-2.39.02-4.8-2.05-5.14-4.42Z" style="fill: #e8cd91;"/>
    <path d="M400.76,462.29c-.2-1.24-.44-2.52-.7-3.72-.54-2.52,2.03-3.81,4.47-2.24h0c.21.13.42.25.65.35l5.55,2.42c1.21.53,2.19,1.6,2.54,2.79l.24.8c.52,1.76-.5,3.19-2.26,3.18l-6.34-.02c-1.9,0-3.84-1.67-4.13-3.55Z" style="fill: #e8cd91;"/>
    <path d="M130.87,490.83c12.84,5.87,35.01,10.51,35.01,10.51l-15.25,10.92-15.13,15.81-16.06-3.11,11.43-34.13Z" style="fill: #aa1d17;"/>
    <path d="M70.7,487.86c8.9,3.2,24.51,5.2,24.51,5.2l-11.37,7.73-11.51,10.87-11.32-1.28,9.69-22.52Z" style="fill: #aa1d17;"/>
    <path d="M425.15,385.12c8.9,3.2,24.51,5.2,24.51,5.2l-11.37,7.73-11.51,10.87-11.32-1.28,9.69-22.52Z" style="fill: #aa1d17;"/>
    <path d="M427.12,442.81c12.33,5.69,33.62,10.24,33.62,10.24l-14.6,10.48-14.47,15.19-15.42-3.05,10.86-32.87Z" style="fill: #aa1d17;"/>
    <path d="M182.13,488.61l8.78,19.23s50.6,7.12,67.64,5.7c17.04-1.42,69.19,1.42,88.82-9.26,19.62-10.68,43.38-29.91,46.99-42.02,3.61-12.11,26.85-50.57,26.85-62.67s-7.23-15.67-16.01-10.68c-8.78,4.99-17.04,29.2-17.04,29.2l-24.79,9.26-20.14,22.86-35.11,5.63-29.43,9.26-29.95-17.8-19.62-25.64-19.11,6.41-27.88,60.54Z" style="fill: #aa1d17;"/>
    <path d="M182.04,491.63l11.41,20.12h97.01s56.55-4.27,65.37-10.06c8.82-5.79,36.32-23.47,38.39-32.62,2.08-9.14,27.5-40.24,26.98-51.82s-1.04-27.43-6.74-9.75c-5.71,17.68-23.86,62.19-29.57,64.01-5.71,1.83-25.94,25.61-39.43,27.43-13.49,1.83-40.47,6.71-51.36,6.1-10.89-.61-43.5-.61-51.32-.61s-33.76,4.27-39.98,1.22c-6.23-3.05-20.75-14.02-20.75-14.02Z" style="fill: #931915;"/>
    <path d="M296.61,436.48s6.95,12.34,7.6,18.35,1.07,18.59,5.9,19.94,17.5,1.85,21.19,5.66,5.97,11.98,13.32,10.72c7.35-1.26,7.63-11.58,18.27-12.73,10.63-1.15,26.47-10.34,28.48-13.37s3.55-19.09.22-23.88c-3.32-4.78-21.06-13.16-25.64-12.19-4.57.96-27.54,4.82-40.22,4.33s-29.12,3.16-29.12,3.16Z" style="fill: #e8cd91;"/>
    <path d="M361.89,455.52s-24.04,1.1-25.49,2.4-8.54-6.53-8.54-6.53c0,0-12.31-3.47-15.46-4.71-3.15-1.24-6.8-.83-8.25-1.8-1.46-.97-12.42-7.53-7.53-8.42,11.36-2.06,16.11-3.67,16.11-3.67,0,0,11.93.92,15.25-.56,3.32-1.48,20.25-.3,23.41-.9,4.48-.84,13.51-2.71,16.31-2.39,30.71,3.5,26.57,17.29,23.64,17.77-1.34.22-14.23-1.2-14.23-1.2l-15.21,9.99Z" style="fill: #e2b76d;"/>
    <path d="M255.66,416.78s-5.09,15.97-4.32,23.05,3.48,21.66-1.9,24.44c-5.38,2.78-20.3,6.6-23.7,11.93-3.4,5.32-4.02,15.31-13.06,15.73s-12.02-11.37-24.93-9.97c-12.91,1.4-34.06-5.13-37.22-8.09-3.16-2.96-9.09-21.05-6.37-27.4,2.72-6.35,21.63-20.52,27.3-20.58s33.91-1.5,48.83-5.3c14.92-3.8,35.36-3.81,35.36-3.81Z" style="fill: #e8cd91;"/>
    <path d="M183.07,455.38s28.81-4.88,30.86-3.75,8.47-9.69,8.47-9.69c0,0,13.72-7.13,17.14-9.37,3.42-2.23,7.85-2.69,9.33-4.18s12.82-11.84,6.79-11.61c-14.01.53-20.05-.1-20.05-.1,0,0-13.92,4.11-18.24,3.26s-24.1,4.83-28,4.95c-5.53.18-16.72.33-19.96,1.42-35.54,11.87-27.11,26.68-23.51,26.48,1.65-.09,16.58-5.01,16.58-5.01l20.6,7.61Z" style="fill: #e2b76d;"/>
    <g>
      <path d="M328.6,432.49s-4.77-.03-4.71,4.15c.05,4.18,4.08,10.83,6.5,12.39s10.82,4.65,12.76,4.26,6.8-.74,7.46-4.44c.66-3.71,2.03-6.95.38-8.77-1.65-1.82-5.79-7.01-9.02-7.57-3.24-.56-13.36,0-13.36,0Z" style="fill: #b37eb6;"/>
      <path d="M329.9,434.51s-4.27,0-4.24,3.5,3.59,9.05,5.74,10.34,9.66,3.83,11.4,3.49c1.74-.34,6.09-.66,6.7-3.77s1.86-5.83.39-7.35-5.14-5.84-8.03-6.29-11.96.08-11.96.08Z" style="fill: #eae5dc;"/>
      <path d="M330.86,435.14s-3.76.03-3.76,2.92c0,2.88,3.11,7.44,5,8.49s8.49,3.1,10.03,2.8,5.38-.58,5.94-3.15c.56-2.57,1.68-4.82.39-6.06s-4.49-4.78-7.04-5.13-10.55.14-10.55.14Z" style="fill: #b37eb6;"/>
      <path d="M331.5,436s-3.44.04-3.45,2.55,2.8,6.45,4.52,7.36,7.74,2.65,9.15,2.39,4.91-.53,5.44-2.77,1.55-4.2.39-5.27-4.08-4.14-6.4-4.43-9.63.17-9.63.17Z" style="fill: #eae5dc;"/>
      <path d="M332.69,436.81s-3.03.06-3.06,2.13,2.43,5.31,3.94,6.04,6.8,2.14,8.04,1.92,4.33-.47,4.81-2.32c.47-1.85,1.39-3.47.37-4.35s-3.57-3.39-5.62-3.62-8.49.2-8.49.2Z" style="fill: #b37eb6;"/>
      <path d="M333.19,437.42s-2.77.06-2.8,1.86,2.19,4.6,3.57,5.23,6.2,1.83,7.34,1.63,3.96-.43,4.4-2.04,1.29-3.03.36-3.79-3.24-2.93-5.11-3.12-7.75.21-7.75.21Z" style="fill: #eae5dc;"/>
      <path d="M333.84,437.92s-2.25.06-2.28,1.48,1.77,3.62,2.89,4.11,5.04,1.42,5.96,1.26,3.22-.35,3.58-1.62,1.06-2.39.3-2.98-2.63-2.3-4.15-2.44-6.31.19-6.31.19Z" style="fill: #b37eb6;"/>
      <path d="M336.09,438.95s-1.23,0-1.23.96,1.02,2.44,1.64,2.78,2.78,1.01,3.29.92,1.76-.19,1.94-1.03.55-1.58.13-1.99-1.47-1.57-2.31-1.68-3.46.04-3.46.04Z" style="fill: #b37eb6;"/>
      <path d="M335.26,438.66s-1.69.07-1.74.95,1.28,2.23,2.11,2.52,3.77.82,4.46.7,2.42-.26,2.71-1.06.83-1.5.27-1.86-1.94-1.39-3.08-1.46-4.74.21-4.74.21Z" style="fill: #eae5dc;"/>
    </g>
    <g>
      <path d="M190.79,426.86s-4.77-.03-4.71,4.15,4.08,10.83,6.5,12.39,10.82,4.65,12.76,4.26,6.8-.74,7.46-4.44,2.03-6.95.38-8.77-5.79-7.01-9.02-7.57c-3.24-.56-13.36,0-13.36,0Z" style="fill: #b37eb6;"/>
      <path d="M192.09,428.87s-4.27,0-4.24,3.5,3.59,9.05,5.74,10.34c2.15,1.29,9.66,3.83,11.4,3.49s6.09-.66,6.7-3.77,1.86-5.83.39-7.35-5.14-5.84-8.03-6.29-11.96.08-11.96.08Z" style="fill: #eae5dc;"/>
      <path d="M193.05,429.51s-3.76.03-3.76,2.92c0,2.88,3.11,7.44,5,8.49s8.49,3.1,10.03,2.8,5.38-.58,5.94-3.15,1.68-4.82.39-6.06-4.49-4.78-7.04-5.13-10.55.14-10.55.14Z" style="fill: #b37eb6;"/>
      <path d="M193.69,430.37s-3.44.04-3.45,2.55,2.8,6.45,4.52,7.36,7.74,2.65,9.15,2.39,4.91-.53,5.44-2.77,1.55-4.2.39-5.27-4.08-4.14-6.4-4.43-9.63.17-9.63.17Z" style="fill: #eae5dc;"/>
      <path d="M194.87,431.17s-3.03.06-3.06,2.13,2.43,5.31,3.94,6.04,6.8,2.14,8.04,1.92,4.33-.47,4.81-2.32,1.39-3.47.37-4.35-3.57-3.39-5.62-3.62-8.49.2-8.49.2Z" style="fill: #b37eb6;"/>
      <path d="M195.38,431.79s-2.77.06-2.8,1.86,2.19,4.6,3.57,5.23,6.2,1.83,7.34,1.63,3.96-.43,4.4-2.04,1.29-3.03.36-3.79-3.24-2.93-5.11-3.12-7.75.21-7.75.21Z" style="fill: #eae5dc;"/>
      <path d="M196.03,432.28s-2.25.06-2.28,1.48,1.77,3.62,2.89,4.11,5.04,1.42,5.96,1.26,3.22-.35,3.58-1.62,1.06-2.39.3-2.98-2.63-2.3-4.15-2.44-6.31.19-6.31.19Z" style="fill: #b37eb6;"/>
      <path d="M198.28,433.32s-1.23,0-1.23.96,1.02,2.44,1.64,2.78,2.78,1.01,3.29.92,1.76-.19,1.94-1.03.55-1.58.13-1.99-1.47-1.57-2.31-1.68-3.46.04-3.46.04Z" style="fill: #b37eb6;"/>
      <path d="M197.45,433.03s-1.69.07-1.74.95,1.28,2.23,2.11,2.52,3.77.82,4.46.7,2.42-.26,2.71-1.06.83-1.5.27-1.86-1.94-1.39-3.08-1.46-4.74.21-4.74.21Z" style="fill: #eae5dc;"/>
    </g>
    <path d="M236.96,448.67c.47.84.09,1.94-.83,2.23-.33.1-.67.24-1.02.43-1.86.97-3.38,1.66-4.43,2.1-.87.37-1.87-.11-2.12-1.03l-.47-1.73c-.2-.74.18-1.5.87-1.83,1.8-.83,3.04-1.9,3.98-3.06.69-.84,2.01-.69,2.54.26l1.47,2.63Z" style="fill: #798d6f;"/>
    <path d="M311.79,462.95c1.59.07,3.03,1.1,4.72,1.24,2.34.2,3.15-.23,3.15-.23,0,0-.55-2.44-1.47-1.99s-4.05-1.19-4.05-1.19l5.03-1.35-.65-2.42s-3.08.1-5.47,1.26,2.71-3.42,3.52-4.26-.81-.71-2.17-.35-2.71.73-3.86,2.59c-.42.68-.77,1.46-1.22,2.24l2.48,4.45Z" style="fill: #798d6f;"/>
    <path d="M340.36,493.64s-7.06-20.78-7.47-27.19-1.45-8.19,7.51-9.16c8.96-.97,7.83-3.54,13.09-7.34s7.79-9.19,12.39-8.61c4.6.58,13.15-3.08,17.64-4.6,2.11-.71,3.22-.96,4.46-.96,4.81,0,5.98,6.5,5.98,6.5,0,0,4.32,13.06,3.41,17.73s-3.17,10.04-10.08,11.59-7.13,4.81-12.67,5.95-10.7.62-15.03,5.13c-4.33,4.51-7.96,10.28-11.79,11.51-3.83,1.22-7.43-.54-7.43-.54Z" style="fill: #96793e;"/>
    <path d="M218.37,493.71s3.07-25.7,1.92-33.19c-1.15-7.49-.37-9.79-11.25-8.61-10.88,1.18-10.2-2.07-17.41-5.09-7.21-3.03-11.59-8.58-16.9-6.74s-16.39-.18-22.1-.78c-2.69-.28-4.07-.28-5.53.04-5.71,1.22-5.43,9-5.43,9,0,0-1.79,16.12.48,21.27s6.32,10.73,14.92,10.75c8.6.02,9.69,3.71,16.56,3.6s12.86-2.02,19.14,2.05,12.07,9.79,16.93,10.22c4.86.43,8.67-2.52,8.67-2.52Z" style="fill: #96793e;"/>
    <path d="M259.46,452.03c.45-3.49.8-7.02,1.06-10.34.55-6.96,8.47-12.75,13.78-10.08h0c.45.23.94.4,1.46.51l13,2.71c2.84.59,4.63,2.97,4.64,6.15v2.15c.02,4.73-3.85,9.72-8.58,11.09l-17.04,4.94c-5.1,1.48-9-1.86-8.32-7.13Z" style="fill: #e8cd91;"/>
  </g>
  <g id="Hotspot">
    <circle id="hotspotPanel" cx="61.01" cy="121.31" r="49.65" style="fill: #b37eb6;"/>
    <circle id="hotspotTearte" cx="95.21" cy="477.15" r="49.65" style="fill: #b37eb6;"/>
    <circle id="hotspotFod" cx="410.98" cy="173.29" r="49.65" style="fill: #b37eb6;"/>
  </g>
</svg>