<?xml version="1.0" encoding="UTF-8"?>
<svg id="Lag_1" xmlns="http://www.w3.org/2000/svg" version="1.1" viewBox="0 0 391.4 449.7">
  <!-- Generator: Adobe Illustrator 30.0.0, SVG Export Plug-In . SVG Version: 2.1.1 Build 123)  -->
  <defs>
    <style>
      .st0 {
        fill: #dd874f;
      }

      .st1 {
        fill: #ab1d17;
      }
    </style>
  </defs>
  <path class="st1" d="M386.71,31.29c-4.47-15.29-34.61-29.37-56.94-31.18-22.33-1.8-44.66,18.55-50.24,47.67-5.58,29.12-25.68,56.23-26.32,54.31-.64-1.91-11.49-40.84-17.87-47.22s-13.4-8.3-21.7-6.38c-8.3,1.91-10.21,11.49-12.44,24.25s12.44,68.92,12.44,80.08c0,7.63-11.62,42.05-18.98,63.09-1.8-10.76-3.75-19.83-5.88-23.63-6.34-11.3-11.32-19.7-19.78-18.75-8.46.94-14.45,5.08-18.35,13.21-3.9,8.14-1.23,48.46-1.2,50.48.03,2.02-27.92-16.89-42.84-42.51-14.92-25.62-42.74-37.42-63.2-28.31C22.94,175.49-.83,198.78.02,214.68c.86,15.9,17.32,72.84,31.35,89.2,14.01,16.34,120.24,100.47,127.81,111.2l94.02-76.03s24.78,14.29,32.2,21.95c7.22,7.45-94.75,84.21-100.45,88.5.02.03.04.05.04.05,0,0,108.14-81.03,100.71-88.69-7.43-7.66-32.2-21.95-32.2-21.95,0,0-24.75-30.22-39.47-50.55-5.4-7.45-9.45-13.58-10.44-16.4-1.73-4.92-3.69-20.15-5.94-36.15l105.29,37.49s.02-.06.02-.08c3.35-12.29,75.92-127.26,83.73-147.36,7.82-20.1,4.47-79.27,0-94.55Z"/>
  <path class="st0" d="M203.59,271.95c.99,2.82,5.04,8.95,10.44,16.4,34.97,13.01,76.04,25.94,76.04,25.94,0,0,9.55-28.71,12.9-41h-.02s-105.29-37.5-105.29-37.5c2.25,16,4.21,31.23,5.94,36.15Z"/>
  <path class="st0" d="M285.41,361c-7.43-7.66-32.2-21.95-32.2-21.95l-94.02,76.03-.25.21c7.24,10.48,25.77,34.41,25.77,34.41,0,0,.1-.07.26-.2,5.7-4.28,107.67-81.05,100.45-88.5Z"/>
</svg>