<?xml version="1.0" encoding="UTF-8"?>
<svg id="Lag_1" xmlns="http://www.w3.org/2000/svg" version="1.1" viewBox="0 0 344.83 361.36">
  <!-- Generator: Adobe Illustrator 30.0.0, SVG Export Plug-In . SVG Version: 2.1.1 Build 123)  -->
  <defs>
    <style>
      .st0 {
        fill: none;
        stroke: #ab1d17;
        stroke-miterlimit: 10;
        stroke-width: 54px;
      }

      .st1 {
        fill: #e8cd91;
      }

      .st2 {
        fill: #ab1d17;
      }

      .st3 {
        fill: #020202;
      }

      .st4 {
        fill: #fff;
      }

      .st5 {
        fill: #b47eb6;
      }
    </style>
  </defs>
  <path class="st4" d="M100.78,162.43s1.64-20.44,12.52-32.21c10.88-11.76,29.84-19.1,34.93-20.14s26.41-2.3,40.03,4.36,24.79,15.72,28.13,21.69,8.54,18.96,8.54,18.96c0,0-5.79-2.35-11.83-3.62-6.04-1.27-15.16,2.89-16.63,5.17-.55.86-.77,1.4-1.34,1.43-.96.05-2.9-1.3-9.04-4.91-3.96-2.34-6.75-3.45-10.87-3.13s-11.95,9.09-11.95,9.09c0,0-8.91-5.77-13.01-7.26s-10.54.39-12.98,3.39c-2.45,3-6.25,8.66-6.25,8.66,0,0-4.29-7.06-11.66-8.7s-18.59,7.21-18.59,7.21Z"/>
  <path class="st2" d="M100.88,163.94s-1.68-18.64,8.65-30.47,27.46-21.72,33.86-22.91c6.4-1.19,8.14-.93,8.14-.93,0,0-7.79,5.41-14.67,10.88-4.58,3.64-7.12,5.87-8.93,8.61-1.21,1.83-4.59,8.72-5.83,17.51-1.24,8.79,8.34,16.29,8.34,16.29,0,0-10.59-6.23-14.79-6.25s-14.77,7.27-14.77,7.27Z"/>
  <path class="st2" d="M225.28,156.34s-1.12-18.82-13.12-29.16c-12-10.34-30.46-17.78-36.98-18.06-6.52-.28-6.78.42-6.78.42,0,0,7.1,4.11,14.73,8.59,5.08,2.98,7.93,4.85,10.13,7.33,1.48,1.66,5.85,8.05,8.39,16.64s-6.53,16-6.53,16c0,0,10.27-6.28,14.42-6.9s15.73,5.16,15.73,5.16Z"/>
  <path class="st2" d="M156.29,111.83s-12.1,15.09-15.31,21.36-9.96,31.33-9.96,31.33c0,0,5.61-7.61,9.72-8.32s6.4-2.37,10.35-.68,12.18,4.21,12.18,4.21c0,0-7.16-16.33-7.62-21.39s1.44-24.72,3.54-28.04-2.89,1.53-2.89,1.53Z"/>
  <path class="st2" d="M167.69,111.04s12.76,14.63,16.15,20.81c3.39,6.17,11.28,26.23,11.28,26.23,0,0-6.62-2.48-10.93-2.99-4.31-.51-6.73-2.07-10.86-.15s-10.05,4.19-10.05,4.19c0,0,4.74-16.19,5.2-21.33s-1.21-24.12-3.42-27.37c-.41-.61-1.01-1.02-.84-1.1.65-.31,3.47,1.7,3.47,1.7Z"/>
  <rect class="st3" x="193.61" y="142.84" width=".89" height="84.17" transform="translate(198.09 -83.1) rotate(47.24)"/>
  <rect class="st3" x="162.83" y="159.13" width=".89" height="90.96"/>
  <rect class="st3" x="179.17" y="154.37" width=".89" height="62.61" transform="translate(116.9 -64.93) rotate(30)"/>
  <rect class="st3" x="132.93" y="148.8" width=".89" height="78.51" transform="translate(363.05 208.23) rotate(130.36)"/>
  <rect class="st3" x="147.34" y="158.05" width=".89" height="58.67" transform="translate(369.47 275.76) rotate(150)"/>
  <path class="st5" d="M201.55,245.2"/>
  <g>
    <path class="st1" d="M136.38,231.97c-4-1.46-8.51.51-9.99,4.5-.79,2.12-1.08,4.58-.06,7.08,2.83,6.91,13.01,11.77,24.69,14.29,11.69,2.52,29.55,4.68,36.84,3.61s14.87-4.28,18.73-9.94,3.37-13.41-3.88-12.13c-7.25,1.28-26.89,5.51-35.04,4.7-8.15-.81-18.41-6.36-23.35-8.82-2.21-1.1-5.27-2.3-7.93-3.27Z"/>
    <path class="st2" d="M210.46,246.43c-.69,2.17-2.4,4.01-4.69,5.06-6.14,2.8-19.19,7.91-30.46,6.71-15.34-1.63-34.64-6.49-41.69-9.16s-13.74-7.9-12.78-11.11,1.95-3.73,5.4-4.17,12.95,4.72,18.42,6.12c5.47,1.4,19.83,6.15,24.79,6.42s14.14.54,18.19-.63,9.75-3.24,12.51-3.59,5.71-.47,7.49-.04c1.01.25,2.79,1.09,2.89,4.17,0,.07-.04.15-.07.23Z"/>
    <path class="st1" d="M128.27,242.76c-6.26-2.19-14.18-3.22-10.87,5.04.59,1.48,2,5.31,2.73,6.97,2.64,5.97,14.03,9.43,25.59,11.34,11.56,1.91,29.27,3.34,36.55,2.21s17.88-3.44,21.86-8.49.71-12.48-6.53-11.18-26.89,5.5-34.98,5-18.6-3.3-24.82-5.47c-2.19-.76-6.72-4.44-9.54-5.42Z"/>
  </g>
  <circle class="st0" cx="166.54" cy="188.88" r="124.56"/>
  <g>
    <path class="st4" d="M90.8,70.32l4.68-1.9.96,2.23-.54.22-4.4,1.21-.71-1.76ZM93.68,69.15l1.87-.76,4.85,11.26,4.13,10.19-2.12.86-8.74-21.55ZM93.88,69.07l5.57-2.26,12.38,13.57-1.09.44-.9-18.22,2.16-.88,1.17,24.62-2.53,1.03-16.77-18.29ZM98.54,90.22l3.62-2.04.94-.38,3.44-.82.71,1.76-8,3.24-.71-1.76ZM115.11,74.51l-4.78-12.11,5.47-2.22c1.26,3.4,2.65,6.81,4.02,10.21l.49,1.21c1.39,3.42,2.77,6.84,4.22,10.13l-5.69,2.31c-1.26-3.4-2.67-6.8-3.75-9.52ZM112.95,61.33l5.16-2.09.71,1.76-4.44,2.37-.52.21-.91-2.25ZM115.79,83.22l4-2.19,1.51-.61,4.96-1.44.71,1.76-10.46,4.24-.71-1.76Z"/>
    <path class="st4" d="M127.06,79.03l3.47-1.24.62-.12,3.4-.14.37,1.86-7.48,1.5-.37-1.86ZM132.73,56.07l3.59-.72,12.38,21.29-5.93,1.19-9.65-17.45.95-2.01-2.55,21.72-2.06.41,3.28-24.42ZM131.83,71.02l9.37-1.88,1.19,1.87-10.73,2.15.18-2.14ZM139.04,76.72l3.82-1.31,2.32-.46,4.56-.37.36,1.79-10.7,2.14-.36-1.79Z"/>
    <path class="st4" d="M150.31,54.8l-.04-1.9,5.69-.12.05,2.43h-.56s-5.15-.41-5.15-.41ZM156.39,73.6l.05,2.43-5.69.12-.04-1.9,5.13-.64h.56ZM153.22,63.81c-.07-3.64-.15-7.32-.33-10.97l6.15-.13c-.03,3.58.04,7.26.12,10.97l.02,1.17c.08,3.79.15,7.47.33,11.11l-6.15.13c.03-3.58-.04-7.26-.12-11.09l-.02-1.19ZM156.4,73.99l4.21-.09c4.05-.08,6.48-3.6,6.36-9.74-.13-6.23-2.7-9.52-6.69-9.44l-4.27.09-.04-2.04,4.82-.1c7.54-.15,12.17,4.16,12.32,11.31.15,7.39-4.74,11.79-12.47,11.95l-4.19.09-.04-2.04Z"/>
    <path class="st4" d="M179.91,73.9l-.27,2.42-5.66-.64.21-1.89,5.17.05.56.06ZM176.38,54.46l.21-1.89,5.66.64-.27,2.42-.56-.06-5.04-1.11ZM178.06,63.78c.41-3.62.83-7.28,1.13-10.92l6.12.69c-.51,3.54-.92,7.2-1.34,10.89l-.13,1.16c-.43,3.77-.84,7.42-1.15,11.06l-6.12-.69c.51-3.54.92-7.2,1.34-10.89l.15-1.3ZM193.57,71.77l-.93,6.03-13.01-1.47.22-1.96,11.83,1.34-2.77,1.67,1.73-5.94,2.93.33ZM188.62,66.31l-7.75-.88.24-2.07,7.75.88-.24,2.07ZM190.83,54.18l2.32,2.28-11.12-1.26.23-1.99,12.3,1.39-.44,6.09-2.93-.33-.35-6.18ZM187.71,64.72l.91-3.31,2.04.23-.86,7.57-2.04-.23-.12-3.61.07-.65Z"/>
    <path class="st4" d="M194.38,76l3.77.5.98.27,4.25,1.73-.51,1.83-8.99-2.5.51-1.83ZM202.99,56.24l1.68,2.47-5.71,20.54-2.2-.61,6.23-22.4ZM201.54,57.13l1.7,1.51-3.61-1.34.52-1.86,7.7,2.14,7.56,20.19-1.58,5.68-2.89-.8-9.4-25.52ZM217.87,60.37l2.2.61-6.25,22.47-1.59-2.81,5.63-20.27ZM213.97,59.29l8.99,2.5-.51,1.83-3.6-.45-.95-.26-4.44-1.79.51-1.83Z"/>
    <path class="st4" d="M230.1,85.09c.76-1.7.27-2.85-1.29-4.59l-1.09-1.24c-3.03-3.44-4.37-6.34-2.77-9.91,1.73-3.88,5.92-4.83,10.82-2.64,2.3,1.03,4.26,2.63,5.37,4.37l-2.29,4.41-2.96-1.32,1.39-5.23,2.19,2.09-.72,1.62c-1.17-2.02-2.09-3.23-3.75-3.97-1.84-.82-3.85-.32-4.64,1.45-.76,1.71-.14,3.06,1.39,4.77l1.21,1.37c3.29,3.7,4.19,6.24,2.73,9.51-1.71,3.81-5.83,5.21-11.35,2.74-2.42-1.08-4.91-2.85-6.26-4.82l2.34-4.72,3.01,1.35-1.5,5.61-2.14-1.9.69-1.55c1.56,2.02,2.63,3.19,4.71,4.12,2.3,1.03,4.14.26,4.92-1.5Z"/>
  </g>
  <g>
    <path class="st4" d="M56.4,270.82l-1.8,1.67-3.9-4.22,1.41-1.3,3.91,3.44.38.41ZM61.55,261.97c2.74-2.53,5.5-5.09,8.17-7.7l4.15,4.49c-2.76,2.41-5.52,4.96-8.32,7.54l-.63.59c-2.87,2.65-5.61,5.19-8.28,7.8l-4.15-4.49c2.76-2.41,5.51-4.95,8.3-7.53l.76-.71ZM64.3,263.52l2.65,2.86c2.06,2.22,4.09,2.25,6.16.34,1.94-1.79,1.99-3.61.09-5.67l-2.87-3.1,1.51-1.4,3.94,4.26c4.11,4.44,3.9,7.72,1.59,9.86-1.95,1.8-4.73,2.13-9.15-1.66l.24-.22c4.01,4.9,4.05,8.25,1.51,10.6-2.2,2.03-6.32,2.87-12.36-3.66l-3.01-3.25,1.51-1.4,2.81,3.04c2.24,2.43,4.7,2.77,6.91.72,2.38-2.2,2.28-4.41-.14-7.02l-2.79-3.02,1.4-1.29ZM66.52,253.63l1.41-1.3,3.9,4.22-1.8,1.67-.38-.41-3.13-4.17Z"/>
    <path class="st4" d="M74.3,288.13l-1.5,1.94-4.55-3.51,1.17-1.52,4.43,2.74.45.34ZM77.99,278.43c2.24-2.92,4.51-5.86,6.67-8.84l4.92,3.79c-2.29,2.79-4.55,5.74-6.84,8.71l-.72.93c-2.33,3.03-4.6,5.97-6.76,8.95l-4.92-3.79c2.29-2.79,4.55-5.74,6.84-8.71l.81-1.05ZM87.22,293.41l-3.95,4.72-10.46-8.06,1.22-1.58,9.51,7.33h-3.26l4.59-4.23,2.36,1.82ZM85.78,286.11l-6.23-4.8,1.29-1.67,6.23,4.8-1.29,1.67ZM81.4,269.5l1.17-1.52,4.55,3.51-1.5,1.94-.45-.34-3.78-3.59ZM85.83,284.27l2.51-2.39,1.64,1.26-4.69,6.09-1.64-1.26,1.77-3.18.4-.52ZM94.02,276.8l.82,3.18-8.95-6.89,1.23-1.6,9.9,7.62-3.56,5.03-2.36-1.82,2.92-5.52Z"/>
    <path class="st4" d="M99.85,301.98c.9-1.65.5-2.85-.93-4.72l-1-1.33c-2.78-3.7-3.88-6.73-1.99-10.2,2.06-3.76,6.34-4.39,11.1-1.79,2.24,1.22,4.07,2.99,5.05,4.83l-2.66,4.25-2.88-1.57,1.82-5.15,2.04,2.28-.86,1.57c-1.01-2.12-1.84-3.42-3.46-4.3-1.79-.98-3.85-.63-4.79,1.08-.91,1.66-.39,3.07,1.02,4.91l1.1,1.48c3.02,3.99,3.72,6.61,1.99,9.79-2.02,3.7-6.28,4.77-11.64,1.84-2.35-1.28-4.71-3.26-5.91-5.36l2.73-4.56,2.92,1.6-1.96,5.52-2-2.09.82-1.51c1.4,2.16,2.39,3.42,4.41,4.53,2.23,1.22,4.14.59,5.07-1.11Z"/>
    <path class="st4" d="M113.25,310.68l4.22,2.01-.62,1.82-10.3-3.52.62-1.82,5.08,1.17.99.34ZM113.17,300.14c1.19-3.48,2.39-7,3.48-10.51l5.63,1.92c-1.27,3.38-2.47,6.9-3.68,10.45l-.5,1.47c-1.11,3.26-2.32,6.78-3.41,10.29l-5.63-1.92c1.27-3.38,2.47-6.9,3.68-10.45l.43-1.25ZM113.53,290.59l.62-1.82,10.66,3.64-.62,1.82-4.93-1.12-.99-.34-4.73-2.18ZM114.55,305.39l16.98-10.69,2.52.86-20.3,12.19.81-2.37ZM119.67,313.43l4.72,1.05.78.27,4.27,2.03-.62,1.82-9.77-3.34.62-1.82ZM124.9,299.93l2.93,18.32-6.18-2.11-1.73-13.12,4.98-3.09ZM126.9,295.16l.62-1.82,7.82,2.67-.62,1.82-4.09-.83-1.01-.29-2.73-1.55Z"/>
    <path class="st4" d="M134.87,297.84l.28-1.9,11.4,1.7-.28,1.9-4.57-.14-1.55-.23-5.28-1.33ZM141.42,312.85l-5.31-16.76,6.79,1.01,3.68,13.12h-1.13s7.6-11.6,7.6-11.6l2.39.36-10.03,14.48-3.98-.59ZM143.62,318.46l5.25,1.32-.28,1.9-12.11-1.81.28-1.9,5.31.25,1.55.23ZM141.18,309.4l5.94.89c-.79,5.33-1.15,7.69-1.53,10.95l-6.15-.92c.58-3.16.93-5.53,1.74-10.92ZM152.5,301.01l-3.26-1.03.28-1.9,7.31,1.09-.28,1.9-3.23.06-.82-.12Z"/>
    <path class="st4" d="M157.88,301.09l2.53-2.09-.74,6.67-2.98.09-.06-6.65,20.97-.62.3,6.64-2.95.09-1.13-6.61,2.62,1.94-18.55.54ZM168.46,319.8l5.4.38.06,1.92-12.24.36-.06-1.92,5.27-.69,1.56-.04ZM164.42,309.96c-.11-3.68-.22-7.39-.43-11.07l6.21-.18c0,3.61.11,7.33.22,11.08l.04,1.3c.11,3.71.22,7.42.43,11.1l-6.21.18c0-3.61-.11-7.33-.22-11.08l-.04-1.32Z"/>
    <path class="st4" d="M179.48,300.18l2.13-2.5.42,6.7-2.92.6-1.21-6.53,20.55-4.24,1.44,6.49-2.89.6-2.26-6.32,2.92,1.46-18.17,3.75ZM187.46,307.79c-.74-3.6-1.49-7.24-2.34-10.83l6.09-1.25c.62,3.56,1.37,7.2,2.13,10.87l.26,1.27c.75,3.63,1.5,7.27,2.35,10.85l-6.09,1.25c-.62-3.56-1.37-7.2-2.13-10.87l-.27-1.29ZM193.13,316.77l5.39-.56.39,1.88-11.99,2.47-.39-1.88,5.07-1.59,1.53-.32Z"/>
    <path class="st4" d="M199.75,295.74l-.7-1.79,5.35-2.1.89,2.29-.52.21-5.02,1.39ZM205.65,303.26c-1.34-3.43-2.7-6.89-4.14-10.27l5.79-2.27c1.22,3.4,2.57,6.86,3.94,10.35l.43,1.1c1.39,3.56,2.75,7.02,4.19,10.41l-5.78,2.27c-1.22-3.4-2.57-6.86-3.94-10.35l-.48-1.23ZM212.51,288.68l3.14.94-10.52,4.12-.74-1.88,11.63-4.56,2.48,5.64-2.77,1.09-3.23-5.34ZM212.07,311.42l.9,2.29-5.35,2.09-.7-1.79,4.63-2.39.52-.21ZM216.25,300.54l-7.33,2.87-.77-1.96,7.33-2.87.77,1.96ZM223.25,303.07l2.01,5.82-12.3,4.82-.73-1.86,11.18-4.38-1.68,2.8-1.26-6.12,2.77-1.08ZM214.69,299.55l-.75-3.38,1.93-.76,2.8,7.16-1.93.75-1.81-3.16-.24-.62Z"/>
    <path class="st4" d="M218.55,288.23l-.98-1.65,10.12-6.03.98,1.65-4.27,3.17-1.12.67-4.73,2.2ZM219.84,285.22l5.34-3.18c1.77,3.17,3.67,6.37,5.58,9.57l.96,1.62c1.61,2.7,3.51,5.89,5.48,8.98l-5.34,3.18c-1.77-3.17-3.67-6.37-5.2-8.93l-1.06-1.78c-1.89-3.18-3.8-6.37-5.76-9.46ZM233.27,301.69l1.26,2.11-4.94,2.94-.98-1.65,4.18-3.12.48-.29ZM242.21,291.07l3.28,6.2-10.96,6.53-1.05-1.76,9.93-5.92-1.28,3.15-2.38-6.73,2.46-1.47Z"/>
    <path class="st4" d="M254.96,283.47c-1.2-1.45-2.46-1.52-4.73-.88l-1.61.43c-4.47,1.21-7.69,1.12-10.21-1.92-2.74-3.3-1.73-7.52,2.44-10.98,1.96-1.63,4.29-2.68,6.36-2.91l2.97,4.04-2.52,2.09-4.11-3.6,2.87-1.05,1.14,1.38c-2.35.15-3.86.45-5.28,1.62-1.57,1.3-2.01,3.34-.76,4.85,1.21,1.45,2.71,1.49,4.94.87l1.78-.48c4.82-1.33,7.52-1.01,9.83,1.78,2.69,3.25,2.11,7.61-2.59,11.5-2.06,1.71-4.77,3.17-7.17,3.51l-3.22-4.23,2.56-2.12,4.41,3.86-2.68,1.09-1.09-1.32c2.53-.51,4.07-.96,5.84-2.42,1.96-1.62,2.08-3.63.84-5.12Z"/>
    <path class="st4" d="M249.37,266.39l-1.44-1.27,3.8-4.31,1.84,1.62-.37.42-3.83,3.54ZM258.06,270.38c-2.76-2.43-5.55-4.89-8.38-7.24l4.11-4.66c2.64,2.47,5.42,4.92,8.24,7.4l.88.78c2.87,2.53,5.66,4.99,8.49,7.34l-4.11,4.66c-2.64-2.47-5.42-4.92-8.24-7.4l-.99-.88ZM257.49,254.28l3.22-.61-7.47,8.48-1.51-1.33,8.26-9.38,4.78,3.88-1.97,2.24-5.32-3.28ZM266.24,263.11l-5.2,5.9-1.58-1.39,5.2-5.9,1.58,1.39ZM264.4,262.95l-2.22-2.67,1.37-1.55,5.77,5.09-1.37,1.55-3.06-1.98-.5-.44ZM267.5,274.71l1.84,1.62-3.8,4.31-1.44-1.27,3.03-4.25.37-.42ZM273.62,262.16l4.45,4.25-8.73,9.91-1.5-1.32,7.94-9.01-.21,3.26-3.92-4.86,1.97-2.24Z"/>
  </g>
</svg>