<?xml version="1.0" encoding="UTF-8"?>
<svg id="Lag_1" xmlns="http://www.w3.org/2000/svg" version="1.1" viewBox="0 0 355.16 425.48">
  <!-- Generator: Adobe Illustrator 30.0.0, SVG Export Plug-In . SVG Version: 2.1.1 Build 123)  -->
  <defs>
    <style>
      .st0 {
        fill: #e2b76d;
      }

      .st1 {
        fill: #e8cd91;
      }

      .st2 {
        fill: #ab1d17;
      }

      .st3 {
        fill: #fff;
      }

      .st4 {
        fill: #465a49;
      }

      .st5 {
        fill: #2a442e;
      }
    </style>
  </defs>
  <path class="st5" d="M110.05,231.37h-.17l-1.78,3.08s-.02.02-.02.03c.59-.08,1.23.06,1.76.49l2.77,2.22.15-.06.26-1.68c-.48-.18-.92-.5-1.2-1l-1.78-3.08Z"/>
  <path class="st5" d="M184.29,192.01l-.54,3.51c-.27,1.76-2.34,2.56-3.73,1.45l-2.77-2.22-.15.06-.54,3.51c-.27,1.76-2.34,2.56-3.73,1.45l-2.43-1.95c-.07.14-.15.27-.25.4l-2.22,2.77.06.15,3.51.54c1.76.27,2.56,2.34,1.45,3.73l-2.22,2.77.06.15,2.05.31.12-.21c.79-1.37,2.63-1.51,3.65-.45l.04-.27c.27-1.76,2.34-2.56,3.73-1.45l2.77,2.22.15-.06.54-3.51c.27-1.76,2.34-2.56,3.73-1.45l2.77,2.22.15-.06.54-3.51s0,0,0,0c-.19-.16-.36-.35-.5-.58l-1.78-3.08h.08v-.08l-3.08-1.78c-1.44-.83-1.52-2.81-.27-3.79l-1.07-.86-.15.06Z"/>
  <polygon class="st5" points="117.11 232.22 119.25 233.94 117.77 231.37 117.6 231.37 117.11 232.22"/>
  <polygon class="st5" points="196.33 198.46 194.96 200.82 197.55 202.89 197.7 202.83 197.98 201.03 196.49 198.46 196.33 198.46"/>
  <path class="st5" d="M180.06,234.51c-.09-.22-.13-.45-.15-.67l-1.17.68v.17l1.78,1.03-.46-1.2Z"/>
  <polygon class="st5" points="155.49 257.67 155.49 257.68 155.58 257.68 155.58 257.67 155.49 257.67"/>
  <polygon class="st5" points="147.77 257.67 147.77 257.68 147.86 257.68 147.86 257.67 147.77 257.67"/>
  <polygon class="st5" points="163.3 257.68 163.3 257.67 163.21 257.67 163.21 257.68 163.3 257.68"/>
  <polygon class="st5" points="252.14 323.69 252.29 323.63 252.52 322.18 251.6 321.88 251.66 321.82 251.61 321.76 250.12 322.07 252.14 323.69"/>
  <polygon class="st5" points="204.74 200.09 204.89 200.03 204.94 199.72 204.21 198.46 204.05 198.46 203.62 199.2 204.74 200.09"/>
  <path class="st5" d="M225.47,202.3c1.76.27,2.56,2.34,1.45,3.73l-2.22,2.77.06.15,3.51.54c1.76.27,2.56,2.34,1.45,3.73l-2.22,2.77.06.15,3.51.54c1.76.27,2.57,2.34,1.45,3.73l-2.15,2.68.38.3,2.02.31.39-2.51c.27-1.76,2.34-2.56,3.73-1.45l2.77,2.22.15-.06.17-1.09-.56-.09c-1.76-.27-2.57-2.34-1.45-3.73l2.22-2.77-.06-.15-3.51-.54c-1.76-.27-2.56-2.34-1.45-3.73l2.22-2.77-.06-.15-3.51-.54c-1.76-.27-2.57-2.34-1.45-3.73l2.22-2.77-.06-.15-.29-.04-1.08,1.88c-.89,1.54-3.11,1.54-4,0l-1.78-3.08h-.17l-1.78,3.08c-.16.28-.38.49-.61.67l.65.1Z"/>
  <polygon class="st5" points="259.33 320.89 259.49 320.83 259.99 317.58 257.35 316.72 257.22 316.83 257.82 319.68 259.33 320.89"/>
  <polygon class="st5" points="236.03 182.73 236.18 182.67 236.23 182.31 235.81 182.56 236.03 182.73"/>
  <path class="st5" d="M139.07,182.14l1.78,3.08,3.08,1.78c1.06.61,1.37,1.85.97,2.86.1.06.2.13.3.2l2.77,2.22.15-.06.54-3.51c.27-1.76,2.34-2.56,3.73-1.45l2.77,2.22.15-.06.54-3.51c.27-1.76,2.34-2.56,3.73-1.45l2.52,2.02c.07-.15.16-.29.27-.42l2.22-2.77-.06-.15-3.51-.54c-1.76-.27-2.57-2.34-1.45-3.73l2.22-2.77-.06-.15-3.51-.54c-.87-.13-1.51-.71-1.8-1.43-.44.03-.9-.05-1.34-.31l-3.07-1.79-.14.08v3.55c-.02,1.78-1.95,2.88-3.49,1.99l-3.07-1.79-.14.08v3.55c-.02,1.78-1.95,2.88-3.49,1.99l-3.07-1.79-.14.08v1.86c.22.18.44.39.6.67Z"/>
  <path class="st5" d="M94.13,207.81l-2.51-1.45c-.36-.21-.63-.5-.83-.82l-.95,2.92.11.12,3.48-.73c.24-.05.48-.06.71-.04Z"/>
  <polygon class="st5" points="133.13 185.22 133.29 185.22 133.74 184.44 132.13 183.5 133.13 185.22"/>
  <polygon class="st5" points="158.93 168.74 158.57 168.69 158.57 169.42 158.99 168.9 158.93 168.74"/>
  <polygon class="st5" points="140.85 192.94 141.21 193.15 141.31 192.5 140.85 192.77 140.85 192.94"/>
  <path class="st5" d="M172.25,342.59l-.25-2.35-.22-.3-.51.72.19.52c.16.46.17.92.07,1.33l.73.08Z"/>
  <path class="st5" d="M230.22,330.45l-1.52.16,1.85,1.48.15-.06.28-1.8c-.23.11-.49.19-.76.22Z"/>
  <path class="st5" d="M237.9,329.23l.54-3.51c.27-1.76,2.34-2.56,3.73-1.45l2.77,2.22.15-.06.54-3.51c.06-.39.21-.74.43-1.02-.61-.58-.9-1.48-.61-2.39l1.1-3.38-.11-.12-3.48.73c-1.74.37-3.23-1.29-2.67-2.98l1.1-3.38-.11-.12-3.48.73c-1.74.37-3.23-1.29-2.67-2.98l1.1-3.38-.11-.12-3.48.73c-1.74.37-3.23-1.29-2.67-2.98l1.1-3.38-.11-.12-3.48.73c-1.74.37-3.23-1.29-2.67-2.98l1.1-3.38-.11-.12-3.48.73c-1.74.37-3.23-1.29-2.67-2.98l.94-2.87c-.37-.19-.69-.48-.92-.88l-1.78-3.08h-.17l-1.78,3.08c-.89,1.54-3.11,1.54-4,0l-1.78-3.08h-.17l-1.78,3.08c-.89,1.54-3.11,1.54-4,0l-1.17-2.02-.49-.08.05-.06-1.11.43-1,1.73c-.89,1.54-3.11,1.54-4,0l-1.78-3.08h-.17l-1.78,3.08c-.89,1.54-3.11,1.54-4,0l-1.78-3.08h.08v-.08l-3.08-1.78c-1.54-.89-1.54-3.11,0-4l2.61-1.51c-1.25.09-2.36-.86-2.46-2.12l-.15-.09c-1.38-.8-1.51-2.66-.42-3.68l-2.3.88c-1.66.64-3.39-.76-3.11-2.52l.55-3.51-.13-.1-3.32,1.27c-1.58.61-3.21-.62-3.14-2.25l-1.34.78v.17l3.08,1.78c1.54.89,1.54,3.11,0,4l-3.08,1.78v.17l3.08,1.78c1.54.89,1.54,3.11,0,4l-3.08,1.78v.17l3.08,1.78c1.54.89,1.54,3.11,0,4l-3.08,1.78v.17l3.08,1.78c1.54.89,1.54,3.11,0,4l-.78.45c.07.29.08.61.02.94l-.31,1.71,1.07.62c.27.16.48.36.65.59l1.43-.51c1.67-.6,3.37.83,3.06,2.58l-.63,3.5.13.11,3.34-1.2c1.57-.57,3.17.67,3.09,2.27l2.61-.28.07-.15-2.09-2.87c-1.05-1.44-.14-3.47,1.62-3.66l3.53-.37.08.03,2.87-2.09c1.44-1.05,3.47-.14,3.66,1.62l.37,3.53.15.07,2.87-2.09c1.44-1.05,3.47-.14,3.66,1.62l.37,3.53.15.07,2.87-2.09c1.44-1.05,3.47-.14,3.66,1.62l.37,3.53.15.07,2.87-2.09c1.44-1.05,3.47-.14,3.66,1.62l.37,3.53.15.07,2.87-2.09c1.44-1.05,3.47-.14,3.66,1.62l.37,3.53.15.07,2.87-2.09c1.44-1.05,3.47-.14,3.66,1.62l.37,3.53-.08-.03-.03.08,2.09,2.87c1.05,1.44.14,3.47-1.62,3.66l-3.53.37-.07.15,2.09,2.87c.08.1.14.21.19.32.8-.67,2.02-.78,2.94-.04l2.77,2.22.15-.06Z"/>
  <path class="st5" d="M225.98,341.83c.04.19.05.38.04.57l.3-.37-.06-.15-.27-.04Z"/>
  <path class="st1" d="M79.78,167.31c-1.47,1.69-2.79,3.61-3.98,5.68,1.94-.39,3.21-2.84,3.98-5.68Z"/>
  <path class="st0" d="M80.49,176.46c6.32-2.15,7.02-10.28,7.16-13,.02-.48-.03-1.1-.16-1.82-2.93,1.11-5.49,3.12-7.71,5.67-.77,2.84-2.04,5.28-3.98,5.68-.75,1.3-1.44,2.65-2.08,4.03,2.95.03,5.47-.12,6.76-.56Z"/>
  <path class="st0" d="M130.17,195.3c-.12-.14-.23-.27-.33-.37-2.02-1.87-3.97.14-2.81,2.47l.04-.29c.23-1.5,1.78-2.31,3.09-1.81Z"/>
  <path class="st0" d="M127.5,225.32l.25-.31-.06-.15-3.51-.54c-1.3-.2-2.07-1.38-1.95-2.54-6.34.21-19.82-.19-19.82-.19,0,0,.01,1.88,4.61,2.61,3.98.64,15.14,1.68,20.48,1.12Z"/>
  <path class="st0" d="M103.95,205.74c-.47-1.59-.52-4.69.49-6.71.85-1.71,2.74-4.33,4.92-4.63.52-.07.69-.53.33-.94-1.34-1.55-3.86-2.39-5.56-1.71-2.27.91-3.42,2.94-3.87,3.82-.89,1.74.04,9.06,1.15,10.64,1.11,1.58,3.01,1.13,2.54-.46Z"/>
  <path class="st0" d="M139.95,167.5c-2.74,2.23-19.52,11.17-19.52,11.17,0,0,.94,1.62,5.3-.02,4.35-1.64,17.29-7.56,19.89-10.53,1.77-2.02,2.22-4.44,2.06-6.76-2.35-.06-4.67-.11-6.95-.16.63,2.64.66,5.14-.77,6.3Z"/>
  <path class="st0" d="M111.92,165.81c1.75.82,3.17-.51,1.98-1.66-.75-.72-1.64-2.03-2.24-3.46-1.52-.02-2.98-.03-4.37-.04,1.47,2.24,3.56,4.66,4.64,5.17Z"/>
  <path class="st0" d="M77.26,210.94c2.66,3.24,6.69,9.61,4.48,12.36-2.22,2.75-16.74,15.02-16.74,15.02,0,0,1.26,1.39,5.17-1.13,3.91-2.52,15.31-11.02,17.23-14.47,3.13-5.61-1.64-11.94-3.3-14-2.28-2.82-13.67-8.51-16.49-8.55-.31,0-.58.03-.82.09-.23,1.31-.4,2.38-.5,3.11.28.23.62.43,1.04.57,2.58.9,7.28,3.76,9.93,7Z"/>
  <path class="st0" d="M173.32,233.54l-1.34-1.07-.15.06-.54,3.51c-.27,1.75-2.32,2.55-3.71,1.47-.42,4.22-1.76,9.89-4.79,10.38-2.8.46-15.56.18-20.51.05-.27.53-.72.91-1.24,1.11.62.53,1.76,1.11,3.87,1.45,3.97.64,15.07,1.68,20.43,1.12.04-1.32,1.23-2.44,2.67-2.21l2.01.32c.41-.35.79-.73,1.12-1.14l-.8-2.07c-.64-1.66.76-3.39,2.52-3.11l.7.11c.52-2,.66-3.86.72-4.91.06-1.1-.34-2.96-.97-5.07Z"/>
  <path class="st0" d="M223.99,176.48c-.18,4.18-1.43,11.62-4.92,12.19-2.02.33-9.28.28-15.01.17-.64.31-1.42.33-2.1-.04-1.44-.03-2.7-.06-3.63-.09l-.18,1.2c-.02.14-.06.27-.1.4.68.37,1.68.72,3.15.96,2.38.38,7.35.91,12.1,1.15.79-.78,2.1-.94,3.07-.16l.35.28c3.03.05,5.65-.08,6.96-.53,1.06-.37,1.95-.92,2.71-1.58-.25-.71-.16-1.53.38-2.2l2.22-2.77.54-3.51c.1-.67.47-1.21.97-1.55.03-.39.06-.74.07-1.02.15-2.89-2.79-10.97-5.03-15.12-1.49-.08-2.99-.16-4.52-.24.07.2.15.4.26.61,1.32,2.39,2.9,7.66,2.72,11.84Z"/>
  <path class="st0" d="M95.77,287.07l1.28-1.59c-.48.13-.98.42-1.44.9-1.87,1.99-6.41,5.1-10.45,6.2-4.04,1.1-11.51,2.17-13.11-.98-1.6-3.15-6.85-21.42-6.85-21.42,0,0-1.78.59-1.09,5.18.7,4.6,3.79,18.48,6.15,21.65,3.84,5.16,11.56,3.39,14.12,2.72,2.69-.71,9.1-5.61,12.49-9.01-1.51-.47-2.14-2.36-1.1-3.65Z"/>
  <path class="st0" d="M80.77,266.82c1.38-.93,4.31-1.92,6.55-1.57.07.01.15.03.22.04l2.06-2.57-.06-.15-3.51-.54c-.5-.08-.92-.3-1.24-.61-2.27.97-4.58,2.29-5.22,3.13-1.17,1.54-.16,3.21,1.21,2.28Z"/>
  <path class="st0" d="M159.84,267.4c-2.07-1.91-4.06.23-2.73,2.62,1.32,2.39,2.9,7.66,2.72,11.84-.02.4-.05.83-.08,1.29,1.07.31,1.85,1.39,1.63,2.63l-.63,3.5.13.11,3.34-1.2c.63-.23,1.26-.17,1.79.09.27-1.43.36-2.7.4-3.49.19-3.63-4.49-15.47-6.56-17.38Z"/>
  <path class="st0" d="M138.98,296.94c.4-.93,1.4-1.58,2.53-1.38l3.5.63.11-.13-.64-1.78c-5.93-.05-12.06-.24-12.06-.24,0,0,.01,1.88,4.61,2.61.53.09,1.2.18,1.96.27Z"/>
  <path class="st0" d="M221.95,277.5c5.59-1.92,6.61-8.74,6.84-11.88l-.13-.02c-1.76-.27-2.57-2.34-1.45-3.73l.92-1.15c-.05-.18-.1-.35-.15-.54-.42.87-1.36,1.46-2.44,1.28l-3.26-.51c0,.33,0,.66,0,.98l.93,2.43c.53,1.37-.33,2.78-1.64,3.08-.71,3.28-2.02,6.36-4.22,6.71-.82.13-2.52.21-4.61.24l.76,1.98c.22.57.19,1.14,0,1.64,3.65.12,6.93.03,8.45-.5Z"/>
  <path class="st0" d="M142.19,338.04l.63-3.5-.13-.11-2.31.83c-4.01,3.4-8.95,8.86-9.6,10.85-.91,2.77,1.94,3.76,3.63,1.49,1.54-2.08,5.27-5.37,8.97-7.13-.83-.45-1.37-1.39-1.18-2.44Z"/>
  <path class="st0" d="M166.07,349.35c-.5.59-1.3.94-2.17.78l-1.06-.19c1.05,2.42,2.08,4.83,2.91,6.79.53-.02,1.06-.04,1.6-.06.31-.01.61-.02.92-.02-.07-.37-.15-.76-.27-1.2-.37-1.39-1.06-3.59-1.92-6.09Z"/>
  <path class="st0" d="M245.65,228.51l.08-.03-3.51-.54c-.55-.08-1-.34-1.33-.7-1.44,1.11-3,2.46-4.43,3.81l.22.03c1.76.27,2.56,2.34,1.45,3.73l-1.65,2.06c2.14-1.9,5.31-4.04,8.27-5.04,1.06-.36,2.38-.73,3.76-1.03-.03-.02-.06-.04-.09-.06l-2.77-2.22Z"/>
  <path class="st0" d="M255.62,227.93l-2.77-2.22-.15.06-.54,3.51c-.06.39-.21.73-.42,1.02,2.73-.24,5.22.09,6.17,1.69,1.14,1.92,4.09,9.79,6.12,15.32.47-1,.98-2,1.53-2.97.1-.18.2-.36.3-.54-1.61-5.93-4.49-14.93-6.5-17.31-.27,1.76-2.34,2.56-3.73,1.45Z"/>
  <path class="st0" d="M244.29,259.23c-1.9-.18-5.03-.99-6.1-2.9-.26-.46-.74-.45-1,.03-.96,1.81-.83,4.47.42,5.8,1.67,1.78,3.99,2.12,4.96,2.22.2.02.45,0,.73-.06l-.2-.97c-.37-1.74,1.29-3.23,2.98-2.67l3.13,1.02c.11-.07.22-.14.33-.21l-.67-3.2c-1.39.61-3.11,1.06-4.58.93Z"/>
  <path class="st0" d="M185.21,254.89c.35-1.97,1.56-5.24,3.28-8.07l-1.94-.3c-1.76-.27-2.57-2.34-1.45-3.73l2.22-2.77-.06-.15-1.31-.2c-2.27,4.45-4.85,13.23-4.51,15.55.41,2.78,3.3,2.37,3.77-.32Z"/>
  <path class="st0" d="M218.94,248.58c-.61.1-1.26-.04-1.8-.48l-2.77-2.22-.15.06-.17,1.14c3.07,2.57,5.49,4.65,5.49,4.65,0,0,.76-.96-.58-3.15Z"/>
  <path class="st0" d="M199.41,273.85c2.34.72,4.51-.14,5.41-.54,1.79-.79,5.67-7.07,5.8-9,.13-1.93-1.63-2.77-2.27-1.24-.64,1.53-2.55,3.97-4.61,4.91-1.74.79-4.86,1.64-6.74.51-.45-.27-.87-.02-.85.52.07,2.05,1.5,4.29,3.24,4.82Z"/>
  <path class="st0" d="M175.75,322.14c-.12-1.11.59-2.22,1.76-2.49.21-.36.38-.68.49-.97,2.33-5.99-3.27-11.6-5.2-13.41-2.65-2.48-14.72-6.55-17.51-6.2-2.79.35-2.44,3.25.24,3.78,2.68.53,7.72,2.72,10.8,5.56,3.08,2.84,7.95,8.59,6.14,11.63-1.81,3.03-14.51,17.18-14.51,17.18,0,0,1.44,1.2,4.97-1.83,2.7-2.32,9.26-8.72,12.83-13.25Z"/>
  <path class="st0" d="M146.84,325.82c-1.52-.67-3.92-2.64-4.81-4.71-.75-1.75-1.54-4.89-.37-6.74.28-.45.04-.87-.51-.86-2.05.02-4.32,1.41-4.89,3.14-.77,2.32.04,4.52.42,5.42.75,1.81,6.95,5.82,8.87,5.99,1.92.17,2.81-1.57,1.29-2.24Z"/>
  <path class="st0" d="M218.74,318.35c-3.9-2.54-16.33-9.46-20.26-9.8-6.4-.56-10.22,6.38-11.42,8.74-1.64,3.24-2.17,15.96-1.06,18.54,1.12,2.58,3.8,1.44,3.56-1.28s.45-8.18,2.32-11.92c1.87-3.75,6.03-10.04,9.45-9.14,3.42.89,20.55,9.13,20.55,9.13,0,0,.75-1.72-3.15-4.26Z"/>
  <path class="st0" d="M214.05,336.46c-.22,1.65-1.43,4.5-3.18,5.94-1.47,1.21-4.27,2.85-6.37,2.24-.51-.15-.84.21-.68.73.6,1.97,2.56,3.75,4.38,3.82,2.44.09,4.32-1.3,5.09-1.92,1.53-1.23,3.64-8.3,3.27-10.19-.37-1.9-2.29-2.26-2.51-.61Z"/>
  <path class="st0" d="M245.47,193.8c1.75-2.1,6.08-5.48,10.05-6.83,3.96-1.35,11.35-2.88,13.15.16,1.8,3.04,8.16,20.96,8.16,20.96,0,0,1.74-.69.77-5.24-.98-4.55-4.92-18.21-7.47-21.23-4.15-4.91-11.75-2.67-14.26-1.84-3.45,1.14-12.79,9.8-13.81,12.42-1.03,2.62,1.69,3.7,3.43,1.6Z"/>
  <path class="st0" d="M262.84,214.61c1.07-1.61-.04-3.21-1.35-2.2-1.32,1.01-4.19,2.18-6.44,1.98-1.9-.18-5.03-.99-6.1-2.9-.26-.46-.74-.45-1,.03-.96,1.81-.83,4.47.42,5.8,1.67,1.78,3.99,2.12,4.97,2.22,1.95.2,8.43-3.32,9.5-4.93Z"/>
  <path class="st0" d="M169.87,162.84c.22-.26.48-.54.77-.84-1.46-.05-2.92-.09-4.38-.13-.39,2.15,2.01,2.9,3.61.97Z"/>
  <path class="st0" d="M201.22,177.13s1.74-.69.77-5.24c-.4-1.87-1.31-5.28-2.41-8.85-1.21-.05-2.42-.1-3.63-.15,2.42,6.22,5.27,14.24,5.27,14.24Z"/>
  <path class="st0" d="M177.74,188.58c1.95.2,8.43-3.32,9.5-4.93,1.07-1.61-.04-3.21-1.35-2.2-1.32,1.01-4.19,2.18-6.44,1.98-1.9-.18-5.03-.99-6.1-2.9-.26-.46-.74-.45-1,.03-.96,1.81-.83,4.47.42,5.8,1.67,1.78,3.99,2.12,4.96,2.22Z"/>
  <path class="st0" d="M146.2,197.75c-3.45,1.14-12.79,9.8-13.81,12.42-1.03,2.62,1.69,3.7,3.43,1.6,1.75-2.1,6.08-5.48,10.05-6.83,3.96-1.35,11.35-2.88,13.15.16,1.8,3.04,8.16,20.96,8.16,20.96,0,0,1.74-.69.77-5.24-.98-4.55-4.92-18.21-7.47-21.23-4.15-4.91-11.75-2.67-14.26-1.84Z"/>
  <path class="st0" d="M143.7,237.49c1.95.2,8.43-3.32,9.5-4.93,1.07-1.61-.04-3.21-1.35-2.2-1.32,1.01-4.19,2.18-6.44,1.98-1.9-.18-5.03-.99-6.1-2.9-.26-.46-.74-.45-1,.03-.96,1.81-.83,4.47.42,5.8,1.67,1.78,3.99,2.12,4.97,2.22Z"/>
  <path class="st0" d="M256.05,308.25c1.14-.73,2.91-1.98,4.91-3.45-.17-1.23-.34-2.46-.5-3.68-4.58,4.04-9.58,8.26-9.58,8.26,0,0,1.26,1.39,5.17-1.13Z"/>
  <path class="st0" d="M253.21,275c1.37.48,3.34,1.51,5.28,2.86-.03-1.69-.01-3.37.04-5.02-2.19-.96-4.09-1.6-5.03-1.61-2.81-.04-2.87,2.88-.29,3.78Z"/>
  <path class="st0" d="M239.86,298.59c1.88.44,3-1.16,1.58-2.04-1.41-.88-3.52-3.15-4.12-5.33-.5-1.84-.85-5.06.57-6.73.34-.4.16-.85-.38-.92-2.04-.26-4.47.8-5.28,2.43-1.08,2.19-.58,4.48-.33,5.43.5,1.9,6.08,6.72,7.96,7.16Z"/>
  <path class="st0" d="M114.67,344.93s1.74-.69.77-5.24c-.98-4.55-4.92-18.21-7.47-21.23-4.15-4.91-11.75-2.67-14.26-1.84-3.45,1.14-12.79,9.8-13.81,12.42-1.03,2.62,1.69,3.7,3.43,1.6,1.75-2.1,6.08-5.48,10.05-6.83,3.96-1.34,11.35-2.88,13.15.16,1.8,3.04,8.16,20.96,8.16,20.96Z"/>
  <path class="st0" d="M99.34,349.25c-1.32,1.01-4.19,2.18-6.44,1.98-1.9-.18-5.03-.99-6.1-2.9-.26-.46-.74-.45-1,.03-.96,1.81-.83,4.47.42,5.8,1.67,1.78,3.99,2.12,4.97,2.22,1.95.2,8.43-3.32,9.5-4.93,1.07-1.61-.04-3.21-1.35-2.2Z"/>
  <path class="st0" d="M123.66,250c1.8,3.04,8.16,20.96,8.16,20.96,0,0,1.74-.69.77-5.24-.98-4.55-4.92-18.21-7.47-21.23-4.15-4.91-11.75-2.67-14.26-1.84-3.45,1.14-12.79,9.8-13.81,12.42-1.03,2.62,1.69,3.7,3.43,1.6,1.75-2.1,6.08-5.48,10.05-6.83,3.96-1.35,11.35-2.88,13.15.16Z"/>
  <path class="st0" d="M116.5,275.27c-1.32,1.01-4.19,2.18-6.44,1.98-1.9-.18-5.03-.99-6.1-2.9-.26-.46-.74-.45-1,.03-.96,1.81-.83,4.47.42,5.8,1.67,1.78,3.99,2.12,4.96,2.22,1.95.2,8.43-3.32,9.5-4.93,1.07-1.61-.04-3.21-1.35-2.2Z"/>
  <path class="st0" d="M189.16,217.97c-1.03,2.62,1.69,3.7,3.43,1.6,1.75-2.1,6.08-5.48,10.05-6.83,3.96-1.35,11.35-2.88,13.15.16,1.8,3.04,8.16,20.96,8.16,20.96,0,0,1.74-.69.77-5.24-.98-4.55-4.92-18.21-7.47-21.23-4.15-4.91-11.75-2.67-14.26-1.84-3.45,1.14-12.79,9.8-13.81,12.42Z"/>
  <path class="st0" d="M208.62,238.18c-1.32,1.01-4.19,2.18-6.44,1.98-1.9-.18-5.03-.99-6.1-2.9-.26-.46-.74-.45-1,.03-.96,1.81-.83,4.47.42,5.8,1.67,1.78,3.99,2.12,4.96,2.22,1.95.2,8.43-3.32,9.5-4.93,1.07-1.61-.04-3.21-1.35-2.2Z"/>
  <path class="st1" d="M250.04,336.34c-3.96,1.34-8.3,4.73-10.05,6.83-1.75,2.1-4.46,1.02-3.43-1.6,1.03-2.62,10.37-11.27,13.81-12.42,2.51-.83,10.11-3.07,14.26,1.84.05.06.11.14.16.21-1.23-9.07-2.66-17.91-3.85-26.41-1.99,1.48-3.77,2.72-4.91,3.45-3.91,2.52-5.17,1.13-5.17,1.13,0,0,5-4.22,9.58-8.26-1.07-8.09-1.85-15.87-1.96-23.25-1.94-1.35-3.91-2.38-5.28-2.86-2.58-.9-2.53-3.82.29-3.78.94.01,2.83.66,5.03,1.61.28-9.25,1.84-17.81,5.49-25.54-2.02-5.53-4.98-13.39-6.12-15.32-.94-1.6-3.44-1.93-6.17-1.69.21-.29.36-.63.42-1.02l.54-3.51.15-.06,2.77,2.22c1.39,1.11,3.46.31,3.73-1.45,2.01,2.38,4.89,11.38,6.5,17.31,1.48-2.67,2.9-5.52,4.23-8.49l-.41-.06-.06-.15,1.25-1.56c.47-1.09.93-2.21,1.38-3.33-.24-.8-.91-1.47-1.86-1.61l-3.51-.54-.06-.15,2.22-2.77c1.11-1.39.31-3.46-1.45-3.73l-.67-.1.17-1.12.15-.06,2.77,2.22c1.39,1.11,3.46.31,3.73-1.45l.54-3.51.15-.06,1.77,1.42c3.71-12.62,5.36-25.53,3.29-35.25l-1.85-.28-.06-.15,1.38-1.72c-.52-1.81-1.19-3.48-2.02-5l-2.1-.32-.06-.16,1.05-1.31c-2.37-3.39-5.74-5.74-10.3-6.67,0,.03-.02.06-.02.09l-.54,3.51-.15.06-2.77-2.22c-1.39-1.11-3.46-.31-3.73,1.45l-.54,3.51-.15.06-2.77-2.22c-1.39-1.11-3.46-.31-3.73,1.45l-.54,3.51-.15.06-2.77-2.22c-1.39-1.11-3.46-.31-3.73,1.45l-.54,3.51-.15.06-2.77-2.22c-.68-.54-1.52-.63-2.23-.37-.05-.03-.08-.07-.13-.1l-3.08-1.78v-.17l3.08-1.78c1.54-.89,1.54-3.11,0-4l-3.08-1.78v-.17l3.08-1.78c.32-.18.56-.44.74-.71-4.16-.28-8.61-.56-13.3-.82,2.25,4.14,5.18,12.23,5.03,15.12-.01.28-.04.63-.07,1.02-.49.34-.86.87-.97,1.55l-.54,3.51-2.22,2.77c-.54.67-.62,1.49-.38,2.2-.76.66-1.65,1.21-2.71,1.58-1.32.45-3.93.58-6.96.53l-.35-.28c-.97-.78-2.28-.61-3.07.16-4.75-.24-9.72-.77-12.1-1.15-1.47-.24-2.47-.59-3.15-.96.04-.13.08-.26.1-.4l.18-1.2c.94.02,2.2.06,3.63.09.68.37,1.46.35,2.1.04,5.73.1,12.98.16,15.01-.17,3.49-.57,4.74-8.01,4.92-12.19.18-4.18-1.39-9.45-2.72-11.84-.11-.21-.19-.41-.26-.61-6.81-.36-14.02-.69-21.43-.99,1.1,3.58,2,6.98,2.41,8.85.98,4.55-.77,5.24-.77,5.24,0,0-2.85-8.02-5.27-14.24-8.34-.33-16.88-.63-25.31-.89-.29.3-.55.58-.77.84-1.6,1.92-4,1.18-3.61-.97-6.33-.19-12.57-.36-18.6-.51.16,2.32-.28,4.74-2.06,6.76-2.6,2.96-15.54,8.89-19.89,10.53-4.35,1.64-5.3.02-5.3.02,0,0,16.78-8.94,19.52-11.17,1.44-1.16,1.4-3.66.77-6.3-10.91-.25-20.88-.42-29.07-.51.6,1.43,1.5,2.74,2.24,3.46,1.2,1.15-.23,2.49-1.98,1.66-1.07-.51-3.16-2.92-4.64-5.17-3.71-.03-6.94-.04-9.6-.03v.02c-.91,1.54.19,3.47,1.97,3.47h3.55s.08.16.08.16l-1.79,3.07c-.9,1.54.21,3.47,1.99,3.47h3.55s.08.16.08.16l-1.79,3.07c-.9,1.54.21,3.47,1.99,3.47h3.55s.08.16.08.16l-1.79,3.07c-.82,1.41.04,3.15,1.57,3.43l-.61,1.05h-.17l-1.78-3.08c-.89-1.54-3.11-1.54-4,0l-1.78,3.08h-.17l-1.78-3.08c-.89-1.54-3.11-1.54-4,0l-1.78,3.08v-.08l-3.08,1.78c-1.54.89-1.54,3.11,0,4l3.08,1.78v.17l-3.08,1.78c-1.54.89-1.54,3.11,0,4l3.08,1.78v.17l-3.08,1.78c-.38.22-.67.53-.86.87-.47-.82-1.43-1.35-2.49-1.13l-3.48.73-.11-.12,1.1-3.38c.55-1.69-.93-3.35-2.67-2.98l-3.48.73-.11-.12,1.1-3.38c.55-1.69-.93-3.35-2.67-2.98l-3.48.73-.11-.12,1.1-3.38c.31-.94-.02-1.88-.67-2.45l1.33-2.29h.17l1.85,3.17c.93,1.59,3.24,1.59,4.16,0l1.85-3.17h.17l1.85,3.17c.93,1.59,3.24,1.59,4.16,0l1.85-3.17h.09l3.2-1.83c1.6-.92,1.6-3.21,0-4.12l-3.2-1.83v-.17l3.2-1.83c1.6-.92,1.6-3.21,0-4.12l-3.2-1.83v-.17l3.2-1.83c1.6-.92,1.6-3.21,0-4.12l-1.07-.61c-.73,0-1.39.02-1.96.04-1.76.04-3.41.39-4.95.98.13.72.18,1.34.16,1.82-.14,2.72-.84,10.85-7.16,13-1.3.44-3.81.59-6.76.56-3.89,8.37-5.98,17.89-6.93,23.25.24-.06.51-.1.82-.09,2.81.04,14.2,5.73,16.49,8.55,1.66,2.06,6.44,8.38,3.3,14-1.92,3.44-13.32,11.95-17.23,14.47-3.91,2.52-5.17,1.13-5.17,1.13,0,0,14.53-12.27,16.74-15.02,2.22-2.75-1.82-9.12-4.48-12.36-2.66-3.24-7.35-6.1-9.93-7-.42-.14-.76-.35-1.04-.57-.11.73-.15,1.13-.15,1.13-5.26,14.98-8.25,28.64-9.67,41.23.2.01.42,0,.63-.05l3.48-.73.11.12-1.1,3.38c-.55,1.69.93,3.35,2.67,2.98l3.48-.73.06.06-.06.06,3.38,1.1c1.69.55,3.35-.93,2.98-2.67l-.73-3.48.12-.11,3.38,1.1c1.69.55,3.35-.93,2.98-2.67l-.73-3.48.12-.11,3.38,1.1c1.69.55,3.35-.93,2.98-2.67l-.73-3.48.12-.11,3.38,1.1c1.69.55,3.35-.93,2.98-2.67l-.73-3.48.12-.11,3.38,1.1c.76.25,1.5.09,2.07-.32l.53.31v.08h-.08l1.78,3.08c.89,1.54,3.11,1.54,4,0l1.78-3.08h.17l1.78,3.08c.51.88,1.44,1.24,2.32,1.12-.15.25-.26.53-.31.85l-.54,3.51-.15.06-2.77-2.22c-1.39-1.11-3.46-.31-3.73,1.45l-.54,3.51-.15.06-2.77-2.22c-1.39-1.11-3.46-.31-3.73,1.45l-.54,3.51-.15.06-2.77-2.22c-1.39-1.11-3.46-.31-3.73,1.45l-.54,3.51-2.22,2.77c-1.11,1.39-.31,3.46,1.45,3.73l.13.02-.33,1.53-.16.05-2.63-2.39c-1.32-1.2-3.43-.52-3.81,1.22l-.76,3.47-.16.05-2.63-2.39c-1.32-1.2-3.43-.52-3.81,1.22l-.76,3.47-.16.05-2.63-2.39c-1.32-1.2-3.43-.52-3.81,1.22l-.76,3.47-.16.05-2.63-2.39c-.8-.73-1.89-.76-2.71-.29-.09,4.14-.01,8.17.19,12.09l.15.03.05.16-.18.19c.12,2.22.28,4.41.48,6.57l2,.43.05.16-1.79,1.97c.16,1.5.33,2.98.52,4.44.03,0,.06.02.1.03l3.47.75.05.16-2.39,2.63c-.31.34-.49.74-.56,1.14.08.49.15.99.23,1.48.3.57.83,1.03,1.55,1.19l3.47.76.05.16-2.39,2.63c-1.2,1.32-.52,3.43,1.22,3.81l3.47.75.05.16-2.39,2.63c-1.2,1.32-.52,3.43,1.22,3.81l3.47.75.03.08,2.63,2.39c1.32,1.2,3.43.52,3.81-1.22l.76-3.47.16-.05,2.63,2.39c1.32,1.2,3.43.52,3.81-1.22l.76-3.47.16-.05,2.63,2.39c1.32,1.2,3.43.52,3.81-1.22l.76-3.47.16-.05,2.63,2.39c1.32,1.2,3.43.52,3.81-1.22l.76-3.47.16-.05,2.63,2.39c1.32,1.2,3.43.52,3.81-1.22l.76-3.47.16-.05,2.63,2.39c1.32,1.2,3.43.52,3.81-1.22l.76-3.47,2.39-2.63c.8-.88.76-2.11.13-2.94.14-.24.24-.51.28-.81l.54-3.51.15-.06,2.77,2.22c1.39,1.11,3.46.31,3.73-1.45v-.05s.05.04.07.05l3.08,1.78v.17l-3.08,1.78c-1.54.89-1.54,3.11,0,4l3.08,1.78v.17l-3.08,1.78c-1.54.89-1.54,3.11,0,4l3.08,1.78v.08h-.08l1.78,3.08c.89,1.54,3.11,1.54,4,0l1.78-3.08h.17l1.78,3.08c.26.44.63.74,1.04.93h0s-.11.14-.11.14l-3.5-.63c-1.75-.31-3.19,1.38-2.58,3.06l1.2,3.34-.11.13-3.5-.63c-1.75-.31-3.19,1.38-2.58,3.06l1.2,3.34-.06-.05-.63,3.5c-.31,1.75,1.38,3.19,3.06,2.58l3.34-1.2.13.11-.63,3.5c-.2,1.12.42,2.11,1.34,2.52l-.26,2.67-.16.07-2.98-2.17c-1.49-1.09-3.58-.15-3.76,1.69l-.2,2.07-3.29-.51-.06-.15,2.22-2.77c1.11-1.39.31-3.46-1.45-3.73l-3.51-.54-.06-.15,2.22-2.77c1.11-1.39.31-3.46-1.45-3.73l-3.51-.54-.06-.15,2.22-2.77c1.11-1.39.31-3.46-1.45-3.73l-3.51-.54-.06-.16,2.22-2.77c1.11-1.39.31-3.46-1.45-3.73l-3.51-.54-.03-.08-2.77-2.22c-1.39-1.11-3.46-.31-3.73,1.45l-.54,3.51-.15.06-2.77-2.22c-1.39-1.11-3.46-.31-3.73,1.45l-.54,3.51-.15.06-2.77-2.22c-1.39-1.11-3.46-.31-3.73,1.45l-.54,3.51-.15.06-2.77-2.22c-1.39-1.11-3.46-.31-3.73,1.45l-.54,3.51-.15.06-2.77-2.22c-1.39-1.11-3.46-.31-3.73,1.45l-.54,3.51-.15.06-2.77-2.22c-1.39-1.11-3.46-.31-3.73,1.45l-.54,3.51-2.21,2.76c.28,1.2.56,2.38.83,3.56.19.08.39.15.61.18l3.51.54.06.15-2.22,2.77c-1.11,1.39-.31,3.46,1.45,3.73l3.51.54.06.15-2.22,2.77c-1.11,1.39-.31,3.46,1.45,3.73l3.51.54.06.15-2.22,2.77c-1.11,1.39-.31,3.46,1.45,3.73l3.51.54.06.15-2.22,2.77c-.19.24-.32.5-.41.77,1.53,1.43,3.27,2.58,5.24,3.48l.13.02.02.05c4.41,1.99,9.93,2.78,16.75,2.87l.19-1.23.15-.06,1.62,1.3c1.53,0,3.12-.05,4.77-.11.05-.13.09-.27.11-.42l.54-3.51.15-.06,2.77,2.22c1.39,1.11,3.46.31,3.73-1.45l.54-3.51.15-.06,2.77,2.22c1.39,1.11,3.46.31,3.73-1.45l.2-1.29c.25.13.53.22.84.25l3.65.39.07.16-2.13,2.98c-.53.75-.56,1.64-.24,2.38,12.25-1.02,26.97-2.4,44.58-3.06-.82-1.95-1.85-4.37-2.91-6.79l1.06.19c.87.16,1.67-.19,2.17-.78.86,2.5,1.55,4.71,1.92,6.09.12.44.2.83.27,1.2,2.95-.09,5.84-.11,8.67-.06l1.93-2.7c1.07-1.49.12-3.6-1.7-3.8l-3.65-.39-.07-.16,2.13-2.98c.26-.36.39-.75.43-1.14,0,0,.02-.01.03-.02l2.87-2.09.15.07.37,3.53c.19,1.77,2.22,2.67,3.66,1.62l2.87-2.09.15.07.37,3.53c.19,1.77,2.22,2.67,3.66,1.62l2.87-2.09.15.07.37,3.53c.19,1.77,2.22,2.67,3.66,1.62l2.87-2.09.15.07.38,3.53c.19,1.77,2.22,2.67,3.66,1.62l2.87-2.09.15.07.37,3.53s0,.04.01.06c1.58.27,3.14.54,4.66.83l1.86-1.35-.03.08,3.53-.37c1.77-.19,2.67-2.22,1.62-3.66l-2.09-2.87.07-.15,3.53-.37c1.77-.19,2.67-2.22,1.62-3.66l-2.09-2.87.07-.15,3.53-.37c.14-.01.27-.04.39-.08l-.25.32c-1.11,1.39-.31,3.46,1.45,3.73l3.51.54.06.15-2.22,2.77c-1.11,1.39-.31,3.46,1.45,3.73l3.51.54.06.15-2.22,2.77c-1.11,1.39-.31,3.46,1.45,3.73l3.51.54.06.15-1.1,1.37c3.56.84,6.84,1.61,9.85,2.22-.19-.16-.38-.33-.56-.52-1.25-1.33-1.38-3.98-.42-5.8.26-.48.74-.5,1-.03,1.07,1.91,4.2,2.72,6.1,2.9,2.25.21,5.12-.96,6.44-1.98,1.32-1.01,2.42.59,1.35,2.2-.78,1.17-4.45,3.36-7.13,4.38,12.3,1.53,18.03-1.95,16.56-19.43-.14-1.69-.3-3.38-.47-5.06-1.3-3.35-2.5-6.29-3.14-7.37-1.8-3.04-9.18-1.51-13.15-.16ZM136.68,322.07c-.38-.91-1.19-3.1-.42-5.42.57-1.73,2.84-3.12,4.89-3.14.54,0,.79.41.51.86-1.17,1.85-.39,4.99.37,6.74.89,2.07,3.29,4.04,4.81,4.71,1.52.67.64,2.41-1.29,2.24-1.92-.17-8.12-4.18-8.87-5.99ZM185.51,192.8c-1.25.98-1.17,2.96.27,3.79l3.08,1.78v.08h-.08l1.78,3.08c.14.23.31.42.5.58,0,0,0,0,0,0l-.54,3.51-.15.06-2.77-2.22c-1.39-1.11-3.46-.31-3.73,1.45l-.54,3.51-.15.06-2.77-2.22c-1.39-1.11-3.46-.31-3.73,1.45l-.04.27c-1.02-1.06-2.86-.92-3.65.45l-.12.21-2.05-.31-.06-.15,2.22-2.77c1.11-1.39.31-3.46-1.45-3.73l-3.51-.54-.06-.15,2.22-2.77c.1-.13.18-.26.25-.4l2.43,1.95c1.39,1.11,3.46.31,3.73-1.45l.54-3.51.15-.06,2.77,2.22c1.39,1.11,3.46.31,3.73-1.45l.54-3.51.15-.06,1.07.86ZM217.24,207.4c2.55,3.01,6.49,16.68,7.47,21.23.98,4.55-.77,5.24-.77,5.24,0,0-6.36-17.92-8.16-20.96-1.8-3.04-9.18-1.51-13.15-.16-3.96,1.34-8.3,4.73-10.05,6.83-1.75,2.1-4.46,1.02-3.43-1.6,1.03-2.62,10.37-11.27,13.81-12.42,2.51-.83,10.11-3.07,14.26,1.84ZM129.84,194.93c.1.1.22.22.33.37-1.31-.5-2.86.31-3.09,1.81l-.04.29c-1.16-2.33.78-4.34,2.81-2.47ZM138.31,229.47c.26-.48.74-.5,1-.03,1.07,1.91,4.2,2.72,6.1,2.9,2.25.21,5.12-.96,6.44-1.98,1.32-1.01,2.42.59,1.35,2.2-1.07,1.61-7.55,5.13-9.5,4.93-.98-.1-3.29-.44-4.97-2.22-1.25-1.33-1.38-3.98-.42-5.8ZM147.77,257.68h0s.09,0,.09,0h0s-.09,0-.09,0ZM155.49,257.68h0s.09,0,.09,0h0s-.09,0-.09,0ZM172.87,243.4c-1.76-.28-3.16,1.45-2.52,3.11l.8,2.07c-.33.41-.71.79-1.12,1.14l-2.01-.32c-1.44-.23-2.63.89-2.67,2.21-5.36.55-16.47-.49-20.43-1.12-2.12-.34-3.25-.92-3.87-1.45.53-.2.98-.58,1.24-1.11,4.95.13,17.71.4,20.51-.05,3.03-.49,4.37-6.16,4.79-10.38,1.39,1.09,3.44.28,3.71-1.47l.54-3.51.15-.06,1.34,1.07c.63,2.11,1.03,3.97.97,5.07-.05,1.04-.2,2.91-.72,4.91l-.7-.11ZM163.3,257.67h0s-.09,0-.09,0h0s.09,0,.09,0ZM178.74,234.51l1.17-.68c.02.22.06.45.15.67l.46,1.2-1.78-1.03v-.17ZM197.02,268.5c1.88,1.13,5,.28,6.74-.51,2.06-.94,3.97-3.38,4.61-4.91.64-1.53,2.4-.69,2.27,1.24-.13,1.93-4.01,8.2-5.8,9-.9.4-3.08,1.25-5.41.54-1.74-.54-3.18-2.77-3.24-4.82-.02-.54.4-.8.85-.52ZM200.47,245.31c-.98-.1-3.29-.44-4.96-2.22-1.25-1.33-1.38-3.98-.42-5.8.26-.48.74-.5,1-.03,1.07,1.91,4.2,2.72,6.1,2.9,2.25.21,5.12-.96,6.44-1.98,1.32-1.01,2.42.59,1.35,2.2-1.07,1.61-7.55,5.13-9.5,4.93ZM219.52,251.73s-2.42-2.08-5.49-4.65l.17-1.14.15-.06,2.77,2.22c.55.44,1.2.57,1.8.48,1.34,2.19.58,3.15.58,3.15ZM248.87,258.3l.67,3.2c-.11.07-.22.14-.33.21l-3.13-1.02c-1.69-.55-3.35.93-2.98,2.67l.2.97c-.28.05-.53.08-.73.06-.98-.1-3.29-.44-4.96-2.22-1.25-1.33-1.38-3.98-.42-5.8.26-.48.74-.5,1-.03,1.07,1.91,4.2,2.72,6.1,2.9,1.47.14,3.19-.32,4.58-.93ZM197.7,202.83l-.15.06-2.58-2.07,1.37-2.36h.17l1.48,2.57-.28,1.81ZM167.94,220.81c.98,4.55-.77,5.24-.77,5.24,0,0-6.36-17.92-8.16-20.96-1.8-3.04-9.18-1.51-13.15-.16-3.96,1.34-8.3,4.73-10.05,6.83-1.75,2.1-4.46,1.02-3.43-1.6,1.03-2.62,10.37-11.27,13.81-12.42,2.51-.83,10.11-3.07,14.26,1.84,2.55,3.01,6.49,16.68,7.47,21.23ZM141.21,193.15l-.37-.21v-.17l.47-.27-.1.65ZM133.29,185.22h-.17l-.99-1.72,1.61.94-.45.78ZM164.21,288.17l-3.34,1.2-.13-.11.63-3.5c.22-1.24-.56-2.31-1.63-2.63.04-.45.07-.89.08-1.29.18-4.18-1.39-9.45-2.72-11.84-1.32-2.39.67-4.53,2.73-2.62,2.07,1.91,6.74,13.75,6.56,17.38-.04.79-.13,2.05-.4,3.49-.53-.26-1.16-.32-1.79-.09ZM181.44,255.2c-.34-2.31,2.24-11.09,4.51-15.55l1.31.2.06.15-2.22,2.77c-1.11,1.39-.31,3.46,1.45,3.73l1.94.3c-1.72,2.84-2.93,6.1-3.28,8.07-.47,2.69-3.37,3.1-3.77.32ZM213.49,276.36l-.76-1.98c2.1-.03,3.79-.1,4.61-.24,2.19-.36,3.5-3.44,4.22-6.71,1.3-.3,2.17-1.71,1.64-3.08l-.93-2.43c.01-.32.01-.65,0-.98l3.26.51c1.08.17,2.02-.42,2.44-1.28.05.18.1.36.15.54l-.92,1.15c-1.11,1.39-.31,3.46,1.45,3.73l.13.02c-.23,3.14-1.25,9.96-6.84,11.88-1.53.52-4.8.62-8.45.5.19-.5.21-1.07,0-1.64ZM232.23,286c.81-1.63,3.24-2.7,5.28-2.43.54.07.72.52.38.92-1.42,1.67-1.07,4.89-.57,6.73.6,2.18,2.7,4.45,4.12,5.33,1.41.88.3,2.48-1.58,2.04-1.88-.44-7.46-5.26-7.96-7.16-.25-.95-.75-3.24.33-5.43ZM257.35,316.72l2.64.86-.5,3.25-.15.06-1.51-1.21-.6-2.85.12-.11ZM251.61,321.76l.06.06-.06.06.92.3-.22,1.46-.15.06-2.02-1.62,1.49-.31ZM244.75,231.82c-2.96,1.01-6.13,3.15-8.27,5.04l1.65-2.06c1.11-1.39.31-3.46-1.45-3.73l-.22-.03c1.43-1.35,2.99-2.69,4.43-3.81.33.36.79.61,1.33.7l3.51.54-.08.03,2.77,2.22s.06.04.09.06c-1.38.3-2.7.67-3.76,1.03ZM253.34,219.54c-.98-.1-3.29-.44-4.97-2.22-1.25-1.33-1.38-3.98-.42-5.8.26-.48.74-.5,1-.03,1.07,1.91,4.2,2.72,6.1,2.9,2.25.21,5.12-.96,6.44-1.98,1.32-1.01,2.42.59,1.35,2.2-1.07,1.61-7.55,5.13-9.5,4.93ZM242.03,192.2c1.03-2.62,10.37-11.27,13.81-12.42,2.51-.83,10.11-3.07,14.26,1.84,2.55,3.01,6.49,16.68,7.47,21.23.98,4.55-.77,5.24-.77,5.24,0,0-6.36-17.92-8.16-20.96-1.8-3.04-9.18-1.51-13.15-.16-3.96,1.35-8.3,4.73-10.05,6.83-1.75,2.1-4.46,1.02-3.43-1.6ZM236.18,182.67l-.15.06-.21-.17.42-.24-.05.35ZM225.43,201.53l1.78-3.08h.17l1.78,3.08c.89,1.54,3.11,1.54,4,0l1.08-1.88.29.04.06.15-2.22,2.77c-1.11,1.39-.31,3.46,1.45,3.73l3.51.54.06.15-2.22,2.77c-1.11,1.39-.31,3.46,1.45,3.73l3.51.54.06.15-2.22,2.77c-1.11,1.39-.31,3.46,1.45,3.73l.56.09-.17,1.09-.15.06-2.77-2.22c-1.39-1.11-3.46-.31-3.73,1.45l-.39,2.51-2.02-.31-.38-.3,2.15-2.68c1.11-1.39.31-3.46-1.45-3.73l-3.51-.54-.06-.15,2.22-2.77c1.11-1.39.31-3.46-1.45-3.73l-3.51-.54-.06-.15,2.22-2.77c1.11-1.39.31-3.46-1.45-3.73l-.65-.1c.23-.18.45-.39.61-.67ZM204.21,198.46l.73,1.26-.05.31-.15.06-1.12-.9.43-.74h.17ZM172.36,180.55c.26-.48.74-.5,1-.03,1.07,1.91,4.2,2.72,6.1,2.9,2.25.21,5.12-.96,6.44-1.98,1.32-1.01,2.42.59,1.35,2.2-1.07,1.61-7.55,5.13-9.5,4.93-.98-.1-3.29-.44-4.96-2.22-1.25-1.33-1.38-3.98-.42-5.8ZM158.57,168.69l.35.05.06.15-.42.52v-.73ZM138.62,179.54l3.07,1.79c1.54.9,3.47-.21,3.47-1.99v-3.55s.16-.08.16-.08l3.07,1.79c1.54.9,3.47-.21,3.47-1.99v-3.55s.16-.08.16-.08l3.07,1.79c.43.25.89.34,1.34.31.29.72.92,1.3,1.8,1.43l3.51.54.06.15-2.22,2.77c-1.11,1.39-.31,3.46,1.45,3.73l3.51.54.06.15-2.22,2.77c-.11.13-.19.28-.27.42l-2.52-2.02c-1.39-1.11-3.46-.31-3.73,1.45l-.54,3.51-.15.06-2.77-2.22c-1.39-1.11-3.46-.31-3.73,1.45l-.54,3.51-.15.06-2.77-2.22c-.1-.08-.2-.14-.3-.2.4-1.01.09-2.25-.97-2.86l-3.08-1.78-1.78-3.08c-.16-.28-.37-.49-.61-.67v-1.86s.15-.08.15-.08ZM89.83,208.45l.95-2.92c.19.32.46.61.83.82l2.51,1.45c-.23-.02-.46-.01-.71.04l-3.48.73-.11-.12ZM101.41,206.2c-1.11-1.58-2.04-8.9-1.15-10.64.45-.88,1.6-2.91,3.87-3.82,1.69-.68,4.21.16,5.56,1.71.36.41.19.87-.33.94-2.17.3-4.06,2.93-4.92,4.63-1.01,2.02-.96,5.12-.49,6.71.47,1.59-1.43,2.04-2.54.46ZM102.41,221.58s13.48.4,19.82.19c-.13,1.16.65,2.34,1.95,2.54l3.51.54.06.15-.25.31c-5.34.57-16.5-.48-20.48-1.12-4.59-.74-4.61-2.61-4.61-2.61ZM119.25,233.94l-2.13-1.71.49-.85h.17l1.48,2.56ZM113.03,235.45l-.26,1.68-.15.06-2.77-2.22c-.53-.43-1.17-.57-1.76-.49,0-.01.02-.02.02-.03l1.78-3.08h.17l1.78,3.08c.29.5.72.82,1.2,1ZM79.55,264.54c.64-.84,2.95-2.16,5.22-3.13.32.31.74.54,1.24.61l3.51.54.06.15-2.06,2.57c-.07-.01-.15-.03-.22-.04-2.23-.35-5.17.65-6.55,1.57-1.38.93-2.38-.74-1.21-2.28ZM84.39,299.73c-2.56.68-10.28,2.44-14.12-2.72-2.36-3.16-5.45-17.05-6.15-21.65-.7-4.6,1.09-5.18,1.09-5.18,0,0,5.24,18.27,6.85,21.42,1.6,3.15,9.07,2.07,13.11.98,4.04-1.1,8.57-4.21,10.45-6.2.46-.49.96-.77,1.44-.9l-1.28,1.59c-1.04,1.29-.41,3.17,1.1,3.65-3.39,3.4-9.8,8.3-12.49,9.01ZM117.85,277.47c-1.07,1.61-7.55,5.13-9.5,4.93-.98-.1-3.29-.44-4.96-2.22-1.25-1.33-1.38-3.98-.42-5.8.26-.48.74-.5,1-.03,1.07,1.91,4.2,2.72,6.1,2.9,2.25.21,5.12-.96,6.44-1.98,1.32-1.01,2.42.59,1.35,2.2ZM110.52,249.83c-3.96,1.35-8.3,4.73-10.05,6.83-1.75,2.1-4.46,1.02-3.43-1.6,1.03-2.62,10.37-11.27,13.81-12.42,2.51-.83,10.11-3.07,14.26,1.84,2.55,3.01,6.49,16.68,7.47,21.23.98,4.55-.77,5.24-.77,5.24,0,0-6.36-17.92-8.16-20.96-1.8-3.04-9.18-1.51-13.15-.16ZM132.42,294.05s6.13.18,12.06.24l.64,1.78-.11.13-3.5-.63c-1.14-.2-2.13.44-2.53,1.38-.76-.1-1.42-.19-1.96-.27-4.59-.74-4.61-2.61-4.61-2.61ZM100.69,351.45c-1.07,1.61-7.55,5.13-9.5,4.93-.98-.1-3.29-.44-4.97-2.22-1.25-1.33-1.38-3.98-.42-5.8.26-.48.74-.5,1-.03,1.07,1.91,4.2,2.72,6.1,2.9,2.25.21,5.12-.96,6.44-1.98,1.32-1.01,2.42.59,1.35,2.2ZM106.51,323.98c-1.8-3.04-9.18-1.51-13.15-.16-3.96,1.35-8.3,4.73-10.05,6.83-1.75,2.1-4.46,1.02-3.43-1.6,1.03-2.62,10.37-11.27,13.81-12.42,2.51-.83,10.11-3.07,14.26,1.84,2.55,3.01,6.49,16.68,7.47,21.23.98,4.55-.77,5.24-.77,5.24,0,0-6.36-17.92-8.16-20.96ZM134.4,347.61c-1.68,2.27-4.54,1.28-3.63-1.49.66-1.99,5.59-7.45,9.6-10.85l2.31-.83.13.11-.63,3.5c-.19,1.05.35,1.99,1.18,2.44-3.7,1.76-7.43,5.05-8.97,7.13ZM157.95,337.22s12.7-14.15,14.51-17.18c1.81-3.03-3.06-8.79-6.14-11.63-3.08-2.84-8.12-5.03-10.8-5.56-2.68-.53-3.03-3.43-.24-3.78,2.79-.35,14.86,3.72,17.51,6.2,1.93,1.81,7.53,7.42,5.2,13.41-.11.29-.28.61-.49.97-1.17.28-1.87,1.38-1.76,2.49-3.57,4.52-10.13,10.93-12.83,13.25-3.53,3.03-4.97,1.83-4.97,1.83ZM171.46,341.17l-.19-.52.51-.72.22.3.25,2.35-.73-.08c.1-.42.1-.88-.07-1.33ZM213.29,347.26c-.77.62-2.65,2.01-5.09,1.92-1.82-.07-3.79-1.85-4.38-3.82-.16-.52.18-.87.68-.73,2.11.61,4.9-1.03,6.37-2.24,1.74-1.44,2.95-4.29,3.18-5.94.22-1.65,2.14-1.29,2.51.61.37,1.9-1.75,8.96-3.27,10.19ZM201.34,313.48c-3.42-.89-7.58,5.4-9.45,9.14-1.87,3.75-2.56,9.2-2.32,11.92s-2.45,3.87-3.56,1.28c-1.12-2.58-.58-15.3,1.06-18.54,1.2-2.36,5.02-9.3,11.42-8.74,3.93.34,16.36,7.26,20.26,9.8,3.9,2.54,3.15,4.26,3.15,4.26,0,0-17.14-8.23-20.55-9.13ZM226.02,342.4c.01-.19,0-.38-.04-.57l.27.04.06.15-.3.37ZM230.55,332.09l-1.85-1.48,1.52-.16c.28-.03.53-.11.76-.22l-.28,1.8-.15.06ZM232.04,327.11c-.06-.11-.12-.22-.19-.32l-2.09-2.87.07-.15,3.53-.37c1.77-.19,2.67-2.22,1.62-3.66l-2.09-2.87.03-.08.08.03-.37-3.53c-.19-1.77-2.22-2.67-3.66-1.62l-2.87,2.09-.15-.07-.37-3.53c-.19-1.77-2.22-2.67-3.66-1.62l-2.87,2.09-.15-.07-.37-3.53c-.19-1.77-2.22-2.67-3.66-1.62l-2.87,2.09-.15-.07-.37-3.53c-.19-1.77-2.22-2.67-3.66-1.62l-2.87,2.09-.15-.07-.37-3.53c-.19-1.77-2.22-2.67-3.66-1.62l-2.87,2.09-.15-.07-.37-3.53c-.19-1.77-2.22-2.67-3.66-1.62l-2.87,2.09-.08-.03-3.53.37c-1.77.19-2.67,2.22-1.62,3.66l2.09,2.87-.07.15-2.61.28c.08-1.6-1.52-2.84-3.09-2.27l-3.34,1.2-.13-.11.63-3.5c.31-1.75-1.38-3.19-3.06-2.58l-1.43.51c-.18-.22-.38-.43-.65-.59l-1.07-.62.31-1.71c.06-.33.05-.65-.02-.94l.78-.45c1.54-.89,1.54-3.11,0-4l-3.08-1.78v-.17l3.08-1.78c1.54-.89,1.54-3.11,0-4l-3.08-1.78v-.17l3.08-1.78c1.54-.89,1.54-3.11,0-4l-3.08-1.78v-.17l3.08-1.78c1.54-.89,1.54-3.11,0-4l-3.08-1.78v-.17l1.34-.78c-.07,1.63,1.56,2.86,3.14,2.25l3.32-1.27.13.1-.55,3.51c-.28,1.76,1.45,3.16,3.11,2.52l2.3-.88c-1.1,1.02-.96,2.88.42,3.68l.15.09c.1,1.26,1.21,2.21,2.46,2.12l-2.61,1.51c-1.54.89-1.54,3.11,0,4l3.08,1.78v.08h-.08l1.78,3.08c.89,1.54,3.11,1.54,4,0l1.78-3.08h.17l1.78,3.08c.89,1.54,3.11,1.54,4,0l1-1.73,1.11-.43-.05.06.49.08,1.17,2.02c.89,1.54,3.11,1.54,4,0l1.78-3.08h.17l1.78,3.08c.89,1.54,3.11,1.54,4,0l1.78-3.08h.17l1.78,3.08c.23.4.56.69.92.88l-.94,2.87c-.55,1.69.93,3.35,2.67,2.98l3.48-.73.11.12-1.1,3.38c-.55,1.69.93,3.35,2.67,2.98l3.48-.73.11.12-1.1,3.38c-.55,1.69.93,3.35,2.67,2.98l3.48-.73.11.12-1.1,3.38c-.55,1.69.93,3.35,2.67,2.98l3.48-.73.11.12-1.1,3.38c-.55,1.69.93,3.35,2.67,2.98l3.48-.73.11.12-1.1,3.38c-.3.91,0,1.81.61,2.39-.21.29-.37.63-.43,1.02l-.54,3.51-.15.06-2.77-2.22c-1.39-1.11-3.46-.31-3.73,1.45l-.54,3.51-.15.06-2.77-2.22c-.92-.74-2.14-.63-2.94.04Z"/>
  <path class="st0" d="M264.64,331c-4.15-4.91-11.75-2.67-14.26-1.84-3.45,1.14-12.79,9.8-13.81,12.42-1.03,2.62,1.69,3.7,3.43,1.6,1.75-2.1,6.08-5.48,10.05-6.83,3.96-1.35,11.35-2.88,13.15.16.64,1.08,1.84,4.02,3.14,7.37-.44-4.27-.96-8.49-1.53-12.67-.05-.07-.11-.15-.16-.21Z"/>
  <path class="st0" d="M257.37,363.97c1.07-1.61-.04-3.21-1.35-2.2-1.32,1.01-4.19,2.18-6.44,1.98-1.9-.18-5.03-.99-6.1-2.9-.26-.46-.74-.45-1,.03-.96,1.81-.83,4.47.42,5.8.18.19.37.36.56.52,2.45.5,4.7.9,6.78,1.16,2.68-1.02,6.34-3.21,7.13-4.38Z"/>
  <path class="st1" d="M253.11,170.37c1.39,1.11,3.46.31,3.73-1.45l.35-2.26c-3.48-.39-7.6-.76-12.23-1.12.11.98.84,1.88,1.95,2.05l3.51.54-.08.03,2.77,2.22Z"/>
  <path class="st1" d="M263.32,167.47c-1.13-.18-2.41-.36-3.81-.54l.8.64c.95.76,2.22.62,3.01-.1Z"/>
  <path class="st5" d="M10.49,425.19c-.29,0-.54-.1-.75-.24-.12.16-.19.25-.19.25,0,0,282.96.55,294.66,0,.05,0,.09-.01.14-.02-35.85-.09-266.69,0-293.87.02Z"/>
  <path class="st5" d="M324.2,352.18c9.86-12.25,35.2-58.46,30.35-87.93-4.57-27.77-1.4-78.87-.04-109.03,1.2-26.73-24.48-72.6-30.93-102.07-1.06,1.39-3.56,1.38-7.6.81L51.39,43.44c-.12,0-.24-.02-.35-.04l.74,1.88C57.91,73.21,2.26,172.82.08,211.11c-2.17,38.29,39.15,140.89,38.62,158.86-.07,2.24-.57,4.77-1.39,7.49l270.57,3.14c-.77-14.25,11.45-22.39,16.32-28.43ZM266.8,348.93c1.47,17.47-4.25,20.96-16.56,19.43-2.07-.26-4.33-.66-6.78-1.16-3-.62-6.29-1.38-9.85-2.22l1.1-1.37-.06-.15-3.51-.54c-1.76-.27-2.57-2.34-1.45-3.73l2.22-2.77-.06-.15-3.51-.54c-1.76-.27-2.57-2.34-1.45-3.73l2.22-2.77-.06-.15-3.51-.54c-1.76-.27-2.56-2.34-1.45-3.73l.25-.32c-.13.04-.26.06-.39.08l-3.53.37-.07.15,2.09,2.87c1.05,1.44.14,3.47-1.62,3.66l-3.53.37-.07.15,2.09,2.87c1.05,1.44.14,3.47-1.62,3.66l-3.53.37.03-.08-1.86,1.35c-1.52-.29-3.08-.56-4.66-.83,0-.02,0-.04-.01-.06l-.37-3.53-.15-.07-2.87,2.09c-1.44,1.05-3.47.14-3.66-1.62l-.38-3.53-.15-.07-2.87,2.09c-1.44,1.05-3.47.14-3.66-1.62l-.37-3.53-.15-.07-2.87,2.09c-1.44,1.05-3.47.14-3.66-1.62l-.37-3.53-.15-.07-2.87,2.09c-1.44,1.05-3.47.14-3.66-1.62l-.37-3.53-.15-.07-2.87,2.09s-.02.01-.03.02c-.04.39-.18.78-.43,1.14l-2.13,2.98.07.16,3.65.39c1.83.19,2.77,2.3,1.7,3.8l-1.93,2.7c-2.83-.05-5.72-.03-8.67.06-.31,0-.61.01-.92.02-.54.02-1.06.04-1.6.06-17.6.66-32.32,2.04-44.58,3.06-.33-.74-.3-1.64.24-2.38l2.13-2.98-.07-.16-3.65-.39c-.31-.03-.58-.12-.84-.25l-.2,1.29c-.27,1.76-2.34,2.56-3.73,1.45l-2.77-2.22-.15.06-.54,3.51c-.27,1.76-2.34,2.56-3.73,1.45l-2.77-2.22-.15.06-.54,3.51c-.02.15-.06.28-.11.42-1.65.06-3.24.1-4.77.11l-1.62-1.3-.15.06-.19,1.23c-6.82-.09-12.34-.88-16.75-2.87l-.02-.05-.13-.02c-1.96-.9-3.7-2.05-5.24-3.48.08-.27.21-.53.41-.77l2.22-2.77-.06-.15-3.51-.54c-1.76-.27-2.56-2.34-1.45-3.73l2.22-2.77-.06-.15-3.51-.54c-1.76-.27-2.56-2.34-1.45-3.73l2.22-2.77-.06-.15-3.51-.54c-1.76-.27-2.57-2.34-1.45-3.73l2.22-2.77-.06-.15-3.51-.54c-.22-.03-.42-.1-.61-.18-.27-1.18-.55-2.37-.83-3.56l2.21-2.76.54-3.51c.27-1.76,2.34-2.56,3.73-1.45l2.77,2.22.15-.06.54-3.51c.27-1.76,2.34-2.56,3.73-1.45l2.77,2.22.15-.06.54-3.51c.27-1.76,2.34-2.56,3.73-1.45l2.77,2.22.15-.06.54-3.51c.27-1.76,2.34-2.56,3.73-1.45l2.77,2.22.15-.06.54-3.51c.27-1.76,2.34-2.56,3.73-1.45l2.77,2.22.15-.06.54-3.51c.27-1.76,2.34-2.56,3.73-1.45l2.77,2.22.03.08,3.51.54c1.76.27,2.56,2.34,1.45,3.73l-2.22,2.77.06.16,3.51.54c1.76.27,2.56,2.34,1.45,3.73l-2.22,2.77.06.15,3.51.54c1.76.27,2.56,2.34,1.45,3.73l-2.22,2.77.06.15,3.51.54c1.76.27,2.57,2.34,1.45,3.73l-2.22,2.77.06.15,3.29.51.2-2.07c.18-1.84,2.27-2.77,3.76-1.69l2.98,2.17.16-.07.26-2.67c-.91-.41-1.54-1.4-1.34-2.52l.63-3.5-.13-.11-3.34,1.2c-1.67.6-3.37-.83-3.06-2.58l.63-3.5.06.05-1.2-3.34c-.6-1.67.83-3.37,2.58-3.06l3.5.63.11-.13-1.2-3.34c-.6-1.67.83-3.37,2.58-3.06l3.5.63.11-.13h0c-.41-.2-.78-.5-1.04-.94l-1.78-3.08h-.17l-1.78,3.08c-.89,1.54-3.11,1.54-4,0l-1.78-3.08h.08v-.08l-3.08-1.78c-1.54-.89-1.54-3.11,0-4l3.08-1.78v-.17l-3.08-1.78c-1.54-.89-1.54-3.11,0-4l3.08-1.78v-.17l-3.08-1.78s-.04-.03-.06-.05v.05c-.28,1.76-2.35,2.56-3.74,1.45l-2.77-2.22-.15.06-.54,3.51c-.05.3-.15.57-.28.81.62.84.66,2.07-.13,2.94l-2.39,2.63-.76,3.47c-.38,1.74-2.5,2.42-3.81,1.22l-2.63-2.39-.16.05-.76,3.47c-.38,1.74-2.5,2.42-3.81,1.22l-2.63-2.39-.16.05-.76,3.47c-.38,1.74-2.5,2.42-3.81,1.22l-2.63-2.39-.16.05-.76,3.47c-.38,1.74-2.5,2.42-3.81,1.22l-2.63-2.39-.16.05-.76,3.47c-.38,1.74-2.5,2.42-3.81,1.22l-2.63-2.39-.16.05-.76,3.47c-.38,1.74-2.5,2.42-3.81,1.22l-2.63-2.39-.03-.08-3.47-.75c-1.74-.38-2.42-2.5-1.22-3.81l2.39-2.63-.05-.16-3.47-.75c-1.74-.38-2.42-2.5-1.22-3.81l2.39-2.63-.05-.16-3.47-.76c-.72-.16-1.26-.61-1.55-1.19-.08-.49-.15-.98-.23-1.48.07-.41.25-.8.56-1.14l2.39-2.63-.05-.16-3.47-.75s-.07-.02-.1-.03c-.19-1.46-.36-2.95-.52-4.44l1.79-1.97-.05-.16-2-.43c-.2-2.16-.36-4.34-.48-6.57l.18-.19-.05-.16-.15-.03c-.2-3.92-.28-7.94-.19-12.09.82-.47,1.91-.44,2.71.29l2.63,2.39.16-.05.76-3.47c.38-1.74,2.5-2.42,3.81-1.22l2.63,2.39.16-.05.76-3.47c.38-1.74,2.5-2.42,3.81-1.22l2.63,2.39.16-.05.76-3.47c.38-1.74,2.5-2.42,3.81-1.22l2.63,2.39.16-.05.33-1.53-.13-.02c-1.76-.27-2.57-2.34-1.45-3.73l2.22-2.77.54-3.51c.27-1.76,2.34-2.56,3.73-1.45l2.77,2.22.15-.06.54-3.51c.27-1.76,2.34-2.56,3.73-1.45l2.77,2.22.15-.06.54-3.51c.27-1.76,2.34-2.56,3.73-1.45l2.77,2.22.15-.06.54-3.51c.05-.32.16-.6.31-.85-.88.12-1.81-.24-2.32-1.12l-1.78-3.08h-.17l-1.78,3.08c-.89,1.54-3.11,1.54-4,0l-1.78-3.08h.08v-.08l-.53-.31c-.56.41-1.31.57-2.07.32l-3.38-1.1-.12.11.73,3.48c.37,1.74-1.29,3.23-2.98,2.67l-3.38-1.1-.12.11.73,3.48c.37,1.74-1.29,3.23-2.98,2.67l-3.38-1.1-.12.11.73,3.48c.37,1.74-1.29,3.23-2.98,2.67l-3.38-1.1-.12.11.73,3.48c.37,1.74-1.29,3.23-2.98,2.67l-3.38-1.1.06-.06-.06-.06-3.48.73c-1.74.37-3.23-1.29-2.67-2.98l1.1-3.38-.11-.12-3.48.73c-.22.05-.43.06-.63.05,1.42-12.59,4.41-26.25,9.67-41.23,0,0,.05-.41.15-1.13.11-.73.27-1.8.5-3.11.95-5.35,3.04-14.88,6.93-23.25.64-1.38,1.34-2.74,2.08-4.03,1.19-2.07,2.51-3.99,3.98-5.68,2.22-2.55,4.78-4.55,7.71-5.67,1.55-.59,3.19-.93,4.95-.98.58-.01,1.24-.03,1.96-.04l1.07.61c1.6.92,1.6,3.21,0,4.12l-3.2,1.83v.17l3.2,1.83c1.6.92,1.6,3.21,0,4.12l-3.2,1.83v.17l3.2,1.83c1.6.92,1.6,3.21,0,4.12l-3.2,1.83h-.09l-1.85,3.17c-.93,1.59-3.24,1.59-4.16,0l-1.85-3.17h-.17l-1.85,3.17c-.93,1.59-3.24,1.59-4.16,0l-1.85-3.17h-.17l-1.33,2.29c.65.58.98,1.51.67,2.45l-1.1,3.38.11.12,3.48-.73c1.74-.37,3.23,1.29,2.67,2.98l-1.1,3.38.11.12,3.48-.73c1.74-.37,3.23,1.29,2.67,2.98l-1.1,3.38.11.12,3.48-.73c1.06-.22,2.02.3,2.49,1.13.19-.35.48-.65.86-.87l3.08-1.78v-.17l-3.08-1.78c-1.54-.89-1.54-3.11,0-4l3.08-1.78v-.17l-3.08-1.78c-1.54-.89-1.54-3.11,0-4l3.08-1.78v.08l1.78-3.08c.89-1.54,3.11-1.54,4,0l1.78,3.08h.17l1.78-3.08c.89-1.54,3.11-1.54,4,0l1.78,3.08h.17l.61-1.05c-1.53-.28-2.39-2.02-1.57-3.43l1.79-3.07-.08-.14h-3.55c-1.78-.02-2.88-1.95-1.99-3.49l1.79-3.07-.08-.14h-3.55c-1.78-.02-2.88-1.95-1.99-3.49l1.79-3.07-.08-.14h-3.55c-1.78-.02-2.88-1.95-1.99-3.49v-.02c2.67,0,5.9,0,9.61.03,1.39.01,2.85.03,4.37.04,8.19.09,18.16.27,29.07.51,2.28.05,4.59.11,6.95.16,6.02.15,12.27.32,18.6.51,1.45.04,2.91.09,4.38.13,8.43.26,16.97.56,25.31.89,1.21.05,2.42.1,3.63.15,7.41.3,14.62.64,21.43.99,1.53.08,3.04.16,4.52.24,4.69.26,9.15.53,13.3.82-.19.28-.42.53-.74.71l-3.08,1.78v.17l3.08,1.78c1.54.89,1.54,3.11,0,4l-3.08,1.78v.17l3.08,1.78s.08.07.13.1c.71-.26,1.56-.18,2.23.37l2.77,2.22.15-.06.54-3.51c.27-1.76,2.34-2.56,3.73-1.45l2.77,2.22.15-.06.54-3.51c.27-1.76,2.34-2.56,3.73-1.45l2.77,2.22.15-.06.54-3.51c.27-1.76,2.34-2.56,3.73-1.45l2.77,2.22.15-.06.54-3.51s.01-.06.02-.09c4.56.93,7.93,3.28,10.3,6.67l-1.05,1.31.06.16,2.1.32c.83,1.52,1.5,3.19,2.02,5l-1.38,1.72.06.15,1.85.28c2.07,9.72.42,22.63-3.29,35.25l-1.77-1.42-.15.06-.54,3.51c-.27,1.76-2.34,2.56-3.73,1.45l-2.77-2.22-.15.06-.17,1.12.67.1c1.76.27,2.56,2.34,1.45,3.73l-2.22,2.77.06.15,3.51.54c.95.15,1.61.81,1.86,1.61-.45,1.12-.9,2.23-1.38,3.33l-1.25,1.56.06.15.41.06c-1.34,2.97-2.76,5.82-4.23,8.49-.1.18-.2.36-.3.54-.55.98-1.05,1.97-1.53,2.97-3.65,7.72-5.2,16.29-5.49,25.54-.05,1.65-.06,3.32-.04,5.02.11,7.38.89,15.16,1.96,23.25.16,1.22.33,2.45.5,3.68,1.19,8.51,2.62,17.34,3.85,26.41.57,4.18,1.09,8.4,1.53,12.67.17,1.68.33,3.36.47,5.06ZM246.91,167.58c-1.11-.17-1.84-1.06-1.95-2.05,4.63.36,8.75.73,12.23,1.12l-.35,2.26c-.27,1.76-2.34,2.56-3.73,1.45l-2.77-2.22.08-.03-3.51-.54ZM68.41,105.89c.71-12.8,46.37-20.67,101.99-17.59,15.37.85,29.88,2.45,42.84,4.59.15-1.09,1.34-1.79,2.39-1.27l2.3,1.14.1-.07-.17-2.57c-.08-1.28,1.25-2.18,2.41-1.61l2.31,1.14.1-.07-.17-2.57c-.08-1.28,1.25-2.18,2.41-1.61l2.3,1.14.1-.07-.17-2.57c-.08-1.28,1.25-2.18,2.41-1.61l2.3,1.14.1-.07-.17-2.57c-.08-1.28,1.25-2.18,2.41-1.61l2.31,1.14.1-.07-.17-2.57c-.08-1.28,1.25-2.18,2.41-1.61l2.31,1.14,2.57-.17c1.28-.08,2.18,1.25,1.61,2.41l-1.14,2.31.07.1,2.57-.17c1.28-.08,2.18,1.25,1.61,2.41l-1.14,2.31.07.1,2.57-.17c1.28-.08,2.18,1.25,1.61,2.41l-1.14,2.31.07.1,2.57-.17c1.28-.08,2.18,1.25,1.61,2.41l-1.14,2.31.07.1,2.57-.17c1.28-.08,2.18,1.25,1.61,2.41l-1.14,2.31.07.1,2.57-.17c1.28-.08,2.18,1.25,1.61,2.41l-1.14,2.31-.05.03.07,1.02c6.65,3.5,10.29,7.24,10.09,10.98-.71,12.8-46.37,20.67-101.99,17.59-55.62-3.08-100.13-15.96-99.42-28.75ZM263.32,167.47c-.79.73-2.06.86-3.01.1l-.8-.64c1.41.18,2.68.36,3.81.54Z"/>
  <path class="st4" d="M315.98,53.96c4.04.58,6.55.58,7.6-.81.12-.16.23-.33.31-.53,5.47-13.04,21.98-32.69,21.2-37.81-.17-1.12-31.91-2.31-33.04-2.32L45.68,0c-14,0-8.35,10.44-7.77,11.96l11.4,29.99c.29.75.94,1.29,1.71,1.44.12.02.23.04.35.04l264.6,10.52Z"/>
  <path class="st4" d="M37.31,377.47h-1.11c-13.7,13.45-21.54,38.76-26.74,45.66-.47.62-.27,1.42.28,1.82.21.15.46.24.75.24,27.18-.01,258.02-.11,293.87-.02,2.18,0,19.78.67,19.81.02.84-15.57-15.25-26.91-16.28-44.58h0l-270.57-3.14Z"/>
  <path class="st2" d="M167.83,134.65c55.62,3.08,101.28-4.79,101.99-17.59.21-3.73-3.44-7.47-10.09-10.98l.1,1.55c.08,1.28-1.25,2.18-2.41,1.61l-2.3-1.14-.1.07.17,2.57c.08,1.28-1.25,2.18-2.41,1.61l-2.31-1.14-.1.07.17,2.57c.08,1.28-1.25,2.18-2.41,1.61l-2.31-1.14-.1.07.17,2.57c.08,1.28-1.25,2.18-2.41,1.61l-2.31-1.14-.1.07.17,2.57c.08,1.28-1.25,2.18-2.41,1.61l-2.31-1.14-.1.07.17,2.57c.08,1.28-1.25,2.18-2.41,1.61l-2.31-1.14.05-.03-.03-.05-2.57.17c-1.28.08-2.18-1.25-1.61-2.41l1.14-2.31-.07-.1-2.57.17c-1.28.08-2.18-1.25-1.61-2.41l1.14-2.31-.07-.1-2.57.17c-1.28.08-2.18-1.25-1.61-2.41l1.14-2.31-.07-.1-2.57.17c-1.28.08-2.18-1.25-1.61-2.41l1.14-2.31-.07-.1-2.57.17c-1.28.08-2.18-1.25-1.61-2.41l1.14-2.31-.07-.1-2.57.17c-1.28.08-2.18-1.25-1.61-2.41l1.14-2.31.03.05-.17-2.57c0-.12,0-.23.02-.34-12.95-2.14-27.47-3.74-42.84-4.59-55.62-3.08-101.28,4.79-101.99,17.59-.71,12.8,43.8,25.67,99.42,28.75Z"/>
  <path class="st1" d="M213.38,95.8l-.03-.05-1.14,2.31c-.57,1.15.32,2.49,1.61,2.41l2.57-.17.07.1-1.14,2.31c-.57,1.15.32,2.49,1.61,2.41l2.57-.17.07.1-1.14,2.31c-.57,1.15.32,2.49,1.61,2.41l2.57-.17.07.1-1.14,2.31c-.57,1.15.32,2.49,1.61,2.41l2.57-.17.07.1-1.14,2.31c-.57,1.15.32,2.49,1.61,2.41l2.57-.17.07.1-1.14,2.31c-.57,1.15.32,2.49,1.61,2.41l2.57-.17.03.05-.05.03,2.31,1.14c1.15.57,2.49-.32,2.41-1.61l-.17-2.57.1-.07,2.31,1.14c1.15.57,2.49-.32,2.41-1.61l-.17-2.57.1-.07,2.31,1.14c1.15.57,2.49-.32,2.41-1.61l-.17-2.57.1-.07,2.31,1.14c1.15.57,2.49-.32,2.41-1.61l-.17-2.57.1-.07,2.31,1.14c1.15.57,2.49-.32,2.41-1.61l-.17-2.57.1-.07,2.3,1.14c1.15.57,2.49-.32,2.41-1.61l-.1-1.55-.07-1.02.05-.03,1.14-2.31c.57-1.15-.32-2.49-1.61-2.41l-2.57.17-.07-.1,1.14-2.31c.57-1.15-.32-2.49-1.61-2.41l-2.57.17-.07-.1,1.14-2.31c.57-1.15-.32-2.49-1.61-2.41l-2.57.17-.07-.1,1.14-2.31c.57-1.15-.32-2.49-1.61-2.41l-2.57.17-.07-.1,1.14-2.31c.57-1.15-.32-2.49-1.61-2.41l-2.57.17-.07-.1,1.14-2.31c.57-1.15-.32-2.49-1.61-2.41l-2.57.17-2.31-1.14c-1.15-.57-2.49.32-2.41,1.61l.17,2.57-.1.07-2.31-1.14c-1.15-.57-2.49.32-2.41,1.61l.17,2.57-.1.07-2.3-1.14c-1.15-.57-2.49.32-2.41,1.61l.17,2.57-.1.07-2.3-1.14c-1.15-.57-2.49.32-2.41,1.61l.17,2.57-.1.07-2.31-1.14c-1.15-.57-2.49.32-2.41,1.61l.17,2.57-.1.07-2.3-1.14c-1.05-.52-2.24.18-2.39,1.27-.01.11-.03.22-.02.34l.17,2.57ZM225.86,105.72c-1.3-.51-4.8-4.54-4.97-5.95-.08-.71-.2-2.4.8-3.86.75-1.09,2.6-1.6,4.03-1.2.38.11.47.45.18.7-1.19,1.05-1.27,3.39-1.1,4.76.2,1.62,1.48,3.47,2.4,4.24.92.77-.04,1.81-1.34,1.3ZM250.3,105.71c-1.73,2.27-10.77,7.19-13.83,8.6-3.06,1.4-3.82.28-3.82.28,0,0,11.67-7.29,13.54-9.04,1.87-1.74-.37-6.72-1.94-9.32-1.57-2.59-4.64-5.13-6.4-6.03-1.76-.91-1.42-2.99.59-2.68,2.01.32,9.59,5.57,10.93,7.82.98,1.65,3.75,6.67.93,10.37Z"/>
  <path class="st0" d="M249.37,95.34c-1.35-2.26-8.92-7.51-10.93-7.82-2.01-.32-2.35,1.77-.59,2.68,1.76.91,4.83,3.44,6.4,6.03,1.57,2.59,3.81,7.57,1.94,9.32-1.87,1.74-13.54,9.04-13.54,9.04,0,0,.76,1.12,3.82-.28,3.06-1.4,12.1-6.32,13.83-8.6,2.82-3.7.05-8.72-.93-10.37Z"/>
  <path class="st0" d="M227.2,104.42c-.92-.77-2.2-2.62-2.4-4.24-.17-1.37-.09-3.71,1.1-4.76.29-.25.2-.6-.18-.7-1.43-.4-3.29.11-4.03,1.2-1,1.46-.88,3.15-.8,3.86.16,1.41,3.66,5.44,4.97,5.95,1.3.51,2.27-.53,1.34-1.3Z"/>
  <g>
    <path class="st3" d="M107.25,95.7v-1.86h6.51v2.56h-.46l-6.04-.7ZM114.22,122.44l6.04.7v1.86h-13.02v-1.86l6.04-.7h.93ZM111.66,108.26c0-4.79,0-9.62-.14-14.41h4.46c-.14,4.7-.14,9.53-.14,14.41v2.84c0,4.74,0,9.11.14,13.9h-4.46c.14-4.7.14-9.53.14-14.41v-2.32ZM118.36,112.67h-4.6v-2.14h5.3c5.72,0,7.95-3.02,7.95-7.44s-2.51-7.11-8.14-7.11h-5.11v-2.14h6c7.72,0,11.67,3.81,11.67,9.25s-3.58,9.58-13.06,9.58Z"/>
    <path class="st3" d="M129.93,123.13l4.65-.7h.93l5.11.7v1.86h-10.69v-1.86ZM143.79,93.61h2.79l10.69,31.38h-4.32l-9.35-27.85h1.07l-9.48,27.85h-2.19l10.79-31.38ZM138.35,112.67h12.55l.74,2.14h-14.04l.74-2.14ZM147.51,123.13l5.86-.7h.93l5.77.7v1.86h-12.55v-1.86Z"/>
    <path class="st3" d="M178.61,117.69c0-3.02-1.81-4.37-5.86-5.95l-1.77-.7c-4.74-1.86-8-4.56-8-9.3,0-5.35,4.51-8.6,10.42-8.6,3.12,0,5.58.98,7.58,2.46l-.28,6.04h-2.79l-1.3-7.02,2.98,1.53v2.33c-2.28-2.23-4-3.02-6.46-3.02-3.63,0-6.37,1.81-6.37,5.3,0,2.93,1.91,4.65,5.3,5.95l1.81.7c6.14,2.37,8.51,5.07,8.51,9.44,0,5.49-4.6,8.83-10.97,8.83-3.49,0-6.88-1.12-9.02-2.46l.28-6.51h2.79l1.21,7.16-3.02-1.3v-2.23c2.88,2.09,4.46,3.02,7.62,3.02,4.42,0,7.35-2.05,7.35-5.67Z"/>
    <path class="st3" d="M186.7,96.17l2.09-2.32-1.49,8.28h-2.6l.37-8.28h25.39l.37,8.28h-2.6l-1.49-8.28,2.09,2.32h-22.13ZM198.23,122.44l6.51.7v1.86h-13.95v-1.86l6.51-.7h.93ZM195.67,108.26c0-4.79,0-9.62-.14-14.41h4.46c-.14,4.7-.14,9.53-.14,14.41v2.32c0,4.79,0,9.62.14,14.41h-4.46c.14-4.7.14-9.53.14-14.41v-2.32Z"/>
    <path class="st3" d="M208.74,123.13l4.65-.7h.93l5.11.7v1.86h-10.69v-1.86ZM222.59,93.61h2.79l10.69,31.38h-4.32l-9.35-27.85h1.07l-9.48,27.85h-2.19l10.79-31.38ZM217.15,112.67h12.55l.74,2.14h-14.04l.74-2.14ZM226.31,123.13l5.86-.7h.93l5.77.7v1.86h-12.55v-1.86Z"/>
  </g>
</svg>