<?xml version="1.0" encoding="UTF-8"?>
<svg id="Lag_1" xmlns="http://www.w3.org/2000/svg" version="1.1" viewBox="0 0 484.71 573.71">
  <!-- Generator: Adobe Illustrator 30.0.0, SVG Export Plug-In . SVG Version: 2.1.1 Build 123)  -->
  <defs>
    <style>
      .st0 {
        fill: #a5a3a3;
      }

      .st1 {
        fill: #e2b76d;
      }

      .st2 {
        fill: #e8cd91;
      }

      .st3 {
        fill: #9f2f2e;
      }

      .st4 {
        fill: #eeb7b7;
      }

      .st5 {
        fill: #e4c9e2;
      }

      .st6 {
        fill: #931915;
      }

      .st7 {
        fill: #ab1d17;
      }

      .st8 {
        fill: #798e70;
      }

      .st9 {
        fill: #020202;
      }

      .st10 {
        fill: #f4c15c;
      }

      .st11 {
        fill: #e3e0de;
      }

      .st12 {
        fill: #8c8888;
      }

      .st13 {
        fill: #f8f6f5;
      }
    </style>
  </defs>
  <rect class="st5" x="0" width="484.71" height="109.11"/>
  <rect class="st6" x="0" y="95.22" width="484.71" height="52.19"/>
  <rect class="st7" y="133.76" width="484.71" height="13.05"/>
  <rect class="st11" x="69.24" y="218.1" width="69.24" height="71.12"/>
  <rect class="st11" x="0" y="289.22" width="69.24" height="71.12"/>
  <rect class="st9" x="138.49" y="289.22" width="69.24" height="71.12"/>
  <rect class="st9" x="276.97" y="289.22" width="69.24" height="71.12"/>
  <rect class="st11" x="207.73" y="218.1" width="69.24" height="71.12"/>
  <rect class="st8" x="138.49" y="218.1" width="69.24" height="71.12"/>
  <rect class="st8" x="0" y="218.1" width="69.24" height="71.12"/>
  <rect class="st8" x="69.24" y="289.22" width="69.24" height="71.12"/>
  <rect class="st13" x="207.73" y="289.22" width="69.24" height="71.12"/>
  <rect class="st8" x="276.97" y="218.1" width="69.24" height="71.12"/>
  <rect class="st8" x="415.46" y="218.1" width="69.24" height="71.12"/>
  <rect class="st13" x="346.22" y="289.22" width="69.24" height="71.12"/>
  <rect class="st11" x="415.46" y="289.22" width="69.24" height="71.12"/>
  <rect class="st11" x="346.22" y="218.1" width="69.24" height="71.12"/>
  <rect class="st11" y="146.97" width="69.24" height="71.12"/>
  <rect class="st11" x="138.49" y="146.97" width="69.24" height="71.12"/>
  <rect class="st8" x="69.24" y="146.97" width="69.24" height="71.12"/>
  <rect class="st11" x="415.46" y="146.97" width="69.24" height="71.12"/>
  <rect class="st8" x="207.73" y="146.97" width="69.24" height="71.12"/>
  <rect class="st8" x="346.22" y="146.97" width="69.24" height="71.12"/>
  <rect class="st11" x="276.97" y="146.97" width="69.24" height="71.12"/>
  <rect class="st11" x="415.46" y="431.47" width="69.24" height="71.12"/>
  <rect class="st11" x="0" y="431.47" width="69.24" height="71.12"/>
  <rect class="st11" x="69.68" y="502.59" width="69.24" height="71.12"/>
  <rect class="st11" x="208.17" y="502.59" width="69.24" height="71.12"/>
  <rect class="st11" x="69.68" y="360.34" width="69.24" height="71.12"/>
  <rect class="st11" x="138.92" y="431.47" width="69.24" height="71.12"/>
  <rect class="st9" x="208.17" y="360.34" width="69.24" height="71.12"/>
  <rect class="st11" x="346.65" y="360.34" width="69.24" height="71.12"/>
  <rect class="st13" x="277.41" y="360.34" width="69.24" height="71.12"/>
  <rect class="st13" x="138.92" y="360.34" width="69.24" height="71.12"/>
  <rect class="st8" x="0" y="360.34" width="69.24" height="71.12"/>
  <rect class="st8" x="69.68" y="431.47" width="69.24" height="71.12"/>
  <rect class="st8" x="415.46" y="360.34" width="69.24" height="71.12"/>
  <rect class="st8" x="415.46" y="502.59" width="69.24" height="71.12"/>
  <rect class="st8" x="0" y="502.59" width="69.24" height="71.12"/>
  <rect class="st8" x="138.92" y="502.59" width="69.24" height="71.12"/>
  <rect class="st8" x="208.17" y="431.47" width="69.24" height="71.12"/>
  <rect class="st8" x="346.65" y="431.47" width="69.24" height="71.12"/>
  <rect class="st8" x="277.41" y="502.59" width="69.24" height="71.12"/>
  <rect class="st11" x="346.65" y="502.59" width="69.24" height="71.12"/>
  <rect class="st11" x="277.41" y="431.47" width="69.24" height="71.12"/>
  <path class="st7" d="M200.68,277.62"/>
  <path class="st3" d="M172.93,273.38c-7.56-.84-16.37-.84-23.51,4.62,0,0-7.56,2.52-5.04,6.49,2.52,3.98,13.01,4.42,18.47,4.42s13.85-3.36,18.05-7.14c4.2-3.78-.42-7.56-7.97-8.39ZM160.24,275.45c.63-.96,1.41-.96,2.08-.81.67.15,1.08.81.71,1.48-.37.67-1.11,1.26-1.6,1.26s-1.41-.08-1.63-.78c-.22-.7.45-1.15.45-1.15ZM150.76,280.74c-.22-.73.45-1.18.45-1.18.63-1,1.41-1,2.08-.84s1.08.84.71,1.53-1.11,1.3-1.6,1.3-1.41-.08-1.63-.81ZM154.41,284.62c-.37.46-1.11.87-1.6.87s-1.41-.05-1.63-.54.45-.79.45-.79c.63-.67,1.41-.67,2.08-.56.67.1,1.08.56.71,1.03ZM154.38,276.49c-.22-.49.45-.79.45-.79.63-.67,1.41-.67,2.08-.56.67.1,1.08.56.71,1.03-.37.46-1.11.87-1.6.87s-1.41-.05-1.63-.54ZM156.09,280.32c-.22-.58.45-.94.45-.94.63-.79,1.41-.79,2.08-.67.67.12,1.08.67.71,1.22-.37.55-1.11,1.04-1.6,1.04s-1.41-.06-1.63-.64ZM160.26,285.6c-.37.46-1.11.87-1.6.87s-1.41-.05-1.63-.54c-.22-.49.45-.79.45-.79.63-.67,1.41-.67,2.08-.56.67.1,1.08.56.71,1.03ZM165.31,281.8c-.46.57-1.39,1.07-1.99,1.07s-1.76-.07-2.04-.66.56-.97.56-.97c.79-.82,1.76-.82,2.6-.69.83.13,1.34.69.88,1.26ZM166.82,275.69c.83-.67,1.86-.67,2.74-.56.88.1,1.42.56.93,1.03s-1.47.87-2.1.87-1.86-.05-2.15-.54c-.29-.49.59-.79.59-.79ZM169.19,285.76c-.37.46-1.11.87-1.6.87s-1.41-.05-1.63-.54c-.22-.49.45-.79.45-.79.63-.67,1.41-.67,2.08-.56.67.1,1.08.56.71,1.03ZM168.93,281.55c-.48,0-1.41-.05-1.63-.54s.45-.79.45-.79c.63-.67,1.41-.67,2.08-.56.67.1,1.08.56.71,1.03-.37.46-1.11.87-1.6.87ZM173.81,284.1c-.37.46-1.11.87-1.6.87s-1.41-.05-1.63-.54c-.22-.49.45-.79.45-.79.63-.67,1.41-.67,2.08-.56.67.1,1.08.56.71,1.03ZM175.52,278.66c-.37.7-1.11,1.32-1.6,1.32s-1.41-.08-1.63-.82c-.22-.74.45-1.21.45-1.21.63-1.01,1.41-1.01,2.08-.86s1.08.86.71,1.56Z"/>
  <path class="st3" d="M224.08,291.72c5.46,0,13.85-4.85,18.05-10.3,4.2-5.45-.42-10.91-7.97-12.12-7.56-1.21-16.37-1.21-23.5,6.66,0,0-7.56,3.64-5.04,9.37,2.52,5.74,13.01,6.38,18.47,6.38ZM234.42,277.59c.63-1.01,1.41-1.01,2.08-.86s1.08.86.71,1.56c-.37.7-1.11,1.32-1.6,1.32s-1.41-.08-1.63-.82c-.22-.74.45-1.21.45-1.21ZM232.71,283.27c.63-.67,1.41-.67,2.08-.56.67.1,1.08.56.71,1.03-.37.46-1.11.87-1.6.87s-1.41-.05-1.63-.54c-.22-.49.45-.79.45-.79ZM232.21,280.31c-.37.46-1.11.87-1.6.87s-1.41-.05-1.63-.54.45-.79.45-.79c.63-.67,1.41-.67,2.08-.56.67.1,1.08.56.71,1.03ZM228.5,275.33c.83-.67,1.86-.67,2.74-.56.88.1,1.42.56.93,1.03-.49.46-1.47.87-2.1.87s-1.86-.05-2.15-.54c-.29-.49.59-.79.59-.79ZM228.08,284.93c.63-.67,1.41-.67,2.08-.56.67.1,1.08.56.71,1.03-.37.46-1.11.87-1.6.87s-1.41-.05-1.63-.54c-.22-.49.45-.79.45-.79ZM226.11,280.18c.83.13,1.34.69.88,1.26-.46.57-1.39,1.07-1.99,1.07s-1.76-.07-2.04-.66c-.28-.6.56-.97.56-.97.79-.82,1.76-.82,2.6-.69ZM221.92,275.08c.63-.96,1.41-.96,2.08-.81s1.08.81.71,1.48c-.37.67-1.11,1.26-1.6,1.26s-1.41-.08-1.63-.78c-.22-.7.45-1.15.45-1.15ZM221.94,285.23c-.37.46-1.11.87-1.6.87s-1.41-.05-1.63-.54.45-.79.45-.79c.63-.67,1.41-.67,2.08-.56.67.1,1.08.56.71,1.03ZM220.29,278.34c.67.12,1.08.67.71,1.22-.37.55-1.11,1.04-1.6,1.04s-1.41-.06-1.63-.64c-.22-.58.45-.94.45-.94.63-.79,1.41-.79,2.08-.67ZM216.5,275.33c.63-.67,1.41-.67,2.08-.56.67.1,1.08.56.71,1.03-.37.46-1.11.87-1.6.87s-1.41-.05-1.63-.54c-.22-.49.45-.79.45-.79ZM216.09,284.26c-.37.46-1.11.87-1.6.87s-1.41-.05-1.63-.54c-.22-.49.45-.79.45-.79.63-.67,1.41-.67,2.08-.56s1.08.56.71,1.03ZM212.89,279.19c.63-1,1.41-1,2.08-.84s1.08.84.71,1.53-1.11,1.3-1.6,1.3-1.41-.08-1.63-.81c-.22-.73.45-1.18.45-1.18Z"/>
  <path class="st3" d="M200.22,312.59c4.2-4.49-.42-8.99-7.97-9.99-7.56-1-16.37-1-23.51,5.49,0,0-7.56,3-5.04,7.73,2.52,4.73,13.01,5.26,18.47,5.26s13.85-3.99,18.05-8.49ZM192.04,309.41c.63-1.01,1.41-1.01,2.08-.86.67.16,1.08.86.71,1.56-.37.7-1.11,1.32-1.6,1.32s-1.41-.08-1.63-.82c-.22-.74.45-1.21.45-1.21ZM190.34,315.09c.63-.67,1.41-.67,2.08-.56.67.1,1.08.56.71,1.03-.37.46-1.11.87-1.6.87s-1.41-.05-1.63-.54.45-.79.45-.79ZM189.84,312.13c-.37.46-1.11.87-1.6.87s-1.41-.05-1.63-.54c-.22-.49.45-.79.45-.79.63-.67,1.41-.67,2.08-.56.67.1,1.08.56.71,1.03ZM186.13,307.15c.83-.67,1.86-.67,2.74-.56.88.1,1.42.56.93,1.03-.49.46-1.47.87-2.1.87s-1.86-.05-2.15-.54c-.29-.49.59-.79.59-.79ZM185.71,316.75c.63-.67,1.41-.67,2.08-.56.67.1,1.08.56.71,1.03-.37.46-1.11.87-1.6.87s-1.41-.05-1.63-.54.45-.79.45-.79ZM179.55,306.9c.63-.96,1.41-.96,2.08-.81s1.08.81.71,1.48c-.37.67-1.11,1.26-1.6,1.26s-1.41-.08-1.63-.78c-.22-.7.45-1.15.45-1.15ZM170.07,312.2c-.22-.73.45-1.18.45-1.18.63-1,1.41-1,2.08-.84s1.08.84.71,1.53c-.37.69-1.11,1.3-1.6,1.3s-1.41-.08-1.63-.81ZM173.72,316.07c-.37.46-1.11.87-1.6.87s-1.41-.05-1.63-.54c-.22-.49.45-.79.45-.79.63-.67,1.41-.67,2.08-.56.67.1,1.08.56.71,1.03ZM173.69,307.94c-.22-.49.45-.79.45-.79.63-.67,1.41-.67,2.08-.56.67.1,1.08.56.71,1.03-.37.46-1.11.87-1.6.87s-1.41-.05-1.63-.54ZM175.4,311.77c-.22-.58.45-.94.45-.94.63-.79,1.41-.79,2.08-.67.67.12,1.08.67.71,1.22s-1.11,1.04-1.6,1.04-1.41-.06-1.63-.64ZM179.57,317.05c-.37.46-1.11.87-1.6.87s-1.41-.05-1.63-.54c-.22-.49.45-.79.45-.79.63-.67,1.41-.67,2.08-.56.67.1,1.08.56.71,1.03ZM180.59,313.66c-.28-.6.56-.97.56-.97.79-.82,1.76-.82,2.6-.69.83.13,1.34.69.88,1.26s-1.39,1.07-1.99,1.07-1.76-.07-2.04-.66Z"/>
  <path class="st3" d="M140.01,315.24c4.2-5.63-.42-11.27-7.97-12.52s-16.37-1.25-23.51,6.89c0,0-7.56,3.76-5.04,9.69,2.52,5.93,13.01,6.59,18.47,6.59s13.85-5.01,18.05-10.64ZM131.84,311.36c.63-1.01,1.41-1.01,2.08-.86s1.08.86.71,1.56c-.37.7-1.11,1.32-1.6,1.32s-1.41-.08-1.63-.82c-.22-.74.45-1.21.45-1.21ZM130.13,317.04c.63-.67,1.41-.67,2.08-.56.67.1,1.08.56.71,1.03-.37.46-1.11.87-1.6.87s-1.41-.05-1.63-.54c-.22-.49.45-.79.45-.79ZM129.63,314.08c-.37.46-1.11.87-1.6.87s-1.41-.05-1.63-.54c-.22-.49.45-.79.45-.79.63-.67,1.41-.67,2.08-.56.67.1,1.08.56.71,1.03ZM125.92,309.1c.83-.67,1.86-.67,2.74-.56.88.1,1.42.56.93,1.03-.49.46-1.47.87-2.1.87s-1.86-.05-2.15-.54c-.29-.49.59-.79.59-.79ZM125.5,318.7c.63-.67,1.41-.67,2.08-.56.67.1,1.08.56.71,1.03-.37.46-1.11.87-1.6.87s-1.41-.05-1.63-.54c-.22-.49.45-.79.45-.79ZM119.34,308.85c.63-.96,1.41-.96,2.08-.81s1.08.81.71,1.48c-.37.67-1.11,1.26-1.6,1.26s-1.41-.08-1.63-.78c-.22-.7.45-1.15.45-1.15ZM109.86,314.15c-.22-.73.45-1.18.45-1.18.63-1,1.41-1,2.08-.84.67.15,1.08.84.71,1.53-.37.69-1.11,1.3-1.6,1.3s-1.41-.08-1.63-.81ZM113.51,318.03c-.37.46-1.11.87-1.6.87s-1.41-.05-1.63-.54c-.22-.49.45-.79.45-.79.63-.67,1.41-.67,2.08-.56.67.1,1.08.56.71,1.03ZM113.48,309.89c-.22-.49.45-.79.45-.79.63-.67,1.41-.67,2.08-.56.67.1,1.08.56.71,1.03-.37.46-1.11.87-1.6.87s-1.41-.05-1.63-.54ZM115.19,313.72c-.22-.58.45-.94.45-.94.63-.79,1.41-.79,2.08-.67.67.12,1.08.67.71,1.22s-1.11,1.04-1.6,1.04-1.41-.06-1.63-.64ZM119.36,319c-.37.46-1.11.87-1.6.87s-1.41-.05-1.63-.54c-.22-.49.45-.79.45-.79.63-.67,1.41-.67,2.08-.56.67.1,1.08.56.71,1.03ZM120.38,315.62c-.28-.6.56-.97.56-.97.79-.82,1.76-.82,2.6-.69.83.13,1.34.69.88,1.26-.46.57-1.39,1.07-1.99,1.07s-1.76-.07-2.04-.66Z"/>
  <path class="st3" d="M302.69,288.91c7.18,0,18.24-3.36,23.76-7.14,5.53-3.78-.55-7.56-10.5-8.39-9.95-.84-21.55-.84-30.95,4.62,0,0-9.95,2.52-6.63,6.49,3.32,3.98,17.13,4.42,24.31,4.42ZM318.1,278.94c.63-1.01,1.41-1.01,2.08-.86s1.08.86.71,1.56c-.37.7-1.11,1.32-1.6,1.32s-1.41-.08-1.63-.82c-.22-.74.45-1.21.45-1.21ZM310.96,283.64c.63-.67,1.41-.67,2.08-.56.67.1,1.08.56.71,1.03-.37.46-1.11.87-1.6.87s-1.41-.05-1.63-.54.45-.79.45-.79ZM310.47,280.68c-.37.46-1.11.87-1.6.87s-1.41-.05-1.63-.54c-.22-.49.45-.79.45-.79.63-.67,1.41-.67,2.08-.56.67.1,1.08.56.71,1.03ZM306.76,275.69c.83-.67,1.86-.67,2.74-.56.88.1,1.42.56.93,1.03s-1.47.87-2.1.87-1.86-.05-2.15-.54.59-.79.59-.79ZM306.34,285.3c.63-.67,1.41-.67,2.08-.56.67.1,1.08.56.71,1.03-.37.46-1.11.87-1.6.87s-1.41-.05-1.63-.54c-.22-.49.45-.79.45-.79ZM304.37,280.55c.83.13,1.34.69.88,1.26-.46.57-1.39,1.07-1.99,1.07s-1.76-.07-2.04-.66.56-.97.56-.97c.79-.82,1.76-.82,2.6-.69ZM300.18,275.45c.63-.96,1.41-.96,2.08-.81s1.08.81.71,1.48c-.37.67-1.11,1.26-1.6,1.26s-1.41-.08-1.63-.78c-.22-.7.45-1.15.45-1.15ZM300.2,285.6c-.37.46-1.11.87-1.6.87s-1.41-.05-1.63-.54c-.22-.49.45-.79.45-.79.63-.67,1.41-.67,2.08-.56.67.1,1.08.56.71,1.03ZM296.47,279.37c.63-.79,1.41-.79,2.08-.67s1.08.67.71,1.22c-.37.55-1.11,1.04-1.6,1.04s-1.41-.06-1.63-.64c-.22-.58.45-.94.45-.94ZM291.56,277.65c.63-.67,1.41-.67,2.08-.56.67.1,1.08.56.71,1.03s-1.11.87-1.6.87-1.41-.05-1.63-.54c-.22-.49.45-.79.45-.79ZM291.56,284.16c.63-.67,1.41-.67,2.08-.56.67.1,1.08.56.71,1.03s-1.11.87-1.6.87-1.41-.05-1.63-.54c-.22-.49.45-.79.45-.79ZM285.81,280.4c.63-.99,1.41-.99,2.08-.84.67.15,1.08.84.71,1.53-.37.69-1.11,1.3-1.6,1.3s-1.41-.08-1.63-.81c-.22-.73.45-1.18.45-1.18Z"/>
  <path class="st3" d="M375.38,289.52c-7.56-1.27-16.37-1.27-23.5,7.01,0,0-7.56,3.82-5.04,9.86,2.52,6.04,13.01,6.71,18.47,6.71s13.85-5.1,18.05-10.83c4.2-5.74-.42-11.47-7.97-12.75ZM352.61,302.11c-.37.46-1.11.87-1.6.87s-1.41-.05-1.63-.54.45-.79.45-.79c.63-.67,1.41-.67,2.08-.56.67.1,1.08.56.71,1.03ZM354.25,301.47c-.22-.49.45-.79.45-.79.63-.67,1.41-.67,2.08-.56.67.1,1.08.56.71,1.03-.37.46-1.11.87-1.6.87s-1.41-.05-1.63-.54ZM359.19,304.91c-.37.55-1.11,1.04-1.6,1.04s-1.41-.06-1.63-.64c-.22-.58.45-.94.45-.94.63-.79,1.41-.79,2.08-.67.67.12,1.08.67.71,1.22ZM362.9,301.1c-.37.67-1.11,1.26-1.6,1.26s-1.41-.08-1.63-.78c-.22-.7.45-1.15.45-1.15.63-.96,1.41-.96,2.08-.81s1.08.81.71,1.48ZM362.92,298.67c-.37.46-1.11.87-1.6.87s-1.41-.05-1.63-.54c-.22-.49.45-.79.45-.79.63-.67,1.41-.67,2.08-.56.67.1,1.08.56.71,1.03ZM364.65,296.25c-.28-.6.56-.97.56-.97.79-.82,1.76-.82,2.6-.69.83.13,1.34.69.88,1.26-.46.57-1.39,1.07-1.99,1.07s-1.76-.07-2.04-.66ZM366.11,301.47c-.29-.49.59-.79.59-.79.83-.67,1.86-.67,2.74-.56.88.1,1.42.56.93,1.03-.49.46-1.47.87-2.1.87s-1.86-.05-2.15-.54ZM370.4,305.66c-.37.46-1.11.87-1.6.87s-1.41-.05-1.63-.54c-.22-.49.45-.79.45-.79.63-.67,1.41-.67,2.08-.56.67.1,1.08.56.71,1.03ZM371.85,298.83c-.37.46-1.11.87-1.6.87s-1.41-.05-1.63-.54c-.22-.49.45-.79.45-.79.63-.67,1.41-.67,2.08-.56.67.1,1.08.56.71,1.03ZM375.39,303.64c-.37.7-1.11,1.32-1.6,1.32s-1.41-.08-1.63-.82c-.22-.74.45-1.21.45-1.21.63-1.01,1.41-1.01,2.08-.86s1.08.86.71,1.56ZM376.47,297.18c-.37.46-1.11.87-1.6.87s-1.41-.05-1.63-.54c-.22-.49.45-.79.45-.79.63-.67,1.41-.67,2.08-.56.67.1,1.08.56.71,1.03ZM381.79,298.88c-.37.69-1.11,1.3-1.6,1.3s-1.41-.08-1.63-.81c-.22-.73.45-1.18.45-1.18.63-.99,1.41-.99,2.08-.84.67.15,1.08.84.71,1.53Z"/>
  <path class="st3" d="M356.07,338.36c-7.56-.84-16.37-.84-23.51,4.62,0,0-7.56,2.52-5.04,6.49,2.52,3.98,13.01,4.42,18.47,4.42s13.85-3.36,18.05-7.14c4.2-3.78-.42-7.56-7.97-8.39ZM333.3,347.5c-.37.46-1.11.87-1.6.87s-1.41-.05-1.63-.54c-.22-.49.45-.79.45-.79.63-.67,1.41-.67,2.08-.56.67.1,1.08.56.71,1.03ZM334.94,346.86c-.22-.49.45-.79.45-.79.63-.67,1.41-.67,2.08-.56.67.1,1.08.56.71,1.03-.37.46-1.11.87-1.6.87s-1.41-.05-1.63-.54ZM339.88,350.3c-.37.55-1.11,1.04-1.6,1.04s-1.41-.06-1.63-.64c-.22-.58.45-.94.45-.94.63-.79,1.41-.79,2.08-.67.67.12,1.08.67.71,1.22ZM343.59,346.49c-.37.67-1.11,1.26-1.6,1.26s-1.41-.08-1.63-.78c-.22-.7.45-1.15.45-1.15.63-.96,1.41-.96,2.08-.81s1.08.81.71,1.48ZM343.61,344.06c-.37.46-1.11.87-1.6.87s-1.41-.05-1.63-.54.45-.79.45-.79c.63-.67,1.41-.67,2.08-.56.67.1,1.08.56.71,1.03ZM345.34,341.65c-.28-.6.56-.97.56-.97.79-.82,1.76-.82,2.6-.69.83.13,1.34.69.88,1.26s-1.39,1.07-1.99,1.07-1.76-.07-2.04-.66ZM346.8,346.86c-.29-.49.59-.79.59-.79.83-.67,1.86-.67,2.74-.56.88.1,1.42.56.93,1.03s-1.47.87-2.1.87-1.86-.05-2.15-.54ZM351.09,351.05c-.37.46-1.11.87-1.6.87s-1.41-.05-1.63-.54.45-.79.45-.79c.63-.67,1.41-.67,2.08-.56.67.1,1.08.56.71,1.03ZM352.54,344.22c-.37.46-1.11.87-1.6.87s-1.41-.05-1.63-.54c-.22-.49.45-.79.45-.79.63-.67,1.41-.67,2.08-.56.67.1,1.08.56.71,1.03ZM356.08,349.04c-.37.7-1.11,1.32-1.6,1.32s-1.41-.08-1.63-.82c-.22-.74.45-1.21.45-1.21.63-1.01,1.41-1.01,2.08-.86.67.16,1.08.86.71,1.56ZM357.16,342.57c-.37.46-1.11.87-1.6.87s-1.41-.05-1.63-.54c-.22-.49.45-.79.45-.79.63-.67,1.41-.67,2.08-.56.67.1,1.08.56.71,1.03ZM362.48,344.27c-.37.69-1.11,1.3-1.6,1.3s-1.41-.08-1.63-.81c-.22-.73.45-1.18.45-1.18.63-.99,1.41-.99,2.08-.84.67.15,1.08.84.71,1.53Z"/>
  <path class="st3" d="M318.98,310.35c-7.56-.84-16.37-.84-23.5,4.62,0,0-7.56,2.52-5.04,6.49,2.52,3.98,13.01,4.42,18.47,4.42s13.85-3.36,18.05-7.14c4.2-3.78-.42-7.56-7.97-8.39ZM295.12,319.5c-.37.46-1.11.87-1.6.87s-1.41-.05-1.63-.54c-.22-.49.45-.79.45-.79.63-.67,1.41-.67,2.08-.56.67.1,1.08.56.71,1.03ZM296.76,318.85c-.22-.49.45-.79.45-.79.63-.67,1.41-.67,2.08-.56.67.1,1.08.56.71,1.03-.37.46-1.11.87-1.6.87s-1.41-.05-1.63-.54ZM301.7,322.29c-.37.55-1.11,1.04-1.6,1.04s-1.41-.06-1.63-.64c-.22-.58.45-.94.45-.94.63-.79,1.41-.79,2.08-.67.67.12,1.08.67.71,1.22ZM305.41,318.48c-.37.67-1.11,1.26-1.6,1.26s-1.41-.08-1.63-.78c-.22-.7.45-1.15.45-1.15.63-.96,1.41-.96,2.08-.81s1.08.81.71,1.48ZM305.43,316.05c-.37.46-1.11.87-1.6.87s-1.41-.05-1.63-.54c-.22-.49.45-.79.45-.79.63-.67,1.41-.67,2.08-.56.67.1,1.08.56.71,1.03ZM307.16,313.64c-.28-.6.56-.97.56-.97.79-.82,1.76-.82,2.6-.69.83.13,1.34.69.88,1.26s-1.39,1.07-1.99,1.07-1.76-.07-2.04-.66ZM308.62,318.85c-.29-.49.59-.79.59-.79.83-.67,1.86-.67,2.74-.56.88.1,1.42.56.93,1.03-.49.46-1.47.87-2.1.87s-1.86-.05-2.15-.54ZM312.92,323.04c-.37.46-1.11.87-1.6.87s-1.41-.05-1.63-.54c-.22-.49.45-.79.45-.79.63-.67,1.41-.67,2.08-.56.67.1,1.08.56.71,1.03ZM314.36,316.22c-.37.46-1.11.87-1.6.87s-1.41-.05-1.63-.54c-.22-.49.45-.79.45-.79.63-.67,1.41-.67,2.08-.56.67.1,1.08.56.71,1.03ZM317.91,321.03c-.37.7-1.11,1.32-1.6,1.32s-1.41-.08-1.63-.82c-.22-.74.45-1.21.45-1.21.63-1.01,1.41-1.01,2.08-.86.67.16,1.08.86.71,1.56ZM318.98,314.56c-.37.46-1.11.87-1.6.87s-1.41-.05-1.63-.54c-.22-.49.45-.79.45-.79.63-.67,1.41-.67,2.08-.56.67.1,1.08.56.71,1.03ZM324.3,316.27c-.37.69-1.11,1.3-1.6,1.3s-1.41-.08-1.63-.81c-.22-.73.45-1.18.45-1.18.63-.99,1.41-.99,2.08-.84.67.15,1.08.84.71,1.53Z"/>
  <path class="st3" d="M303.81,351.91c-7.56-.84-16.37-.84-23.51,4.62,0,0-7.56,2.52-5.04,6.49,2.52,3.98,13.01,4.42,18.47,4.42s13.85-3.36,18.05-7.14c4.2-3.78-.42-7.56-7.97-8.39ZM279.76,360.81c-.37.46-1.11.87-1.6.87s-1.41-.05-1.63-.54c-.22-.49.45-.79.45-.79.63-.67,1.41-.67,2.08-.56.67.1,1.08.56.71,1.03ZM281.4,360.16c-.22-.49.45-.79.45-.79.63-.67,1.41-.67,2.08-.56.67.1,1.08.56.71,1.03-.37.46-1.11.87-1.6.87s-1.41-.05-1.63-.54ZM286.34,363.6c-.37.55-1.11,1.04-1.6,1.04s-1.41-.06-1.63-.64c-.22-.58.45-.94.45-.94.63-.79,1.41-.79,2.08-.67s1.08.67.71,1.22ZM290.05,359.79c-.37.67-1.11,1.26-1.6,1.26s-1.41-.08-1.63-.78c-.22-.7.45-1.15.45-1.15.63-.96,1.41-.96,2.08-.81s1.08.81.71,1.48ZM290.07,357.36c-.37.46-1.11.87-1.6.87s-1.41-.05-1.63-.54.45-.79.45-.79c.63-.67,1.41-.67,2.08-.56s1.08.56.71,1.03ZM291.8,354.95c-.28-.6.56-.97.56-.97.79-.82,1.76-.82,2.6-.69s1.34.69.88,1.26-1.39,1.07-1.99,1.07-1.76-.07-2.04-.66ZM293.26,360.16c-.29-.49.59-.79.59-.79.83-.67,1.86-.67,2.74-.56.88.1,1.42.56.93,1.03s-1.47.87-2.1.87-1.86-.05-2.15-.54ZM297.55,364.35c-.37.46-1.11.87-1.6.87s-1.41-.05-1.63-.54.45-.79.45-.79c.63-.67,1.41-.67,2.08-.56s1.08.56.71,1.03ZM299,357.53c-.37.46-1.11.87-1.6.87s-1.41-.05-1.63-.54.45-.79.45-.79c.63-.67,1.41-.67,2.08-.56s1.08.56.71,1.03ZM302.54,362.34c-.37.7-1.11,1.32-1.6,1.32s-1.41-.08-1.63-.82c-.22-.74.45-1.21.45-1.21.63-1.01,1.41-1.01,2.08-.86s1.08.86.71,1.56ZM303.62,355.87c-.37.46-1.11.87-1.6.87s-1.41-.05-1.63-.54.45-.79.45-.79c.63-.67,1.41-.67,2.08-.56.67.1,1.08.56.71,1.03ZM308.94,357.58c-.37.69-1.11,1.3-1.6,1.3s-1.41-.08-1.63-.81c-.22-.73.45-1.18.45-1.18.63-1,1.41-1,2.08-.84s1.08.84.71,1.53Z"/>
  <path class="st3" d="M258.03,317.67c-9.43-1.03-20.43-1.03-29.33,5.67,0,0-9.43,3.09-6.29,7.97,3.14,4.88,16.24,5.42,23.05,5.42s17.28-4.12,22.52-8.76c5.24-4.64-.52-9.27-9.95-10.3ZM249.5,322.05c.83-.67,1.86-.67,2.74-.56.88.1,1.42.56.93,1.03-.49.46-1.47.87-2.1.87s-1.86-.05-2.15-.54c-.29-.49.59-.79.59-.79ZM242.92,321.8c.63-.96,1.41-.96,2.08-.81.67.15,1.08.81.71,1.48-.37.67-1.11,1.26-1.6,1.26s-1.41-.08-1.63-.78c-.22-.7.45-1.15.45-1.15ZM233.44,327.1c-.22-.73.45-1.18.45-1.18.63-1,1.41-1,2.08-.84s1.08.84.71,1.53c-.37.69-1.11,1.3-1.6,1.3s-1.41-.08-1.63-.81ZM237.09,330.97c-.37.46-1.11.87-1.6.87s-1.41-.05-1.63-.54c-.22-.49.45-.79.45-.79.63-.67,1.41-.67,2.08-.56.67.1,1.08.56.71,1.03ZM237.06,322.84c-.22-.49.45-.79.45-.79.63-.67,1.41-.67,2.08-.56.67.1,1.08.56.71,1.03-.37.46-1.11.87-1.6.87s-1.41-.05-1.63-.54ZM238.77,326.67c-.22-.58.45-.94.45-.94.63-.79,1.41-.79,2.08-.67.67.12,1.08.67.71,1.22-.37.55-1.11,1.04-1.6,1.04s-1.41-.06-1.63-.64ZM242.94,331.95c-.37.46-1.11.87-1.6.87s-1.41-.05-1.63-.54c-.22-.49.45-.79.45-.79.63-.67,1.41-.67,2.08-.56.67.1,1.08.56.71,1.03ZM247.99,328.16c-.46.57-1.39,1.07-1.99,1.07s-1.76-.07-2.04-.66.56-.97.56-.97c.79-.82,1.76-.82,2.6-.69.83.13,1.34.69.88,1.26ZM251.87,332.11c-.37.46-1.11.87-1.6.87s-1.41-.05-1.63-.54c-.22-.49.45-.79.45-.79.63-.67,1.41-.67,2.08-.56.67.1,1.08.56.71,1.03ZM251.61,327.9c-.48,0-1.41-.05-1.63-.54s.45-.79.45-.79c.63-.67,1.41-.67,2.08-.56.67.1,1.08.56.71,1.03-.37.46-1.11.87-1.6.87ZM256.49,330.45c-.37.46-1.11.87-1.6.87s-1.41-.05-1.63-.54c-.22-.49.45-.79.45-.79.63-.67,1.41-.67,2.08-.56.67.1,1.08.56.71,1.03ZM258.2,325.01c-.37.7-1.11,1.32-1.6,1.32s-1.41-.08-1.63-.82c-.22-.74.45-1.21.45-1.21.63-1.01,1.41-1.01,2.08-.86s1.08.86.71,1.56Z"/>
  <path class="st4" d="M217.69,276.66c.48,0,1.23-.41,1.6-.87.37-.46-.04-.92-.71-1.03-.67-.1-1.45-.1-2.08.56,0,0-.67.31-.45.79.22.49,1.15.54,1.63.54Z"/>
  <path class="st4" d="M223.11,277.01c.48,0,1.23-.59,1.6-1.26.37-.67-.04-1.33-.71-1.48s-1.45-.15-2.08.81c0,0-.67.44-.45,1.15.22.7,1.15.78,1.63.78Z"/>
  <path class="st4" d="M218.21,279.01s-.67.37-.45.94c.22.58,1.15.64,1.63.64s1.23-.49,1.6-1.04c.37-.55-.04-1.1-.71-1.22s-1.45-.12-2.08.67Z"/>
  <path class="st4" d="M214.07,281.18c.48,0,1.23-.61,1.6-1.3s-.04-1.38-.71-1.53-1.45-.15-2.08.84c0,0-.67.46-.45,1.18.22.73,1.15.81,1.63.81Z"/>
  <path class="st4" d="M213.31,283.79s-.67.31-.45.79c.22.49,1.15.54,1.63.54s1.23-.41,1.6-.87c.37-.46-.04-.92-.71-1.03s-1.45-.1-2.08.56Z"/>
  <path class="st4" d="M230.06,276.66c.64,0,1.61-.41,2.1-.87.49-.46-.05-.92-.93-1.03-.88-.1-1.91-.1-2.74.56,0,0-.88.31-.59.79.29.49,1.52.54,2.15.54Z"/>
  <path class="st4" d="M235.6,279.62c.48,0,1.23-.62,1.6-1.32.37-.7-.04-1.4-.71-1.56s-1.45-.16-2.08.86c0,0-.67.47-.45,1.21.22.74,1.15.82,1.63.82Z"/>
  <path class="st4" d="M232.26,284.07c.22.49,1.15.54,1.63.54s1.23-.41,1.6-.87c.37-.46-.04-.92-.71-1.03-.67-.1-1.45-.1-2.08.56,0,0-.67.31-.45.79Z"/>
  <path class="st4" d="M231.51,279.28c-.67-.1-1.45-.1-2.08.56,0,0-.67.31-.45.79s1.15.54,1.63.54,1.23-.41,1.6-.87c.37-.46-.04-.92-.71-1.03Z"/>
  <path class="st4" d="M229.27,286.26c.48,0,1.23-.41,1.6-.87.37-.46-.04-.92-.71-1.03-.67-.1-1.45-.1-2.08.56,0,0-.67.31-.45.79.22.49,1.15.54,1.63.54Z"/>
  <path class="st4" d="M219.16,284.77s-.67.31-.45.79,1.15.54,1.63.54,1.23-.41,1.6-.87c.37-.46-.04-.92-.71-1.03-.67-.1-1.45-.1-2.08.56Z"/>
  <path class="st4" d="M222.96,281.85c.28.6,1.44.66,2.04.66s1.53-.5,1.99-1.07c.46-.57-.05-1.13-.88-1.26s-1.81-.13-2.6.69c0,0-.83.38-.56.97Z"/>
  <path class="st4" d="M157.61,276.16c.37-.46-.04-.92-.71-1.03-.67-.1-1.45-.1-2.08.56,0,0-.67.31-.45.79s1.15.54,1.63.54,1.23-.41,1.6-.87Z"/>
  <path class="st4" d="M161.43,277.37c.48,0,1.23-.59,1.6-1.26.37-.67-.04-1.33-.71-1.48-.67-.15-1.45-.15-2.08.81,0,0-.67.44-.45,1.15.22.7,1.15.78,1.63.78Z"/>
  <path class="st4" d="M159.32,279.92c.37-.55-.04-1.1-.71-1.22-.67-.12-1.45-.12-2.08.67,0,0-.67.37-.45.94.22.58,1.15.64,1.63.64s1.23-.49,1.6-1.04Z"/>
  <path class="st4" d="M153.99,280.25c.37-.69-.04-1.38-.71-1.53s-1.45-.15-2.08.84c0,0-.67.46-.45,1.18.22.73,1.15.81,1.63.81s1.23-.61,1.6-1.3Z"/>
  <path class="st4" d="M153.71,283.59c-.67-.1-1.45-.1-2.08.56,0,0-.67.31-.45.79s1.15.54,1.63.54,1.23-.41,1.6-.87c.37-.46-.04-.92-.71-1.03Z"/>
  <path class="st4" d="M168.38,277.03c.64,0,1.61-.41,2.1-.87s-.05-.92-.93-1.03c-.88-.1-1.91-.1-2.74.56,0,0-.88.31-.59.79.29.49,1.52.54,2.15.54Z"/>
  <path class="st4" d="M174.81,277.1c-.67-.16-1.45-.16-2.08.86,0,0-.67.47-.45,1.21.22.74,1.15.82,1.63.82s1.23-.62,1.6-1.32c.37-.7-.04-1.4-.71-1.56Z"/>
  <path class="st4" d="M173.1,283.08c-.67-.1-1.45-.1-2.08.56,0,0-.67.31-.45.79.22.49,1.15.54,1.63.54s1.23-.41,1.6-.87c.37-.46-.04-.92-.71-1.03Z"/>
  <path class="st4" d="M169.82,279.65c-.67-.1-1.45-.1-2.08.56,0,0-.67.31-.45.79s1.15.54,1.63.54,1.23-.41,1.6-.87c.37-.46-.04-.92-.71-1.03Z"/>
  <path class="st4" d="M168.48,284.73c-.67-.1-1.45-.1-2.08.56,0,0-.67.31-.45.79.22.49,1.15.54,1.63.54s1.23-.41,1.6-.87c.37-.46-.04-.92-.71-1.03Z"/>
  <path class="st4" d="M159.55,284.57c-.67-.1-1.45-.1-2.08.56,0,0-.67.31-.45.79.22.49,1.15.54,1.63.54s1.23-.41,1.6-.87c.37-.46-.04-.92-.71-1.03Z"/>
  <path class="st4" d="M164.43,280.55c-.83-.13-1.81-.13-2.6.69,0,0-.83.38-.56.97s1.44.66,2.04.66,1.53-.5,1.99-1.07c.46-.57-.05-1.13-.88-1.26Z"/>
  <path class="st4" d="M116.71,309.56c.37-.46-.04-.92-.71-1.03-.67-.1-1.45-.1-2.08.56,0,0-.67.31-.45.79.22.49,1.15.54,1.63.54s1.23-.41,1.6-.87Z"/>
  <path class="st4" d="M120.53,310.78c.48,0,1.23-.59,1.6-1.26.37-.67-.04-1.33-.71-1.48s-1.45-.15-2.08.81c0,0-.67.44-.45,1.15.22.7,1.15.78,1.63.78Z"/>
  <path class="st4" d="M118.42,313.33c.37-.55-.04-1.1-.71-1.22-.67-.12-1.45-.12-2.08.67,0,0-.67.37-.45.94.22.58,1.15.64,1.63.64s1.23-.49,1.6-1.04Z"/>
  <path class="st4" d="M113.09,313.65c.37-.69-.04-1.38-.71-1.53-.67-.15-1.45-.15-2.08.84,0,0-.67.46-.45,1.18.22.73,1.15.81,1.63.81s1.23-.61,1.6-1.3Z"/>
  <path class="st4" d="M112.81,317c-.67-.1-1.45-.1-2.08.56,0,0-.67.31-.45.79.22.49,1.15.54,1.63.54s1.23-.41,1.6-.87c.37-.46-.04-.92-.71-1.03Z"/>
  <path class="st4" d="M127.48,310.43c.64,0,1.61-.41,2.1-.87.49-.46-.05-.92-.93-1.03-.88-.1-1.91-.1-2.74.56,0,0-.88.31-.59.79.29.49,1.52.54,2.15.54Z"/>
  <path class="st4" d="M133.02,313.39c.48,0,1.23-.62,1.6-1.32.37-.7-.04-1.4-.71-1.56s-1.45-.16-2.08.86c0,0-.67.47-.45,1.21.22.74,1.15.82,1.63.82Z"/>
  <path class="st4" d="M129.68,317.84c.22.49,1.15.54,1.63.54s1.23-.41,1.6-.87c.37-.46-.04-.92-.71-1.03-.67-.1-1.45-.1-2.08.56,0,0-.67.31-.45.79Z"/>
  <path class="st4" d="M128.93,313.05c-.67-.1-1.45-.1-2.08.56,0,0-.67.31-.45.79.22.49,1.15.54,1.63.54s1.23-.41,1.6-.87c.37-.46-.04-.92-.71-1.03Z"/>
  <path class="st4" d="M126.69,320.04c.48,0,1.23-.41,1.6-.87.37-.46-.04-.92-.71-1.03-.67-.1-1.45-.1-2.08.56,0,0-.67.31-.45.79.22.49,1.15.54,1.63.54Z"/>
  <path class="st4" d="M118.66,317.97c-.67-.1-1.45-.1-2.08.56,0,0-.67.31-.45.79.22.49,1.15.54,1.63.54s1.23-.41,1.6-.87c.37-.46-.04-.92-.71-1.03Z"/>
  <path class="st4" d="M124.41,315.21c.46-.57-.05-1.13-.88-1.26-.83-.13-1.81-.13-2.6.69,0,0-.83.38-.56.97.28.6,1.44.66,2.04.66s1.53-.5,1.99-1.07Z"/>
  <path class="st4" d="M176.92,307.61c.37-.46-.04-.92-.71-1.03-.67-.1-1.45-.1-2.08.56,0,0-.67.31-.45.79.22.49,1.15.54,1.63.54s1.23-.41,1.6-.87Z"/>
  <path class="st4" d="M180.74,308.82c.48,0,1.23-.59,1.6-1.26.37-.67-.04-1.33-.71-1.48s-1.45-.15-2.08.81c0,0-.67.44-.45,1.15.22.7,1.15.78,1.63.78Z"/>
  <path class="st4" d="M178.63,311.38c.37-.55-.04-1.1-.71-1.22-.67-.12-1.45-.12-2.08.67,0,0-.67.37-.45.94.22.58,1.15.64,1.63.64s1.23-.49,1.6-1.04Z"/>
  <path class="st4" d="M173.3,311.7c.37-.69-.04-1.38-.71-1.53s-1.45-.15-2.08.84c0,0-.67.46-.45,1.18s1.15.81,1.63.81,1.23-.61,1.6-1.3Z"/>
  <path class="st4" d="M173.02,315.05c-.67-.1-1.45-.1-2.08.56,0,0-.67.31-.45.79.22.49,1.15.54,1.63.54s1.23-.41,1.6-.87-.04-.92-.71-1.03Z"/>
  <path class="st4" d="M187.69,308.48c.64,0,1.61-.41,2.1-.87.49-.46-.05-.92-.93-1.03-.88-.1-1.91-.1-2.74.56,0,0-.88.31-.59.79.29.49,1.52.54,2.15.54Z"/>
  <path class="st4" d="M193.23,311.44c.48,0,1.23-.62,1.6-1.32.37-.7-.04-1.4-.71-1.56-.67-.16-1.45-.16-2.08.86,0,0-.67.47-.45,1.21.22.74,1.15.82,1.63.82Z"/>
  <path class="st4" d="M189.89,315.89c.22.49,1.15.54,1.63.54s1.23-.41,1.6-.87c.37-.46-.04-.92-.71-1.03-.67-.1-1.45-.1-2.08.56,0,0-.67.31-.45.79Z"/>
  <path class="st4" d="M189.13,311.1c-.67-.1-1.45-.1-2.08.56,0,0-.67.31-.45.79.22.49,1.15.54,1.63.54s1.23-.41,1.6-.87-.04-.92-.71-1.03Z"/>
  <path class="st4" d="M186.9,318.08c.48,0,1.23-.41,1.6-.87.37-.46-.04-.92-.71-1.03-.67-.1-1.45-.1-2.08.56,0,0-.67.31-.45.79s1.15.54,1.63.54Z"/>
  <path class="st4" d="M178.87,316.02c-.67-.1-1.45-.1-2.08.56,0,0-.67.31-.45.79.22.49,1.15.54,1.63.54s1.23-.41,1.6-.87c.37-.46-.04-.92-.71-1.03Z"/>
  <path class="st4" d="M184.62,313.26c.46-.57-.05-1.13-.88-1.26-.83-.13-1.81-.13-2.6.69,0,0-.83.38-.56.97.28.6,1.44.66,2.04.66s1.53-.5,1.99-1.07Z"/>
  <path class="st4" d="M122.48,345.73c.37-.46-.04-.92-.71-1.03-.67-.1-1.45-.1-2.08.56,0,0-.67.31-.45.79.22.49,1.15.54,1.63.54s1.23-.41,1.6-.87Z"/>
  <path class="st4" d="M126.3,346.95c.48,0,1.23-.59,1.6-1.26.37-.67-.04-1.33-.71-1.48s-1.45-.15-2.08.81c0,0-.67.44-.45,1.15.22.7,1.15.78,1.63.78Z"/>
  <path class="st4" d="M124.19,349.5c.37-.55-.04-1.1-.71-1.22s-1.45-.12-2.08.67c0,0-.67.37-.45.94.22.58,1.15.64,1.63.64s1.23-.49,1.6-1.04Z"/>
  <path class="st4" d="M118.87,349.82c.37-.69-.04-1.38-.71-1.53-.67-.15-1.45-.15-2.08.84,0,0-.67.46-.45,1.18s1.15.81,1.63.81,1.23-.61,1.6-1.3Z"/>
  <path class="st4" d="M118.58,353.17c-.67-.1-1.45-.1-2.08.56,0,0-.67.31-.45.79.22.49,1.15.54,1.63.54s1.23-.41,1.6-.87c.37-.46-.04-.92-.71-1.03Z"/>
  <path class="st4" d="M133.26,346.6c.64,0,1.61-.41,2.1-.87s-.05-.92-.93-1.03c-.88-.1-1.91-.1-2.74.56,0,0-.88.31-.59.79.29.49,1.52.54,2.15.54Z"/>
  <path class="st4" d="M139.69,346.68c-.67-.16-1.45-.16-2.08.86,0,0-.67.47-.45,1.21.22.74,1.15.82,1.63.82s1.23-.62,1.6-1.32c.37-.7-.04-1.4-.71-1.56Z"/>
  <path class="st4" d="M137.98,352.65c-.67-.1-1.45-.1-2.08.56,0,0-.67.31-.45.79.22.49,1.15.54,1.63.54s1.23-.41,1.6-.87c.37-.46-.04-.92-.71-1.03Z"/>
  <path class="st4" d="M134.7,349.22c-.67-.1-1.45-.1-2.08.56,0,0-.67.31-.45.79.22.49,1.15.54,1.63.54s1.23-.41,1.6-.87c.37-.46-.04-.92-.71-1.03Z"/>
  <path class="st4" d="M133.36,354.31c-.67-.1-1.45-.1-2.08.56,0,0-.67.31-.45.79.22.49,1.15.54,1.63.54s1.23-.41,1.6-.87c.37-.46-.04-.92-.71-1.03Z"/>
  <path class="st4" d="M124.43,354.14c-.67-.1-1.45-.1-2.08.56,0,0-.67.31-.45.79.22.49,1.15.54,1.63.54s1.23-.41,1.6-.87-.04-.92-.71-1.03Z"/>
  <path class="st4" d="M129.31,350.12c-.83-.13-1.81-.13-2.6.69,0,0-.83.38-.56.97.28.6,1.44.66,2.04.66s1.53-.5,1.99-1.07-.05-1.13-.88-1.26Z"/>
  <path class="st4" d="M187.68,353.7c.37-.46-.04-.92-.71-1.03-.67-.1-1.45-.1-2.08.56,0,0-.67.31-.45.79s1.15.54,1.63.54,1.23-.41,1.6-.87Z"/>
  <path class="st4" d="M191.5,354.91c.48,0,1.23-.59,1.6-1.26.37-.67-.04-1.33-.71-1.48s-1.45-.15-2.08.81c0,0-.67.44-.45,1.15.22.7,1.15.78,1.63.78Z"/>
  <path class="st4" d="M189.39,357.47c.37-.55-.04-1.1-.71-1.22-.67-.12-1.45-.12-2.08.67,0,0-.67.37-.45.94.22.58,1.15.64,1.63.64s1.23-.49,1.6-1.04Z"/>
  <path class="st4" d="M184.06,357.79c.37-.69-.04-1.38-.71-1.53-.67-.15-1.45-.15-2.08.84,0,0-.67.46-.45,1.18.22.73,1.15.81,1.63.81s1.23-.61,1.6-1.3Z"/>
  <path class="st4" d="M183.78,361.14c-.67-.1-1.45-.1-2.08.56,0,0-.67.31-.45.79.22.49,1.15.54,1.63.54s1.23-.41,1.6-.87c.37-.46-.04-.92-.71-1.03Z"/>
  <path class="st4" d="M198.46,354.57c.64,0,1.61-.41,2.1-.87.49-.46-.05-.92-.93-1.03-.88-.1-1.91-.1-2.74.56,0,0-.88.31-.59.79s1.52.54,2.15.54Z"/>
  <path class="st4" d="M204.89,354.65c-.67-.16-1.45-.16-2.08.86,0,0-.67.47-.45,1.21.22.74,1.15.82,1.63.82s1.23-.62,1.6-1.32c.37-.7-.04-1.4-.71-1.56Z"/>
  <path class="st4" d="M203.18,360.62c-.67-.1-1.45-.1-2.08.56,0,0-.67.31-.45.79.22.49,1.15.54,1.63.54s1.23-.41,1.6-.87c.37-.46-.04-.92-.71-1.03Z"/>
  <path class="st4" d="M199.9,357.19c-.67-.1-1.45-.1-2.08.56,0,0-.67.31-.45.79s1.15.54,1.63.54,1.23-.41,1.6-.87c.37-.46-.04-.92-.71-1.03Z"/>
  <path class="st4" d="M198.56,362.27c-.67-.1-1.45-.1-2.08.56,0,0-.67.31-.45.79.22.49,1.15.54,1.63.54s1.23-.41,1.6-.87c.37-.46-.04-.92-.71-1.03Z"/>
  <path class="st4" d="M189.63,362.11c-.67-.1-1.45-.1-2.08.56,0,0-.67.31-.45.79s1.15.54,1.63.54,1.23-.41,1.6-.87c.37-.46-.04-.92-.71-1.03Z"/>
  <path class="st4" d="M194.51,358.09c-.83-.13-1.81-.13-2.6.69,0,0-.83.38-.56.97s1.44.66,2.04.66,1.53-.5,1.99-1.07c.46-.57-.05-1.13-.88-1.26Z"/>
  <g>
    <path class="st4" d="M240.29,322.51c.37-.46-.04-.92-.71-1.03-.67-.1-1.45-.1-2.08.56,0,0-.67.31-.45.79s1.15.54,1.63.54,1.23-.41,1.6-.87Z"/>
    <path class="st4" d="M244.11,323.73c.48,0,1.23-.59,1.6-1.26.37-.67-.04-1.33-.71-1.48-.67-.15-1.45-.15-2.08.81,0,0-.67.44-.45,1.15.22.7,1.15.78,1.63.78Z"/>
    <path class="st4" d="M242,326.28c.37-.55-.04-1.1-.71-1.22-.67-.12-1.45-.12-2.08.67,0,0-.67.37-.45.94.22.58,1.15.64,1.63.64s1.23-.49,1.6-1.04Z"/>
    <path class="st4" d="M236.67,326.6c.37-.69-.04-1.38-.71-1.53s-1.45-.15-2.08.84c0,0-.67.46-.45,1.18s1.15.81,1.63.81,1.23-.61,1.6-1.3Z"/>
    <path class="st4" d="M236.39,329.95c-.67-.1-1.45-.1-2.08.56,0,0-.67.31-.45.79.22.49,1.15.54,1.63.54s1.23-.41,1.6-.87c.37-.46-.04-.92-.71-1.03Z"/>
    <path class="st4" d="M251.06,323.38c.64,0,1.61-.41,2.1-.87.49-.46-.05-.92-.93-1.03-.88-.1-1.91-.1-2.74.56,0,0-.88.31-.59.79.29.49,1.52.54,2.15.54Z"/>
    <path class="st4" d="M257.49,323.46c-.67-.16-1.45-.16-2.08.86,0,0-.67.47-.45,1.21.22.74,1.15.82,1.63.82s1.23-.62,1.6-1.32c.37-.7-.04-1.4-.71-1.56Z"/>
    <path class="st4" d="M255.79,329.43c-.67-.1-1.45-.1-2.08.56,0,0-.67.31-.45.79.22.49,1.15.54,1.63.54s1.23-.41,1.6-.87-.04-.92-.71-1.03Z"/>
    <path class="st4" d="M252.5,326c-.67-.1-1.45-.1-2.08.56,0,0-.67.31-.45.79s1.15.54,1.63.54,1.23-.41,1.6-.87c.37-.46-.04-.92-.71-1.03Z"/>
    <path class="st4" d="M251.16,331.08c-.67-.1-1.45-.1-2.08.56,0,0-.67.31-.45.79.22.49,1.15.54,1.63.54s1.23-.41,1.6-.87-.04-.92-.71-1.03Z"/>
    <path class="st4" d="M242.24,330.92c-.67-.1-1.45-.1-2.08.56,0,0-.67.31-.45.79.22.49,1.15.54,1.63.54s1.23-.41,1.6-.87-.04-.92-.71-1.03Z"/>
    <path class="st4" d="M247.11,326.9c-.83-.13-1.81-.13-2.6.69,0,0-.83.38-.56.97s1.44.66,2.04.66,1.53-.5,1.99-1.07c.46-.57-.05-1.13-.88-1.26Z"/>
  </g>
  <path class="st4" d="M292.75,278.98c.48,0,1.23-.41,1.6-.87s-.04-.92-.71-1.03c-.67-.1-1.45-.1-2.08.56,0,0-.67.31-.45.79.22.49,1.15.54,1.63.54Z"/>
  <path class="st4" d="M301.36,277.37c.48,0,1.23-.59,1.6-1.26.37-.67-.04-1.33-.71-1.48s-1.45-.15-2.08.81c0,0-.67.44-.45,1.15.22.7,1.15.78,1.63.78Z"/>
  <path class="st4" d="M297.66,280.96c.48,0,1.23-.49,1.6-1.04.37-.55-.04-1.1-.71-1.22s-1.45-.12-2.08.67c0,0-.67.37-.45.94.22.58,1.15.64,1.63.64Z"/>
  <path class="st4" d="M287,282.39c.48,0,1.23-.61,1.6-1.3.37-.69-.04-1.38-.71-1.53-.67-.15-1.45-.15-2.08.84,0,0-.67.46-.45,1.18.22.73,1.15.81,1.63.81Z"/>
  <path class="st4" d="M292.75,285.49c.48,0,1.23-.41,1.6-.87s-.04-.92-.71-1.03c-.67-.1-1.45-.1-2.08.56,0,0-.67.31-.45.79.22.49,1.15.54,1.63.54Z"/>
  <path class="st4" d="M308.32,277.03c.64,0,1.61-.41,2.1-.87s-.05-.92-.93-1.03c-.88-.1-1.91-.1-2.74.56,0,0-.88.31-.59.79s1.52.54,2.15.54Z"/>
  <path class="st4" d="M319.29,280.97c.48,0,1.23-.62,1.6-1.32.37-.7-.04-1.4-.71-1.56s-1.45-.16-2.08.86c0,0-.67.47-.45,1.21.22.74,1.15.82,1.63.82Z"/>
  <path class="st4" d="M310.52,284.43c.22.49,1.15.54,1.63.54s1.23-.41,1.6-.87c.37-.46-.04-.92-.71-1.03-.67-.1-1.45-.1-2.08.56,0,0-.67.31-.45.79Z"/>
  <path class="st4" d="M309.76,279.65c-.67-.1-1.45-.1-2.08.56,0,0-.67.31-.45.79.22.49,1.15.54,1.63.54s1.23-.41,1.6-.87-.04-.92-.71-1.03Z"/>
  <path class="st4" d="M307.53,286.63c.48,0,1.23-.41,1.6-.87.37-.46-.04-.92-.71-1.03-.67-.1-1.45-.1-2.08.56,0,0-.67.31-.45.79.22.49,1.15.54,1.63.54Z"/>
  <path class="st4" d="M297.41,285.13s-.67.31-.45.79c.22.49,1.15.54,1.63.54s1.23-.41,1.6-.87c.37-.46-.04-.92-.71-1.03-.67-.1-1.45-.1-2.08.56Z"/>
  <path class="st4" d="M301.22,282.21c.28.6,1.44.66,2.04.66s1.53-.5,1.99-1.07c.46-.57-.05-1.13-.88-1.26-.83-.13-1.81-.13-2.6.69,0,0-.83.38-.56.97Z"/>
  <path class="st4" d="M299.99,318.52c.37-.46-.04-.92-.71-1.03-.67-.1-1.45-.1-2.08.56,0,0-.67.31-.45.79.22.49,1.15.54,1.63.54s1.23-.41,1.6-.87Z"/>
  <path class="st4" d="M304.71,317c-.67-.15-1.45-.15-2.08.81,0,0-.67.44-.45,1.15.22.7,1.15.78,1.63.78s1.23-.59,1.6-1.26c.37-.67-.04-1.33-.71-1.48Z"/>
  <path class="st4" d="M301,321.07c-.67-.12-1.45-.12-2.08.67,0,0-.67.37-.45.94.22.58,1.15.64,1.63.64s1.23-.49,1.6-1.04-.04-1.1-.71-1.22Z"/>
  <path class="st4" d="M323.6,314.74c-.67-.15-1.45-.15-2.08.84,0,0-.67.46-.45,1.18.22.73,1.15.81,1.63.81s1.23-.61,1.6-1.3-.04-1.38-.71-1.53Z"/>
  <path class="st4" d="M294.42,318.47c-.67-.1-1.45-.1-2.08.56,0,0-.67.31-.45.79.22.49,1.15.54,1.63.54s1.23-.41,1.6-.87-.04-.92-.71-1.03Z"/>
  <path class="st4" d="M312.87,318.52c.49-.46-.05-.92-.93-1.03-.88-.1-1.91-.1-2.74.56,0,0-.88.31-.59.79s1.52.54,2.15.54,1.61-.41,2.1-.87Z"/>
  <path class="st4" d="M317.2,319.47c-.67-.16-1.45-.16-2.08.86,0,0-.67.47-.45,1.21.22.74,1.15.82,1.63.82s1.23-.62,1.6-1.32c.37-.7-.04-1.4-.71-1.56Z"/>
  <path class="st4" d="M318.28,313.53c-.67-.1-1.45-.1-2.08.56,0,0-.67.31-.45.79.22.49,1.15.54,1.63.54s1.23-.41,1.6-.87c.37-.46-.04-.92-.71-1.03Z"/>
  <path class="st4" d="M312.21,322.02c-.67-.1-1.45-.1-2.08.56,0,0-.67.31-.45.79.22.49,1.15.54,1.63.54s1.23-.41,1.6-.87c.37-.46-.04-.92-.71-1.03Z"/>
  <path class="st4" d="M313.65,315.19c-.67-.1-1.45-.1-2.08.56,0,0-.67.31-.45.79.22.49,1.15.54,1.63.54s1.23-.41,1.6-.87c.37-.46-.04-.92-.71-1.03Z"/>
  <path class="st4" d="M304.73,315.03c-.67-.1-1.45-.1-2.08.56,0,0-.67.31-.45.79.22.49,1.15.54,1.63.54s1.23-.41,1.6-.87-.04-.92-.71-1.03Z"/>
  <path class="st4" d="M311.19,313.23c.46-.57-.05-1.13-.88-1.26-.83-.13-1.81-.13-2.6.69,0,0-.83.38-.56.97.28.6,1.44.66,2.04.66s1.53-.5,1.99-1.07Z"/>
  <path class="st4" d="M358.49,303.68c-.67-.12-1.45-.12-2.08.67,0,0-.67.37-.45.94.22.58,1.15.64,1.63.64s1.23-.49,1.6-1.04c.37-.55-.04-1.1-.71-1.22Z"/>
  <path class="st4" d="M362.22,297.64c-.67-.1-1.45-.1-2.08.56,0,0-.67.31-.45.79.22.49,1.15.54,1.63.54s1.23-.41,1.6-.87c.37-.46-.04-.92-.71-1.03Z"/>
  <g>
    <path class="st4" d="M357.48,301.14c.37-.46-.04-.92-.71-1.03-.67-.1-1.45-.1-2.08.56,0,0-.67.31-.45.79.22.49,1.15.54,1.63.54s1.23-.41,1.6-.87Z"/>
    <path class="st4" d="M362.19,299.61c-.67-.15-1.45-.15-2.08.81,0,0-.67.44-.45,1.15.22.7,1.15.78,1.63.78s1.23-.59,1.6-1.26c.37-.67-.04-1.33-.71-1.48Z"/>
    <path class="st4" d="M381.08,297.35c-.67-.15-1.45-.15-2.08.84,0,0-.67.46-.45,1.18.22.73,1.15.81,1.63.81s1.23-.61,1.6-1.3c.37-.69-.04-1.38-.71-1.53Z"/>
    <path class="st4" d="M351.91,301.09c-.67-.1-1.45-.1-2.08.56,0,0-.67.31-.45.79s1.15.54,1.63.54,1.23-.41,1.6-.87c.37-.46-.04-.92-.71-1.03Z"/>
    <path class="st4" d="M370.36,301.14c.49-.46-.05-.92-.93-1.03-.88-.1-1.91-.1-2.74.56,0,0-.88.31-.59.79.29.49,1.52.54,2.15.54s1.61-.41,2.1-.87Z"/>
    <path class="st4" d="M374.69,302.09c-.67-.16-1.45-.16-2.08.86,0,0-.67.47-.45,1.21.22.74,1.15.82,1.63.82s1.23-.62,1.6-1.32c.37-.7-.04-1.4-.71-1.56Z"/>
    <path class="st4" d="M375.77,296.15c-.67-.1-1.45-.1-2.08.56,0,0-.67.31-.45.79.22.49,1.15.54,1.63.54s1.23-.41,1.6-.87-.04-.92-.71-1.03Z"/>
    <path class="st4" d="M369.7,304.63c-.67-.1-1.45-.1-2.08.56,0,0-.67.31-.45.79.22.49,1.15.54,1.63.54s1.23-.41,1.6-.87c.37-.46-.04-.92-.71-1.03Z"/>
    <path class="st4" d="M371.14,297.81c-.67-.1-1.45-.1-2.08.56,0,0-.67.31-.45.79.22.49,1.15.54,1.63.54s1.23-.41,1.6-.87-.04-.92-.71-1.03Z"/>
    <path class="st4" d="M368.68,295.85c.46-.57-.05-1.13-.88-1.26-.83-.13-1.81-.13-2.6.69,0,0-.83.38-.56.97s1.44.66,2.04.66,1.53-.5,1.99-1.07Z"/>
  </g>
  <path class="st4" d="M338.17,346.53c.37-.46-.04-.92-.71-1.03-.67-.1-1.45-.1-2.08.56,0,0-.67.31-.45.79s1.15.54,1.63.54,1.23-.41,1.6-.87Z"/>
  <path class="st4" d="M342.88,345.01c-.67-.15-1.45-.15-2.08.81,0,0-.67.44-.45,1.15.22.7,1.15.78,1.63.78s1.23-.59,1.6-1.26-.04-1.33-.71-1.48Z"/>
  <path class="st4" d="M339.18,349.08c-.67-.12-1.45-.12-2.08.67,0,0-.67.37-.45.94.22.58,1.15.64,1.63.64s1.23-.49,1.6-1.04c.37-.55-.04-1.1-.71-1.22Z"/>
  <path class="st4" d="M361.77,342.74c-.67-.15-1.45-.15-2.08.84,0,0-.67.46-.45,1.18.22.73,1.15.81,1.63.81s1.23-.61,1.6-1.3c.37-.69-.04-1.38-.71-1.53Z"/>
  <path class="st4" d="M332.6,346.48c-.67-.1-1.45-.1-2.08.56,0,0-.67.31-.45.79.22.49,1.15.54,1.63.54s1.23-.41,1.6-.87-.04-.92-.71-1.03Z"/>
  <path class="st4" d="M351.05,346.53c.49-.46-.05-.92-.93-1.03-.88-.1-1.91-.1-2.74.56,0,0-.88.31-.59.79s1.52.54,2.15.54,1.61-.41,2.1-.87Z"/>
  <path class="st4" d="M355.38,347.48c-.67-.16-1.45-.16-2.08.86,0,0-.67.47-.45,1.21.22.74,1.15.82,1.63.82s1.23-.62,1.6-1.32c.37-.7-.04-1.4-.71-1.56Z"/>
  <path class="st4" d="M356.46,341.54c-.67-.1-1.45-.1-2.08.56,0,0-.67.31-.45.79.22.49,1.15.54,1.63.54s1.23-.41,1.6-.87c.37-.46-.04-.92-.71-1.03Z"/>
  <path class="st4" d="M350.39,350.03c-.67-.1-1.45-.1-2.08.56,0,0-.67.31-.45.79s1.15.54,1.63.54,1.23-.41,1.6-.87c.37-.46-.04-.92-.71-1.03Z"/>
  <path class="st4" d="M351.83,343.2c-.67-.1-1.45-.1-2.08.56,0,0-.67.31-.45.79.22.49,1.15.54,1.63.54s1.23-.41,1.6-.87c.37-.46-.04-.92-.71-1.03Z"/>
  <path class="st4" d="M342.91,343.04c-.67-.1-1.45-.1-2.08.56,0,0-.67.31-.45.79s1.15.54,1.63.54,1.23-.41,1.6-.87c.37-.46-.04-.92-.71-1.03Z"/>
  <path class="st4" d="M349.37,341.24c.46-.57-.05-1.13-.88-1.26-.83-.13-1.81-.13-2.6.69,0,0-.83.38-.56.97.28.6,1.44.66,2.04.66s1.53-.5,1.99-1.07Z"/>
  <path class="st4" d="M284.63,359.83c.37-.46-.04-.92-.71-1.03-.67-.1-1.45-.1-2.08.56,0,0-.67.31-.45.79.22.49,1.15.54,1.63.54s1.23-.41,1.6-.87Z"/>
  <path class="st4" d="M289.34,358.31c-.67-.15-1.45-.15-2.08.81,0,0-.67.44-.45,1.15.22.7,1.15.78,1.63.78s1.23-.59,1.6-1.26c.37-.67-.04-1.33-.71-1.48Z"/>
  <path class="st4" d="M285.63,362.38c-.67-.12-1.45-.12-2.08.67,0,0-.67.37-.45.94.22.58,1.15.64,1.63.64s1.23-.49,1.6-1.04c.37-.55-.04-1.1-.71-1.22Z"/>
  <path class="st4" d="M308.23,356.04c-.67-.15-1.45-.15-2.08.84,0,0-.67.46-.45,1.18.22.73,1.15.81,1.63.81s1.23-.61,1.6-1.3-.04-1.38-.71-1.53Z"/>
  <path class="st4" d="M279.05,359.78c-.67-.1-1.45-.1-2.08.56,0,0-.67.31-.45.79.22.49,1.15.54,1.63.54s1.23-.41,1.6-.87-.04-.92-.71-1.03Z"/>
  <path class="st4" d="M297.51,359.83c.49-.46-.05-.92-.93-1.03-.88-.1-1.91-.1-2.74.56,0,0-.88.31-.59.79.29.49,1.52.54,2.15.54s1.61-.41,2.1-.87Z"/>
  <path class="st4" d="M301.84,360.78c-.67-.16-1.45-.16-2.08.86,0,0-.67.47-.45,1.21.22.74,1.15.82,1.63.82s1.23-.62,1.6-1.32c.37-.7-.04-1.4-.71-1.56Z"/>
  <path class="st4" d="M302.91,354.84c-.67-.1-1.45-.1-2.08.56,0,0-.67.31-.45.79s1.15.54,1.63.54,1.23-.41,1.6-.87c.37-.46-.04-.92-.71-1.03Z"/>
  <path class="st4" d="M296.85,363.33c-.67-.1-1.45-.1-2.08.56,0,0-.67.31-.45.79s1.15.54,1.63.54,1.23-.41,1.6-.87c.37-.46-.04-.92-.71-1.03Z"/>
  <path class="st4" d="M298.29,356.5c-.67-.1-1.45-.1-2.08.56,0,0-.67.31-.45.79s1.15.54,1.63.54,1.23-.41,1.6-.87c.37-.46-.04-.92-.71-1.03Z"/>
  <path class="st4" d="M289.36,356.34c-.67-.1-1.45-.1-2.08.56,0,0-.67.31-.45.79s1.15.54,1.63.54,1.23-.41,1.6-.87c.37-.46-.04-.92-.71-1.03Z"/>
  <path class="st4" d="M295.83,354.54c.46-.57-.05-1.13-.88-1.26s-1.81-.13-2.6.69c0,0-.83.38-.56.97.28.6,1.44.66,2.04.66s1.53-.5,1.99-1.07Z"/>
  <path class="st10" d="M361.41,377.05s-71.93-45.9-102.46-42.13c-30.54,3.77-67.63,38.13-107.02,24.06-39.4-14.07-101.15-24.51-106.2.14-5.05,24.65,28.51,46.03,30.96,65.01,2.46,18.98-16.48,50.23-11.21,53.71,5.27,3.48,13.68-18.23,19.61-25.72,5.93-7.48,48.56-22.92,51.16-12.81,2.6,10.12,19.24,33.88,57.41,40.5,38.17,6.62,27.8-1.02,16.47-8.91s-13.59-23.57,16.59-21.76c30.18,1.81,52.93,8.95,49.75,21.84s-3.83,34.35-2.43,46.2c1.4,11.86,5.27,14.97,9.91,5.35,4.65-9.63-6.55-5.77-1.96-20.19s4.13-33.26,20.98-31.19,12.5,19.7,44.86,12.69c32.36-7.01,53.22-21.22,43.39-35.2-9.83-13.98-3.74-34.53.63-44,4.37-9.47-30.45-27.59-30.45-27.59Z"/>
  <path class="st2" d="M369.83,376.19s-71.93-45.9-102.46-42.13c-30.54,3.77-67.63,38.13-107.02,24.06-39.4-14.07-101.15-24.51-106.2.14-5.05,24.65,28.51,46.03,30.96,65.01,2.46,18.98-16.48,50.23-11.21,53.71,5.27,3.48,13.68-18.23,19.61-25.72,5.93-7.48,48.56-22.92,51.16-12.81,2.6,10.12,19.24,33.88,57.41,40.5,38.17,6.62,27.8-1.02,16.47-8.91s-13.59-23.57,16.59-21.76c30.18,1.81,52.93,8.95,49.75,21.84s-3.83,34.35-2.43,46.2,5.27,14.97,9.91,5.35c4.65-9.63-6.55-5.77-1.96-20.19,4.6-14.42,4.13-33.26,20.98-31.19s12.5,19.7,44.86,12.69c32.36-7.01,53.22-21.22,43.39-35.2-9.83-13.98-3.74-34.53.63-44,4.37-9.47-30.45-27.59-30.45-27.59Z"/>
  <path class="st1" d="M410.45,275.24c-5.99-25.14-74.23-28.73-112.54-32.32-38.31-3.59-130.5-4.79-154.44,0-23.94,4.79-63.45,44.3-63.45,44.3,0,0-23.94,29.93-22.75,59.86,1.2,29.93,31.13,32.33,61.66,44.82,30.53,12.49,105.95,13.84,139.12,16.07,33.16,2.23,123.67-24.97,152.41-41.12,28.73-16.15,5.99-66.46,0-91.6ZM393.01,354.73c-25.55,12.47-106.04,33.48-135.53,31.76-29.49-1.72-96.57-2.76-123.71-12.41-27.15-9.65-53.76-11.5-54.83-34.61-1.06-23.11,20.23-46.23,20.23-46.23,0,0,35.13-30.51,56.43-34.21,21.29-3.7,103.27-2.77,137.34,0,34.07,2.77,94.75,5.55,100.08,24.96,5.32,19.42,25.55,58.27,0,70.74Z"/>
  <path class="st2" d="M292.94,259.03c-34.07-2.77-116.05-3.7-137.34,0-21.29,3.7-56.43,34.21-56.43,34.21,0,0-21.29,23.11-20.23,46.23,1.06,23.11,27.68,24.96,54.83,34.61,27.15,9.65,94.22,10.69,123.71,12.41,29.49,1.72,109.98-19.29,135.53-31.76,25.55-12.47,5.32-51.32,0-70.74-5.32-19.42-66.01-22.19-100.08-24.96ZM285.01,277.99c9.39-5.46,21-5.46,30.95-4.62,9.95.84,16.03,4.62,10.5,8.39-5.53,3.78-16.58,7.14-23.76,7.14s-21-.44-24.31-4.42c-3.32-3.98,6.63-6.49,6.63-6.49ZM210.65,275.97c7.14-7.88,15.95-7.88,23.5-6.66,7.56,1.21,12.17,6.66,7.97,12.12-4.2,5.45-12.59,10.3-18.05,10.3s-15.95-.64-18.47-6.38c-2.52-5.74,5.04-9.37,5.04-9.37ZM103.49,319.29c-2.52-5.93,5.04-9.69,5.04-9.69,7.14-8.14,15.95-8.14,23.51-6.89s12.17,6.89,7.97,12.52c-4.2,5.63-12.59,10.64-18.05,10.64s-15.95-.66-18.47-6.59ZM144.78,351c-4.2,3.78-12.59,7.14-18.05,7.14s-15.95-.44-18.47-4.42c-2.52-3.98,5.04-6.49,5.04-6.49,7.14-5.46,15.95-5.46,23.51-4.62,7.56.84,12.17,4.62,7.97,8.39ZM144.39,284.49c-2.52-3.98,5.04-6.49,5.04-6.49,7.14-5.46,15.95-5.46,23.51-4.62,7.56.84,12.17,4.62,7.97,8.39-4.2,3.78-12.59,7.14-18.05,7.14s-15.95-.44-18.47-4.42ZM163.7,315.82c-2.52-4.73,5.04-7.73,5.04-7.73,7.14-6.49,15.95-6.49,23.51-5.49,7.56,1,12.17,5.49,7.97,9.99-4.2,4.49-12.59,8.49-18.05,8.49s-15.95-.53-18.47-5.26ZM210.89,358.97c-4.2,3.78-12.59,7.14-18.05,7.14s-15.95-.44-18.47-4.42c-2.52-3.98,5.04-6.49,5.04-6.49,7.14-5.46,15.95-5.46,23.51-4.62,7.56.84,12.17,4.62,7.97,8.39ZM267.98,327.97c-5.24,4.64-15.71,8.76-22.52,8.76s-19.9-.54-23.05-5.42c-3.14-4.88,6.29-7.97,6.29-7.97,8.9-6.7,19.9-6.7,29.33-5.67,9.43,1.03,15.19,5.67,9.95,10.3ZM311.78,360.3c-4.2,3.78-12.59,7.14-18.05,7.14s-15.95-.44-18.47-4.42c-2.52-3.98,5.04-6.49,5.04-6.49,7.14-5.46,15.95-5.46,23.51-4.62,7.56.84,12.17,4.62,7.97,8.39ZM308.91,325.88c-5.46,0-15.95-.44-18.47-4.42-2.52-3.98,5.04-6.49,5.04-6.49,7.14-5.46,15.95-5.46,23.5-4.62,7.56.84,12.17,4.62,7.97,8.39-4.2,3.78-12.59,7.14-18.05,7.14ZM364.04,346.75c-4.2,3.78-12.59,7.14-18.05,7.14s-15.95-.44-18.47-4.42c-2.52-3.98,5.04-6.49,5.04-6.49,7.14-5.46,15.95-5.46,23.51-4.62s12.17,4.62,7.97,8.39ZM383.35,302.27c-4.2,5.74-12.59,10.83-18.05,10.83s-15.95-.67-18.47-6.71c-2.52-6.04,5.04-9.86,5.04-9.86,7.14-8.29,15.95-8.29,23.5-7.01,7.56,1.27,12.17,7.01,7.97,12.75Z"/>
  <path class="st3" d="M136.8,342.61c-7.56-.84-16.37-.84-23.51,4.62,0,0-7.56,2.52-5.04,6.49,2.52,3.98,13.01,4.42,18.47,4.42s13.85-3.36,18.05-7.14c4.2-3.78-.42-7.56-7.97-8.39ZM131.69,345.27c.83-.67,1.86-.67,2.74-.56.88.1,1.42.56.93,1.03s-1.47.87-2.1.87-1.86-.05-2.15-.54c-.29-.49.59-.79.59-.79ZM125.12,345.02c.63-.96,1.41-.96,2.08-.81s1.08.81.71,1.48c-.37.67-1.11,1.26-1.6,1.26s-1.41-.08-1.63-.78c-.22-.7.45-1.15.45-1.15ZM115.64,350.32c-.22-.73.45-1.18.45-1.18.63-1,1.41-1,2.08-.84.67.15,1.08.84.71,1.53-.37.69-1.11,1.3-1.6,1.3s-1.41-.08-1.63-.81ZM119.29,354.19c-.37.46-1.11.87-1.6.87s-1.41-.05-1.63-.54c-.22-.49.45-.79.45-.79.63-.67,1.41-.67,2.08-.56.67.1,1.08.56.71,1.03ZM119.25,346.06c-.22-.49.45-.79.45-.79.63-.67,1.41-.67,2.08-.56.67.1,1.08.56.71,1.03-.37.46-1.11.87-1.6.87s-1.41-.05-1.63-.54ZM120.96,349.89c-.22-.58.45-.94.45-.94.63-.79,1.41-.79,2.08-.67s1.08.67.71,1.22c-.37.55-1.11,1.04-1.6,1.04s-1.41-.06-1.63-.64ZM125.14,355.17c-.37.46-1.11.87-1.6.87s-1.41-.05-1.63-.54c-.22-.49.45-.79.45-.79.63-.67,1.41-.67,2.08-.56.67.1,1.08.56.71,1.03ZM130.19,351.38c-.46.57-1.39,1.07-1.99,1.07s-1.76-.07-2.04-.66c-.28-.6.56-.97.56-.97.79-.82,1.76-.82,2.6-.69s1.34.69.88,1.26ZM134.06,355.33c-.37.46-1.11.87-1.6.87s-1.41-.05-1.63-.54c-.22-.49.45-.79.45-.79.63-.67,1.41-.67,2.08-.56.67.1,1.08.56.71,1.03ZM133.81,351.12c-.48,0-1.41-.05-1.63-.54-.22-.49.45-.79.45-.79.63-.67,1.41-.67,2.08-.56.67.1,1.08.56.71,1.03-.37.46-1.11.87-1.6.87ZM138.69,353.68c-.37.46-1.11.87-1.6.87s-1.41-.05-1.63-.54c-.22-.49.45-.79.45-.79.63-.67,1.41-.67,2.08-.56.67.1,1.08.56.71,1.03ZM140.4,348.24c-.37.7-1.11,1.32-1.6,1.32s-1.41-.08-1.63-.82c-.22-.74.45-1.21.45-1.21.63-1.01,1.41-1.01,2.08-.86s1.08.86.71,1.56Z"/>
  <path class="st3" d="M202.92,350.57c-7.56-.84-16.37-.84-23.51,4.62,0,0-7.56,2.52-5.04,6.49,2.52,3.98,13.01,4.42,18.47,4.42s13.85-3.36,18.05-7.14c4.2-3.78-.42-7.56-7.97-8.39ZM196.89,353.24c.83-.67,1.86-.67,2.74-.56.88.1,1.42.56.93,1.03-.49.46-1.47.87-2.1.87s-1.86-.05-2.15-.54.59-.79.59-.79ZM190.31,352.99c.63-.96,1.41-.96,2.08-.81s1.08.81.71,1.48c-.37.67-1.11,1.26-1.6,1.26s-1.41-.08-1.63-.78c-.22-.7.45-1.15.45-1.15ZM180.83,358.29c-.22-.73.45-1.18.45-1.18.63-.99,1.41-.99,2.08-.84.67.15,1.08.84.71,1.53s-1.11,1.3-1.6,1.3-1.41-.08-1.63-.81ZM184.49,362.16c-.37.46-1.11.87-1.6.87s-1.41-.05-1.63-.54c-.22-.49.45-.79.45-.79.63-.67,1.41-.67,2.08-.56.67.1,1.08.56.71,1.03ZM184.45,354.03c-.22-.49.45-.79.45-.79.63-.67,1.41-.67,2.08-.56.67.1,1.08.56.71,1.03-.37.46-1.11.87-1.6.87s-1.41-.05-1.63-.54ZM186.16,357.86c-.22-.58.45-.94.45-.94.63-.79,1.41-.79,2.08-.67.67.12,1.08.67.71,1.22-.37.55-1.11,1.04-1.6,1.04s-1.41-.06-1.63-.64ZM190.34,363.14c-.37.46-1.11.87-1.6.87s-1.41-.05-1.63-.54.45-.79.45-.79c.63-.67,1.41-.67,2.08-.56.67.1,1.08.56.71,1.03ZM195.39,359.35c-.46.57-1.39,1.07-1.99,1.07s-1.76-.07-2.04-.66.56-.97.56-.97c.79-.82,1.76-.82,2.6-.69.83.13,1.34.69.88,1.26ZM199.26,363.3c-.37.46-1.11.87-1.6.87s-1.41-.05-1.63-.54c-.22-.49.45-.79.45-.79.63-.67,1.41-.67,2.08-.56s1.08.56.71,1.03ZM199.01,359.09c-.48,0-1.41-.05-1.63-.54s.45-.79.45-.79c.63-.67,1.41-.67,2.08-.56.67.1,1.08.56.71,1.03-.37.46-1.11.87-1.6.87ZM203.89,361.64c-.37.46-1.11.87-1.6.87s-1.41-.05-1.63-.54c-.22-.49.45-.79.45-.79.63-.67,1.41-.67,2.08-.56s1.08.56.71,1.03ZM205.59,356.2c-.37.7-1.11,1.32-1.6,1.32s-1.41-.08-1.63-.82c-.22-.74.45-1.21.45-1.21.63-1.01,1.41-1.01,2.08-.86s1.08.86.71,1.56Z"/>
  <path class="st4" d="M203.82,360.41c-.83-.13-1.81-.13-2.6.69,0,0-.83.38-.56.97s1.44.66,2.04.66,1.53-.5,1.99-1.07c.46-.57-.05-1.13-.88-1.26Z"/>
  <path class="st4" d="M198.4,362.06c-.83-.13-1.81-.13-2.6.69,0,0-.83.38-.56.97s1.44.66,2.04.66,1.53-.5,1.99-1.07c.46-.57-.05-1.13-.88-1.26Z"/>
  <path class="st4" d="M189.84,361.9c-.83-.13-1.81-.13-2.6.69,0,0-.83.38-.56.97s1.44.66,2.04.66,1.53-.5,1.99-1.07c.46-.57-.05-1.13-.88-1.26Z"/>
  <path class="st4" d="M183.99,360.87c-.83-.13-1.81-.13-2.6.69,0,0-.83.38-.56.97s1.44.66,2.04.66,1.53-.5,1.99-1.07c.46-.57-.05-1.13-.88-1.26Z"/>
  <path class="st4" d="M129.31,350.12c-.83-.13-1.81-.13-2.6.69,0,0-.83.38-.56.97s1.44.66,2.04.66,1.53-.5,1.99-1.07c.46-.57-.05-1.13-.88-1.26Z"/>
  <path class="st4" d="M138.2,351.98c-.83-.13-1.81-.13-2.6.69,0,0-.83.38-.56.97s1.44.66,2.04.66,1.53-.5,1.99-1.07c.46-.57-.05-1.13-.88-1.26Z"/>
  <path class="st4" d="M133.57,354.1c-.83-.13-1.81-.13-2.6.69,0,0-.83.38-.56.97s1.44.66,2.04.66,1.53-.5,1.99-1.07c.46-.57-.05-1.13-.88-1.26Z"/>
  <path class="st4" d="M124.65,353.93c-.83-.13-1.81-.13-2.6.69,0,0-.83.38-.56.97s1.44.66,2.04.66,1.53-.5,1.99-1.07c.46-.57-.05-1.13-.88-1.26Z"/>
  <path class="st4" d="M123.63,348.24c-.83-.13-1.81-.13-2.6.69,0,0-.83.38-.56.97s1.44.66,2.04.66,1.53-.5,1.99-1.07c.46-.57-.05-1.13-.88-1.26Z"/>
  <path class="st4" d="M118.37,347.84c-.83-.17-1.81-.17-2.6.96,0,0-.83.52-.56,1.35s1.44.92,2.04.92,1.53-.7,1.99-1.48c.46-.78-.05-1.57-.88-1.74Z"/>
  <path class="st4" d="M118.8,352.52c-.83-.17-1.81-.17-2.6.96,0,0-.83.52-.56,1.35s1.44.92,2.04.92,1.53-.7,1.99-1.48c.46-.78-.05-1.57-.88-1.74Z"/>
  <path class="st4" d="M134.91,349.03c-.83-.13-1.81-.13-2.6.69,0,0-.83.38-.56.97s1.44.66,2.04.66,1.53-.5,1.99-1.07c.46-.57-.05-1.13-.88-1.26Z"/>
  <path class="st3" d="M375.79,438.54c-7.56-1.27-16.37-1.27-23.5,7.01,0,0-7.56,3.82-5.04,9.86,2.52,6.04,13.01,6.71,18.47,6.71s13.85-5.1,18.05-10.83c4.2-5.74-.42-11.47-7.97-12.75ZM353.03,451.13c-.37.46-1.11.87-1.6.87s-1.41-.05-1.63-.54.45-.79.45-.79c.63-.67,1.41-.67,2.08-.56.67.1,1.08.56.71,1.03ZM354.67,450.48c-.22-.49.45-.79.45-.79.63-.67,1.41-.67,2.08-.56.67.1,1.08.56.71,1.03-.37.46-1.11.87-1.6.87s-1.41-.05-1.63-.54ZM359.61,453.92c-.37.55-1.11,1.04-1.6,1.04s-1.41-.06-1.63-.64c-.22-.58.45-.94.45-.94.63-.79,1.41-.79,2.08-.67.67.12,1.08.67.71,1.22ZM363.31,450.11c-.37.67-1.11,1.26-1.6,1.26s-1.41-.08-1.63-.78c-.22-.7.45-1.15.45-1.15.63-.96,1.41-.96,2.08-.81s1.08.81.71,1.48ZM363.34,447.68c-.37.46-1.11.87-1.6.87s-1.41-.05-1.63-.54c-.22-.49.45-.79.45-.79.63-.67,1.41-.67,2.08-.56.67.1,1.08.56.71,1.03ZM365.06,445.27c-.28-.6.56-.97.56-.97.79-.82,1.76-.82,2.6-.69.83.13,1.34.69.88,1.26-.46.57-1.39,1.07-1.99,1.07s-1.76-.07-2.04-.66ZM366.52,450.48c-.29-.49.59-.79.59-.79.83-.67,1.86-.67,2.74-.56.88.1,1.42.56.93,1.03-.49.46-1.47.87-2.1.87s-1.86-.05-2.15-.54ZM370.82,454.67c-.37.46-1.11.87-1.6.87s-1.41-.05-1.63-.54c-.22-.49.45-.79.45-.79.63-.67,1.41-.67,2.08-.56.67.1,1.08.56.71,1.03ZM372.26,447.85c-.37.46-1.11.87-1.6.87s-1.41-.05-1.63-.54c-.22-.49.45-.79.45-.79.63-.67,1.41-.67,2.08-.56.67.1,1.08.56.71,1.03ZM375.81,452.66c-.37.7-1.11,1.32-1.6,1.32s-1.41-.08-1.63-.82c-.22-.74.45-1.21.45-1.21.63-1.01,1.41-1.01,2.08-.86s1.08.86.71,1.56ZM376.89,446.19c-.37.46-1.11.87-1.6.87s-1.41-.05-1.63-.54c-.22-.49.45-.79.45-.79.63-.67,1.41-.67,2.08-.56.67.1,1.08.56.71,1.03ZM382.2,447.9c-.37.69-1.11,1.3-1.6,1.3s-1.41-.08-1.63-.81c-.22-.73.45-1.18.45-1.18.63-.99,1.41-.99,2.08-.84.67.15,1.08.84.71,1.53Z"/>
  <path class="st4" d="M358.11,450.1c.37-.46-.04-.92-.71-1.03-.67-.1-1.45-.1-2.08.56,0,0-.67.31-.45.79.22.49,1.15.54,1.63.54s1.23-.41,1.6-.87Z"/>
  <path class="st4" d="M362.83,448.58c-.67-.15-1.45-.15-2.08.81,0,0-.67.44-.45,1.15.22.7,1.15.78,1.63.78s1.23-.59,1.6-1.26c.37-.67-.04-1.33-.71-1.48Z"/>
  <path class="st4" d="M381.72,446.32c-.67-.15-1.45-.15-2.08.84,0,0-.67.46-.45,1.18.22.73,1.15.81,1.63.81s1.23-.61,1.6-1.3c.37-.69-.04-1.38-.71-1.53Z"/>
  <path class="st4" d="M352.54,450.05c-.67-.1-1.45-.1-2.08.56,0,0-.67.31-.45.79s1.15.54,1.63.54,1.23-.41,1.6-.87c.37-.46-.04-.92-.71-1.03Z"/>
  <path class="st4" d="M370.99,450.1c.49-.46-.05-.92-.93-1.03-.88-.1-1.91-.1-2.74.56,0,0-.88.31-.59.79.29.49,1.52.54,2.15.54s1.61-.41,2.1-.87Z"/>
  <path class="st4" d="M375.32,451.05c-.67-.16-1.45-.16-2.08.86,0,0-.67.47-.45,1.21.22.74,1.15.82,1.63.82s1.23-.62,1.6-1.32c.37-.7-.04-1.4-.71-1.56Z"/>
  <path class="st4" d="M376.4,445.12c-.67-.1-1.45-.1-2.08.56,0,0-.67.31-.45.79.22.49,1.15.54,1.63.54s1.23-.41,1.6-.87-.04-.92-.71-1.03Z"/>
  <path class="st4" d="M370.33,453.6c-.67-.1-1.45-.1-2.08.56,0,0-.67.31-.45.79.22.49,1.15.54,1.63.54s1.23-.41,1.6-.87c.37-.46-.04-.92-.71-1.03Z"/>
  <path class="st4" d="M371.77,446.77c-.67-.1-1.45-.1-2.08.56,0,0-.67.31-.45.79.22.49,1.15.54,1.63.54s1.23-.41,1.6-.87-.04-.92-.71-1.03Z"/>
  <path class="st4" d="M369.1,444.86c.46-.57-.05-1.13-.88-1.26-.83-.13-1.81-.13-2.6.69,0,0-.83.38-.56.97s1.44.66,2.04.66,1.53-.5,1.99-1.07Z"/>
  <path class="st4" d="M363.7,447.87c.46-.57-.05-1.13-.88-1.26-.83-.13-1.81-.13-2.6.69,0,0-.83.38-.56.97s1.44.66,2.04.66,1.53-.5,1.99-1.07Z"/>
  <path class="st4" d="M359.99,453.92c.46-.57-.05-1.13-.88-1.26-.83-.13-1.81-.13-2.6.69,0,0-.83.38-.56.97s1.44.66,2.04.66,1.53-.5,1.99-1.07Z"/>
  <path class="st12" d="M149.11,235.45c-20.5-6.54-33.15-23.23-24.31-36.55,8.84-13.32,44.73-1.72,23.76-39.61-20.97-37.89,4.84-50.32,4.84-50.32,0,0-2.7,11.93-1.86,18.53.84,6.6,18.41,23.28,22.78,30.04,4.37,6.76,11.04,20.55,3.59,28.21-7.45,7.66-30.88,11.24-37.1,17.52s8.3,32.18,8.3,32.18Z"/>
  <path class="st0" d="M159.3,226.7c-20.5-6.54-33.15-23.23-24.31-36.55,8.84-13.32,44.73-1.72,23.76-39.61-20.97-37.89,4.84-50.32,4.84-50.32,0,0-2.7,11.93-1.86,18.53.84,6.6,18.41,23.28,22.78,30.04,4.37,6.76,11.04,20.55,3.59,28.21-7.45,7.66-30.88,11.24-37.1,17.52s8.3,32.18,8.3,32.18Z"/>
  <path class="st0" d="M234.85,223.27c-20.5-6.54-33.15-23.23-24.31-36.55,8.84-13.32,44.73-1.72,23.76-39.61-20.97-37.89,4.84-50.32,4.84-50.32,0,0-2.7,11.93-1.86,18.53.84,6.6,18.41,23.28,22.78,30.04,4.37,6.76,11.04,20.55,3.59,28.21-7.45,7.66-30.88,11.24-37.1,17.52s8.3,32.18,8.3,32.18Z"/>
  <path class="st12" d="M226.81,229.57c-20.5-6.54-33.15-23.23-24.31-36.55,8.84-13.32,44.73-1.72,23.76-39.61-20.97-37.89,4.84-50.32,4.84-50.32,0,0-2.7,11.93-1.86,18.53.84,6.6,18.41,23.28,22.78,30.04,4.37,6.76,11.04,20.55,3.59,28.21-7.45,7.66-30.88,11.24-37.1,17.52s8.3,32.18,8.3,32.18Z"/>
  <path class="st12" d="M301.37,235.45c-20.5-6.54-33.15-23.23-24.31-36.55,8.84-13.32,44.73-1.72,23.76-39.61-20.97-37.89,4.84-50.32,4.84-50.32,0,0-2.7,11.93-1.86,18.53.84,6.6,18.41,23.28,22.78,30.04,4.37,6.76,11.04,20.55,3.59,28.21-7.45,7.66-30.88,11.24-37.1,17.52-6.22,6.28,8.3,32.18,8.3,32.18Z"/>
  <path class="st3" d="M200.43,421.33c-9.43-1.03-20.43-1.03-29.33,5.67,0,0-9.43,3.09-6.29,7.97,3.14,4.88,16.24,5.42,23.05,5.42s17.28-4.12,22.52-8.76c5.24-4.64-.52-9.27-9.95-10.3ZM191.9,425.7c.83-.67,1.86-.67,2.74-.56.88.1,1.42.56.93,1.03-.49.46-1.47.87-2.1.87s-1.86-.05-2.15-.54c-.29-.49.59-.79.59-.79ZM185.32,425.46c.63-.96,1.41-.96,2.08-.81.67.15,1.08.81.71,1.48-.37.67-1.11,1.26-1.6,1.26s-1.41-.08-1.63-.78c-.22-.7.45-1.15.45-1.15ZM175.84,430.75c-.22-.73.45-1.18.45-1.18.63-1,1.41-1,2.08-.84s1.08.84.71,1.53c-.37.69-1.11,1.3-1.6,1.3s-1.41-.08-1.63-.81ZM179.5,434.63c-.37.46-1.11.87-1.6.87s-1.41-.05-1.63-.54c-.22-.49.45-.79.45-.79.63-.67,1.41-.67,2.08-.56.67.1,1.08.56.71,1.03ZM179.46,426.5c-.22-.49.45-.79.45-.79.63-.67,1.41-.67,2.08-.56.67.1,1.08.56.71,1.03-.37.46-1.11.87-1.6.87s-1.41-.05-1.63-.54ZM181.17,430.33c-.22-.58.45-.94.45-.94.63-.79,1.41-.79,2.08-.67.67.12,1.08.67.71,1.22-.37.55-1.11,1.04-1.6,1.04s-1.41-.06-1.63-.64ZM185.35,435.61c-.37.46-1.11.87-1.6.87s-1.41-.05-1.63-.54c-.22-.49.45-.79.45-.79.63-.67,1.41-.67,2.08-.56.67.1,1.08.56.71,1.03ZM190.4,431.81c-.46.57-1.39,1.07-1.99,1.07s-1.76-.07-2.04-.66.56-.97.56-.97c.79-.82,1.76-.82,2.6-.69.83.13,1.34.69.88,1.26ZM194.27,435.77c-.37.46-1.11.87-1.6.87s-1.41-.05-1.63-.54c-.22-.49.45-.79.45-.79.63-.67,1.41-.67,2.08-.56.67.1,1.08.56.71,1.03ZM194.02,431.56c-.48,0-1.41-.05-1.63-.54s.45-.79.45-.79c.63-.67,1.41-.67,2.08-.56.67.1,1.08.56.71,1.03-.37.46-1.11.87-1.6.87ZM198.9,434.11c-.37.46-1.11.87-1.6.87s-1.41-.05-1.63-.54c-.22-.49.45-.79.45-.79.63-.67,1.41-.67,2.08-.56.67.1,1.08.56.71,1.03ZM200.6,428.67c-.37.7-1.11,1.32-1.6,1.32s-1.41-.08-1.63-.82c-.22-.74.45-1.21.45-1.21.63-1.01,1.41-1.01,2.08-.86s1.08.86.71,1.56Z"/>
  <path class="st3" d="M358.38,405.78c-9.43-1.03-20.43-1.03-29.33,5.67,0,0-9.43,3.09-6.29,7.97,3.14,4.88,16.24,5.42,23.05,5.42s17.28-4.12,22.52-8.76c5.24-4.64-.52-9.27-9.95-10.3ZM349.85,410.16c.83-.67,1.86-.67,2.74-.56.88.1,1.42.56.93,1.03-.49.46-1.47.87-2.1.87s-1.86-.05-2.15-.54c-.29-.49.59-.79.59-.79ZM343.27,409.91c.63-.96,1.41-.96,2.08-.81.67.15,1.08.81.71,1.48-.37.67-1.11,1.26-1.6,1.26s-1.41-.08-1.63-.78c-.22-.7.45-1.15.45-1.15ZM333.79,415.21c-.22-.73.45-1.18.45-1.18.63-1,1.41-1,2.08-.84s1.08.84.71,1.53c-.37.69-1.11,1.3-1.6,1.3s-1.41-.08-1.63-.81ZM337.44,419.09c-.37.46-1.11.87-1.6.87s-1.41-.05-1.63-.54c-.22-.49.45-.79.45-.79.63-.67,1.41-.67,2.08-.56.67.1,1.08.56.71,1.03ZM337.41,410.96c-.22-.49.45-.79.45-.79.63-.67,1.41-.67,2.08-.56.67.1,1.08.56.71,1.03-.37.46-1.11.87-1.6.87s-1.41-.05-1.63-.54ZM339.12,414.79c-.22-.58.45-.94.45-.94.63-.79,1.41-.79,2.08-.67.67.12,1.08.67.71,1.22-.37.55-1.11,1.04-1.6,1.04s-1.41-.06-1.63-.64ZM343.29,420.06c-.37.46-1.11.87-1.6.87s-1.41-.05-1.63-.54c-.22-.49.45-.79.45-.79.63-.67,1.41-.67,2.08-.56.67.1,1.08.56.71,1.03ZM348.34,416.27c-.46.57-1.39,1.07-1.99,1.07s-1.76-.07-2.04-.66.56-.97.56-.97c.79-.82,1.76-.82,2.6-.69.83.13,1.34.69.88,1.26ZM352.22,420.23c-.37.46-1.11.87-1.6.87s-1.41-.05-1.63-.54c-.22-.49.45-.79.45-.79.63-.67,1.41-.67,2.08-.56.67.1,1.08.56.71,1.03ZM351.96,416.02c-.48,0-1.41-.05-1.63-.54s.45-.79.45-.79c.63-.67,1.41-.67,2.08-.56.67.1,1.08.56.71,1.03-.37.46-1.11.87-1.6.87ZM356.84,418.57c-.37.46-1.11.87-1.6.87s-1.41-.05-1.63-.54c-.22-.49.45-.79.45-.79.63-.67,1.41-.67,2.08-.56.67.1,1.08.56.71,1.03ZM358.55,413.13c-.37.7-1.11,1.32-1.6,1.32s-1.41-.08-1.63-.82c-.22-.74.45-1.21.45-1.21.63-1.01,1.41-1.01,2.08-.86s1.08.86.71,1.56Z"/>
  <g>
    <path class="st4" d="M182.69,426.17c.37-.46-.04-.92-.71-1.03-.67-.1-1.45-.1-2.08.56,0,0-.67.31-.45.79s1.15.54,1.63.54,1.23-.41,1.6-.87Z"/>
    <path class="st4" d="M186.51,427.38c.48,0,1.23-.59,1.6-1.26.37-.67-.04-1.33-.71-1.48-.67-.15-1.45-.15-2.08.81,0,0-.67.44-.45,1.15.22.7,1.15.78,1.63.78Z"/>
    <path class="st4" d="M184.4,429.93c.37-.55-.04-1.1-.71-1.22-.67-.12-1.45-.12-2.08.67,0,0-.67.37-.45.94.22.58,1.15.64,1.63.64s1.23-.49,1.6-1.04Z"/>
    <path class="st4" d="M179.07,430.26c.37-.69-.04-1.38-.71-1.53s-1.45-.15-2.08.84c0,0-.67.46-.45,1.18s1.15.81,1.63.81,1.23-.61,1.6-1.3Z"/>
    <path class="st4" d="M178.79,433.6c-.67-.1-1.45-.1-2.08.56,0,0-.67.31-.45.79.22.49,1.15.54,1.63.54s1.23-.41,1.6-.87c.37-.46-.04-.92-.71-1.03Z"/>
    <path class="st4" d="M193.47,427.04c.64,0,1.61-.41,2.1-.87.49-.46-.05-.92-.93-1.03-.88-.1-1.91-.1-2.74.56,0,0-.88.31-.59.79.29.49,1.52.54,2.15.54Z"/>
    <path class="st4" d="M199.9,427.11c-.67-.16-1.45-.16-2.08.86,0,0-.67.47-.45,1.21.22.74,1.15.82,1.63.82s1.23-.62,1.6-1.32c.37-.7-.04-1.4-.71-1.56Z"/>
    <path class="st4" d="M198.19,433.09c-.67-.1-1.45-.1-2.08.56,0,0-.67.31-.45.79.22.49,1.15.54,1.63.54s1.23-.41,1.6-.87-.04-.92-.71-1.03Z"/>
    <path class="st4" d="M194.91,429.66c-.67-.1-1.45-.1-2.08.56,0,0-.67.31-.45.79s1.15.54,1.63.54,1.23-.41,1.6-.87c.37-.46-.04-.92-.71-1.03Z"/>
    <path class="st4" d="M193.57,434.74c-.67-.1-1.45-.1-2.08.56,0,0-.67.31-.45.79.22.49,1.15.54,1.63.54s1.23-.41,1.6-.87-.04-.92-.71-1.03Z"/>
    <path class="st4" d="M184.64,434.58c-.67-.1-1.45-.1-2.08.56,0,0-.67.31-.45.79.22.49,1.15.54,1.63.54s1.23-.41,1.6-.87-.04-.92-.71-1.03Z"/>
    <path class="st4" d="M189.52,430.56c-.83-.13-1.81-.13-2.6.69,0,0-.83.38-.56.97s1.44.66,2.04.66,1.53-.5,1.99-1.07c.46-.57-.05-1.13-.88-1.26Z"/>
  </g>
  <g>
    <path class="st4" d="M340.64,410.62c.37-.46-.04-.92-.71-1.03-.67-.1-1.45-.1-2.08.56,0,0-.67.31-.45.79s1.15.54,1.63.54,1.23-.41,1.6-.87Z"/>
    <path class="st4" d="M344.46,411.84c.48,0,1.23-.59,1.6-1.26.37-.67-.04-1.33-.71-1.48-.67-.15-1.45-.15-2.08.81,0,0-.67.44-.45,1.15.22.7,1.15.78,1.63.78Z"/>
    <path class="st4" d="M342.35,414.39c.37-.55-.04-1.1-.71-1.22-.67-.12-1.45-.12-2.08.67,0,0-.67.37-.45.94.22.58,1.15.64,1.63.64s1.23-.49,1.6-1.04Z"/>
    <path class="st4" d="M337.02,414.72c.37-.69-.04-1.38-.71-1.53s-1.45-.15-2.08.84c0,0-.67.46-.45,1.18s1.15.81,1.63.81,1.23-.61,1.6-1.3Z"/>
    <path class="st4" d="M336.74,418.06c-.67-.1-1.45-.1-2.08.56,0,0-.67.31-.45.79.22.49,1.15.54,1.63.54s1.23-.41,1.6-.87c.37-.46-.04-.92-.71-1.03Z"/>
    <path class="st4" d="M351.41,411.5c.64,0,1.61-.41,2.1-.87.49-.46-.05-.92-.93-1.03-.88-.1-1.91-.1-2.74.56,0,0-.88.31-.59.79.29.49,1.52.54,2.15.54Z"/>
    <path class="st4" d="M357.85,411.57c-.67-.16-1.45-.16-2.08.86,0,0-.67.47-.45,1.21.22.74,1.15.82,1.63.82s1.23-.62,1.6-1.32c.37-.7-.04-1.4-.71-1.56Z"/>
    <path class="st4" d="M356.14,417.54c-.67-.1-1.45-.1-2.08.56,0,0-.67.31-.45.79.22.49,1.15.54,1.63.54s1.23-.41,1.6-.87-.04-.92-.71-1.03Z"/>
    <path class="st4" d="M352.86,414.12c-.67-.1-1.45-.1-2.08.56,0,0-.67.31-.45.79s1.15.54,1.63.54,1.23-.41,1.6-.87c.37-.46-.04-.92-.71-1.03Z"/>
    <path class="st4" d="M351.51,419.2c-.67-.1-1.45-.1-2.08.56,0,0-.67.31-.45.79.22.49,1.15.54,1.63.54s1.23-.41,1.6-.87-.04-.92-.71-1.03Z"/>
    <path class="st4" d="M342.59,419.04c-.67-.1-1.45-.1-2.08.56,0,0-.67.31-.45.79.22.49,1.15.54,1.63.54s1.23-.41,1.6-.87-.04-.92-.71-1.03Z"/>
    <path class="st4" d="M347.46,415.01c-.83-.13-1.81-.13-2.6.69,0,0-.83.38-.56.97s1.44.66,2.04.66,1.53-.5,1.99-1.07c.46-.57-.05-1.13-.88-1.26Z"/>
  </g>
  <path class="st0" d="M310.3,234.03c-20.5-6.54-33.15-23.23-24.31-36.55,8.84-13.32,44.73-1.72,23.76-39.61-20.97-37.89,4.84-50.32,4.84-50.32,0,0-2.7,11.93-1.86,18.53.84,6.6,18.41,23.28,22.78,30.04,4.37,6.76,11.04,20.55,3.59,28.21-7.45,7.66-30.88,11.24-37.1,17.52-6.22,6.28,8.3,32.18,8.3,32.18Z"/>
</svg>